<svg width="47" height="47" viewBox="0 0 47 47" fill="none" xmlns="http://www.w3.org/2000/svg">
<path d="M47 8.49323V36.1698C47 37.4242 46.5018 38.6273 45.6149 39.5144L39.5144 45.6149C38.6273 46.5018 37.4242 47 36.1698 47H8.49323C6.24069 47 4.0804 46.1052 2.48761 44.5124C0.89482 42.9196 0 40.7593 0 38.5068L0 10.8302C1.73655e-05 9.57577 0.498227 8.37273 1.38508 7.48558L7.48558 1.38508C8.37273 0.498227 9.57577 1.73655e-05 10.8302 0L38.5068 0C40.7593 0 42.9196 0.89482 44.5124 2.48761C46.1052 4.0804 47 6.24069 47 8.49323Z" fill="white" fill-opacity="0.06"/>
<path d="M46.5 36.1698V8.49323C46.5 6.3733 45.6579 4.34019 44.1588 2.84116C42.6598 1.34214 40.6267 0.5 38.5068 0.5H10.8302C9.70838 0.500016 8.63251 0.945547 7.83913 1.73863L7.83908 1.73869M46.5 36.1698L7.48558 1.38508L7.83908 1.73869M46.5 36.1698C46.5 37.2916 46.0545 38.3675 45.2614 39.1609C45.2613 39.1609 45.2613 39.1609 45.2613 39.1609L39.1609 45.2613M46.5 36.1698L1.73863 7.83913C0.945547 8.63251 0.500016 9.70838 0.5 10.8302V38.5068C0.5 40.6267 1.34214 42.6598 2.84116 44.1588C4.34019 45.6579 6.3733 46.5 8.49323 46.5H36.1698C37.2916 46.5 38.3675 46.0545 39.1609 45.2614M7.83908 1.73869L1.73869 7.83908L7.83908 1.73869ZM39.1609 45.2614L39.5144 45.6149L39.1609 45.2613M39.1609 45.2614C39.1609 45.2613 39.1609 45.2613 39.1609 45.2613M39.1609 45.2614L39.1609 45.2613" stroke="white" stroke-opacity="0.09"/>
</svg>
