<svg width="150" height="163" viewBox="0 0 150 163" fill="none" xmlns="http://www.w3.org/2000/svg">
<path d="M9.04689e-07 59.1777V103.828C0.000494623 110.295 1.69147 116.648 4.903 122.248C8.11453 127.849 12.7335 132.5 18.2956 135.733L56.7044 158.058C62.267 161.292 68.5769 162.994 75 162.994C81.4231 162.994 87.733 161.292 93.2956 158.058L131.704 135.733C137.267 132.5 141.885 127.849 145.097 122.248C148.309 116.648 150 110.295 150 103.828V59.1777C150.001 52.7087 148.311 46.3534 145.1 40.7508C141.888 35.1482 137.268 30.4957 131.704 27.2612L93.2956 4.93623C87.733 1.70245 81.4231 0 75 0C68.5769 0 62.267 1.70245 56.7044 4.93623L18.2956 27.2612C12.7319 30.4957 8.11189 35.1482 4.90026 40.7508C1.68864 46.3534 -0.0014275 52.7087 9.04689e-07 59.1777Z" fill="url(#paint0_linear_135_1293)"/>
<path d="M1 59.1777L1 59.1775C0.998611 52.8828 2.64318 46.699 5.76783 41.2481C8.89244 35.7973 13.3867 31.2717 18.7981 28.1258C18.7982 28.1258 18.7982 28.1258 18.7982 28.1257L57.2069 5.80079L57.207 5.80075C62.6172 2.65554 68.7538 1 75 1C81.2462 1 87.3828 2.65554 92.793 5.80075L92.7931 5.80079L131.202 28.1257C136.613 31.2717 141.108 35.7972 144.232 41.2481C147.357 46.699 149.001 52.8828 149 59.1775V103.828C149 110.12 147.354 116.302 144.23 121.751C141.105 127.2 136.612 131.724 131.202 134.869L92.7931 157.194L93.2956 158.058L92.793 157.194C87.3828 160.339 81.2462 161.994 75 161.994C68.7538 161.994 62.6172 160.339 57.207 157.194L56.7044 158.058L57.2069 157.194L18.7982 134.869C13.3883 131.724 8.89503 127.2 5.77049 121.751C2.64593 116.302 1.00048 110.12 1 103.828V59.1777Z" stroke="white" stroke-opacity="0.2" stroke-width="2"/>
<path d="M46.237 40.1597H38.0691C35.7895 40.1597 33.9414 42.0205 33.9414 44.316V52.5404C33.9414 54.8359 35.7895 56.6967 38.0691 56.6967H46.237C48.5167 56.6967 50.3648 54.8359 50.3648 52.5404V44.316C50.3648 42.0205 48.5167 40.1597 46.237 40.1597Z" fill="white"/>
<path d="M79.0847 40.1597H70.9168C68.6371 40.1597 66.7891 42.0205 66.7891 44.316V52.5404C66.7891 54.8359 68.6371 56.6967 70.9168 56.6967H79.0847C81.3644 56.6967 83.2124 54.8359 83.2124 52.5404V44.316C83.2124 42.0205 81.3644 40.1597 79.0847 40.1597Z" fill="white"/>
<path d="M111.93 40.1597H103.762C101.483 40.1597 99.6348 42.0205 99.6348 44.316V52.5404C99.6348 54.8359 101.483 56.6967 103.762 56.6967H111.93C114.21 56.6967 116.058 54.8359 116.058 52.5404V44.316C116.058 42.0205 114.21 40.1597 111.93 40.1597Z" fill="white"/>
<path d="M46.237 106.308H38.0691C35.7895 106.308 33.9414 108.168 33.9414 110.464V118.688C33.9414 120.984 35.7895 122.845 38.0691 122.845H46.237C48.5167 122.845 50.3648 120.984 50.3648 118.688V110.464C50.3648 108.168 48.5167 106.308 46.237 106.308Z" fill="white"/>
<path d="M111.93 73.2334H103.762C101.483 73.2334 99.6348 75.0942 99.6348 77.3897V85.6141C99.6348 87.9096 101.483 89.7704 103.762 89.7704H111.93C114.21 89.7704 116.058 87.9096 116.058 85.6141V77.3897C116.058 75.0942 114.21 73.2334 111.93 73.2334Z" fill="white"/>
<path d="M46.237 73.2334H38.0691C35.7895 73.2334 33.9414 75.0942 33.9414 77.3897V85.6141C33.9414 87.9096 35.7895 89.7704 38.0691 89.7704H46.237C48.5167 89.7704 50.3648 87.9096 50.3648 85.6141V77.3897C50.3648 75.0942 48.5167 73.2334 46.237 73.2334Z" fill="white"/>
<path d="M79.0847 73.2334H70.9168C68.6371 73.2334 66.7891 75.0942 66.7891 77.3897V85.6141C66.7891 87.9096 68.6371 89.7704 70.9168 89.7704H79.0847C81.3644 89.7704 83.2124 87.9096 83.2124 85.6141V77.3897C83.2124 75.0942 81.3644 73.2334 79.0847 73.2334Z" fill="white"/>
<defs>
<linearGradient id="paint0_linear_135_1293" x1="81.115" y1="-67.045" x2="-41.5356" y2="-37.9227" gradientUnits="userSpaceOnUse">
<stop stop-color="#00D06C"/>
<stop offset="1" stop-color="#009C51"/>
</linearGradient>
</defs>
</svg>
