<svg width="188" height="53" viewBox="0 0 188 53" fill="none" xmlns="http://www.w3.org/2000/svg">
<path d="M187.5 32.0787V32.08V43.1395C187.498 45.6213 186.511 48.0007 184.756 49.7556C183.001 51.5105 180.621 52.4975 178.14 52.5H32.08H32.0787C30.845 52.5033 29.6227 52.2625 28.4823 51.7917C27.3419 51.3209 26.3058 50.6293 25.4337 49.7566L3.24383 27.5367L3.24348 27.5364C2.37081 26.6642 1.67917 25.6282 1.20834 24.4878C0.73752 23.3474 0.496801 22.1251 0.500034 20.8913V20.89V9.86031C0.502608 7.3786 1.4896 4.99927 3.24444 3.24444C4.99927 1.4896 7.3786 0.502608 9.86031 0.500034L155.92 0.500036L155.921 0.500032C157.155 0.496801 158.377 0.73752 159.518 1.20834C160.658 1.67917 161.694 2.37081 162.566 3.24348L162.566 3.24359L184.785 25.4622C184.785 25.4622 184.785 25.4623 184.785 25.4624C186.53 27.2216 187.507 29.6009 187.5 32.0787Z" fill="white" fill-opacity="0.06" stroke="url(#paint0_linear_116_652)"/>
<defs>
<linearGradient id="paint0_linear_116_652" x1="188" y1="27" x2="2.68616e-06" y2="27" gradientUnits="userSpaceOnUse">
<stop stop-color="white" stop-opacity="0.32"/>
<stop offset="1" stop-color="white" stop-opacity="0"/>
</linearGradient>
</defs>
</svg>
