<svg width="188" height="53" viewBox="0 0 188 53" fill="none" xmlns="http://www.w3.org/2000/svg">
<path d="M188 32.08V43.14C187.997 45.7543 186.958 48.2607 185.109 50.1092C183.261 51.9577 180.754 52.9974 178.14 53H32.08C30.7804 53.0034 29.4928 52.7499 28.2915 52.2539C27.0902 51.7579 25.9988 51.0293 25.08 50.11L2.89003 27.89C1.97074 26.9713 1.24216 25.8799 0.746183 24.6786C0.250208 23.4772 -0.00336976 22.1897 3.38129e-05 20.89V9.86003C0.00268113 7.24581 1.04235 4.73942 2.89088 2.89088C4.73942 1.04235 7.24581 0.00268113 9.86003 3.38129e-05H155.92C157.22 -0.00336976 158.507 0.250208 159.709 0.746183C160.91 1.24216 162.001 1.97074 162.92 2.89003L185.14 25.11C186.978 26.9632 188.007 29.4697 188 32.08Z" fill="url(#paint0_linear_116_598)"/>
<path d="M187 32.0774V32.08V43.139C186.998 45.4884 186.063 47.7408 184.402 49.4021C182.741 51.0633 180.488 51.9977 178.139 52L32.08 52L32.0774 52C30.9096 52.0031 29.7526 51.7752 28.6731 51.3296C27.5938 50.8839 26.6131 50.2293 25.7876 49.4034C25.7875 49.4033 25.7874 49.4032 25.7874 49.4031L3.59762 27.1834L3.59693 27.1827C2.77087 26.3572 2.11618 25.3764 1.67051 24.2969C1.22483 23.2175 0.996972 22.0605 1.00003 20.8927V20.89V9.86048C1.00256 7.51132 1.93688 5.2591 3.59799 3.59799C5.2591 1.93688 7.51132 1.00256 9.86048 1.00003L155.92 1.00004L155.923 1.00003C157.091 0.996972 158.247 1.22483 159.327 1.67051C160.406 2.11618 161.387 2.77087 162.213 3.59693L162.213 3.59714L184.43 25.8143C184.431 25.8151 184.432 25.8158 184.432 25.8166C186.083 27.4816 187.006 29.7329 187 32.0774Z" stroke="white" stroke-opacity="0.2" stroke-width="2"/>
<defs>
<linearGradient id="paint0_linear_116_598" x1="142" y1="-22.5" x2="54.8991" y2="87.8152" gradientUnits="userSpaceOnUse">
<stop stop-color="#00D06C"/>
<stop offset="1" stop-color="#009C51"/>
</linearGradient>
</defs>
</svg>
