<svg width="297" height="323" viewBox="0 0 297 323" fill="none" xmlns="http://www.w3.org/2000/svg">
<path d="M1.79129e-06 117.27V205.752C0.000979353 218.567 3.34912 231.157 9.70794 242.255C16.0668 253.353 25.2123 262.57 36.2253 268.977L112.275 313.218C123.289 319.626 135.782 323 148.5 323C161.218 323 173.711 319.626 184.725 313.218L260.775 268.977C271.788 262.57 280.933 253.353 287.292 242.255C293.651 231.157 296.999 218.567 297 205.752V117.27C297.003 104.451 293.657 91.8569 287.297 80.7544C280.938 69.6518 271.791 60.4322 260.775 54.0226L184.725 9.78194C173.711 3.37368 161.218 0 148.5 0C135.782 0 123.289 3.37368 112.275 9.78194L36.2253 54.0226C25.2091 60.4322 16.0615 69.6518 9.70252 80.7544C3.34351 91.8569 -0.00282645 104.451 1.79129e-06 117.27Z" fill="url(#paint0_linear_135_1284)" fill-opacity="0.06"/>
<path d="M112.526 312.786L112.275 313.218L112.526 312.786L36.4768 268.545C25.5399 262.182 16.4572 253.029 10.1418 242.007C3.82639 230.984 0.500973 218.48 0.500002 205.752V117.27C0.497193 104.538 3.82082 92.0296 10.1364 81.0029C16.452 69.9762 25.5367 60.8201 36.4768 54.4547L112.526 10.2141L112.275 9.78194L112.526 10.2141C123.464 3.85018 135.871 0.5 148.5 0.5C161.129 0.5 173.536 3.85018 184.474 10.2141L184.725 9.78194L184.474 10.2141L260.523 54.4547C271.463 60.8201 280.548 69.9762 286.864 81.0029C293.179 92.0296 296.503 104.538 296.5 117.27V205.752C296.499 218.48 293.174 230.984 286.858 242.007C280.543 253.029 271.46 262.182 260.523 268.545L184.474 312.786L184.725 313.218L184.474 312.786C173.536 319.15 161.129 322.5 148.5 322.5C135.871 322.5 123.464 319.15 112.526 312.786Z" stroke="white" stroke-opacity="0.09"/>
<defs>
<linearGradient id="paint0_linear_135_1284" x1="668.166" y1="32.9924" x2="456.236" y2="293.74" gradientUnits="userSpaceOnUse">
<stop stop-color="white"/>
<stop offset="1" stop-color="white" stop-opacity="0"/>
</linearGradient>
</defs>
</svg>
