<svg width="107" height="87" viewBox="0 0 107 87" fill="none" xmlns="http://www.w3.org/2000/svg">
<rect x="65.75" y="22.75" width="40.5" height="63.5" rx="20.25" stroke="white" stroke-opacity="0.46" stroke-width="1.5"/>
<path d="M4.64534 59.14C3.83334 59.14 3.15201 59.0187 2.60134 58.776C2.05068 58.524 1.62601 58.202 1.32734 57.81C1.03801 57.4087 0.88401 56.984 0.865344 56.536C0.865344 56.4613 0.893344 56.396 0.949344 56.34C1.01468 56.2747 1.08934 56.242 1.17334 56.242H1.88734C1.99934 56.242 2.08334 56.27 2.13934 56.326C2.19534 56.382 2.23268 56.4473 2.25134 56.522C2.29801 56.746 2.41001 56.97 2.58734 57.194C2.77401 57.4087 3.03068 57.5907 3.35734 57.74C3.69334 57.88 4.12268 57.95 4.64534 57.95C5.44801 57.95 6.03601 57.81 6.40934 57.53C6.79201 57.2407 6.98334 56.858 6.98334 56.382C6.98334 56.0553 6.88068 55.794 6.67534 55.598C6.47934 55.3927 6.17601 55.2107 5.76534 55.052C5.35468 54.8933 4.82268 54.7207 4.16934 54.534C3.48801 54.338 2.92334 54.1233 2.47534 53.89C2.02734 53.6567 1.69134 53.3673 1.46734 53.022C1.25268 52.6767 1.14534 52.238 1.14534 51.706C1.14534 51.202 1.28068 50.754 1.55134 50.362C1.82201 49.9607 2.20934 49.6433 2.71334 49.41C3.22668 49.1767 3.84734 49.06 4.57534 49.06C5.15401 49.06 5.65801 49.1393 6.08734 49.298C6.52601 49.4473 6.89001 49.6527 7.17934 49.914C7.46868 50.166 7.68801 50.4413 7.83734 50.74C7.98668 51.0293 8.06601 51.314 8.07534 51.594C8.07534 51.6593 8.05201 51.7247 8.00534 51.79C7.95868 51.846 7.88401 51.874 7.78134 51.874H7.03934C6.97401 51.874 6.90401 51.8553 6.82934 51.818C6.76401 51.7807 6.71268 51.7107 6.67534 51.608C6.61934 51.2253 6.40468 50.9033 6.03134 50.642C5.65801 50.3807 5.17268 50.25 4.57534 50.25C3.96868 50.25 3.47401 50.3667 3.09134 50.6C2.71801 50.8333 2.53134 51.1973 2.53134 51.692C2.53134 52.0093 2.62001 52.2753 2.79734 52.49C2.97468 52.6953 3.25468 52.8773 3.63734 53.036C4.02001 53.1947 4.51934 53.3627 5.13534 53.54C5.88201 53.7453 6.49334 53.9647 6.96934 54.198C7.44534 54.422 7.79534 54.7067 8.01934 55.052C8.25268 55.388 8.36934 55.822 8.36934 56.354C8.36934 56.942 8.21534 57.446 7.90734 57.866C7.59934 58.2767 7.16534 58.594 6.60534 58.818C6.05468 59.0327 5.40134 59.14 4.64534 59.14ZM13.7323 59.14C12.8737 59.14 12.1597 58.9813 11.5903 58.664C11.0303 58.3467 10.6057 57.9033 10.3163 57.334C10.027 56.7647 9.86833 56.102 9.84033 55.346C9.83099 54.9633 9.82633 54.5527 9.82633 54.114C9.82633 53.6753 9.83099 53.2553 9.84033 52.854C9.86833 52.098 10.027 51.4353 10.3163 50.866C10.6057 50.2967 11.0303 49.8533 11.5903 49.536C12.1597 49.2187 12.8737 49.06 13.7323 49.06C14.3763 49.06 14.941 49.1487 15.4263 49.326C15.9117 49.5033 16.313 49.7413 16.6303 50.04C16.957 50.3387 17.2043 50.6747 17.3723 51.048C17.5403 51.412 17.6337 51.79 17.6523 52.182C17.6617 52.266 17.6337 52.336 17.5683 52.392C17.5123 52.448 17.4423 52.476 17.3583 52.476H16.5883C16.5043 52.476 16.4297 52.4527 16.3643 52.406C16.3083 52.3593 16.2663 52.2753 16.2383 52.154C16.0797 51.426 15.781 50.9267 15.3423 50.656C14.913 50.3853 14.3717 50.25 13.7183 50.25C12.9717 50.25 12.379 50.4647 11.9403 50.894C11.5017 51.314 11.2637 51.9907 11.2263 52.924C11.1983 53.6893 11.1983 54.4733 11.2263 55.276C11.2637 56.2093 11.5017 56.8907 11.9403 57.32C12.379 57.74 12.9717 57.95 13.7183 57.95C14.3717 57.95 14.913 57.8147 15.3423 57.544C15.781 57.2733 16.0797 56.774 16.2383 56.046C16.2663 55.9247 16.3083 55.8407 16.3643 55.794C16.4297 55.7473 16.5043 55.724 16.5883 55.724H17.3583C17.4423 55.724 17.5123 55.752 17.5683 55.808C17.6337 55.864 17.6617 55.934 17.6523 56.018C17.6337 56.41 17.5403 56.7927 17.3723 57.166C17.2043 57.53 16.957 57.8613 16.6303 58.16C16.313 58.4587 15.9117 58.6967 15.4263 58.874C14.941 59.0513 14.3763 59.14 13.7323 59.14ZM19.8505 59C19.7479 59 19.6685 58.972 19.6125 58.916C19.5565 58.8507 19.5285 58.7713 19.5285 58.678V49.536C19.5285 49.4333 19.5565 49.354 19.6125 49.298C19.6685 49.2327 19.7479 49.2 19.8505 49.2H23.2665C24.3212 49.2 25.1565 49.4473 25.7725 49.942C26.3885 50.4367 26.6965 51.1693 26.6965 52.14C26.6965 52.8587 26.5145 53.4467 26.1505 53.904C25.7959 54.352 25.3105 54.6647 24.6945 54.842L26.8505 58.566C26.8785 58.622 26.8925 58.6733 26.8925 58.72C26.8925 58.7947 26.8599 58.86 26.7945 58.916C26.7385 58.972 26.6732 59 26.5985 59H25.9265C25.7679 59 25.6512 58.958 25.5765 58.874C25.5019 58.79 25.4365 58.706 25.3805 58.622L23.3505 55.066H20.9005V58.678C20.9005 58.7713 20.8679 58.8507 20.8025 58.916C20.7465 58.972 20.6672 59 20.5645 59H19.8505ZM20.9005 53.876H23.2105C23.9105 53.876 24.4332 53.7313 24.7785 53.442C25.1239 53.1433 25.2965 52.7047 25.2965 52.126C25.2965 51.5567 25.1239 51.1227 24.7785 50.824C24.4425 50.5253 23.9199 50.376 23.2105 50.376H20.9005V53.876ZM32.2027 59.14C31.4094 59.14 30.728 59.0047 30.1587 58.734C29.5894 58.454 29.1507 58.0293 28.8427 57.46C28.5347 56.8813 28.362 56.158 28.3247 55.29C28.3154 54.8793 28.3107 54.4873 28.3107 54.114C28.3107 53.7313 28.3154 53.3347 28.3247 52.924C28.362 52.0653 28.5394 51.3513 28.8567 50.782C29.1834 50.2033 29.6314 49.774 30.2007 49.494C30.7794 49.2047 31.4467 49.06 32.2027 49.06C32.968 49.06 33.6354 49.2047 34.2047 49.494C34.7834 49.774 35.236 50.2033 35.5627 50.782C35.8894 51.3513 36.0667 52.0653 36.0947 52.924C36.1134 53.3347 36.1227 53.7313 36.1227 54.114C36.1227 54.4873 36.1134 54.8793 36.0947 55.29C36.0667 56.158 35.894 56.8813 35.5767 57.46C35.2687 58.0293 34.83 58.454 34.2607 58.734C33.6914 59.0047 33.0054 59.14 32.2027 59.14ZM32.2027 57.95C32.9214 57.95 33.5047 57.7353 33.9527 57.306C34.41 56.8767 34.6574 56.1813 34.6947 55.22C34.7134 54.8 34.7227 54.4267 34.7227 54.1C34.7227 53.764 34.7134 53.3907 34.6947 52.98C34.676 52.336 34.5547 51.8133 34.3307 51.412C34.116 51.0107 33.8267 50.7167 33.4627 50.53C33.0987 50.3433 32.6787 50.25 32.2027 50.25C31.7454 50.25 31.3347 50.3433 30.9707 50.53C30.6067 50.7167 30.3127 51.0107 30.0887 51.412C29.874 51.8133 29.7527 52.336 29.7247 52.98C29.7154 53.3907 29.7107 53.764 29.7107 54.1C29.7107 54.4267 29.7154 54.8 29.7247 55.22C29.762 56.1813 30.0094 56.8767 30.4667 57.306C30.924 57.7353 31.5027 57.95 32.2027 57.95ZM38.4853 59C38.3826 59 38.3033 58.972 38.2473 58.916C38.1913 58.8507 38.1633 58.7713 38.1633 58.678V49.522C38.1633 49.4287 38.1913 49.354 38.2473 49.298C38.3033 49.2327 38.3826 49.2 38.4853 49.2H39.2273C39.3206 49.2 39.3953 49.2327 39.4513 49.298C39.5073 49.354 39.5353 49.4287 39.5353 49.522V57.782H44.1973C44.3 57.782 44.3793 57.8147 44.4353 57.88C44.4913 57.936 44.5193 58.0153 44.5193 58.118V58.678C44.5193 58.7713 44.4913 58.8507 44.4353 58.916C44.3793 58.972 44.3 59 44.1973 59H38.4853ZM46.374 59C46.2713 59 46.192 58.972 46.136 58.916C46.08 58.8507 46.052 58.7713 46.052 58.678V49.522C46.052 49.4287 46.08 49.354 46.136 49.298C46.192 49.2327 46.2713 49.2 46.374 49.2H47.116C47.2093 49.2 47.284 49.2327 47.34 49.298C47.396 49.354 47.424 49.4287 47.424 49.522V57.782H52.086C52.1887 57.782 52.268 57.8147 52.324 57.88C52.38 57.936 52.408 58.0153 52.408 58.118V58.678C52.408 58.7713 52.38 58.8507 52.324 58.916C52.268 58.972 52.1887 59 52.086 59H46.374Z" fill="white"/>
<path d="M85.2929 61.7071C85.6834 62.0976 86.3166 62.0976 86.7071 61.7071L93.0711 55.3431C93.4616 54.9526 93.4616 54.3195 93.0711 53.9289C92.6805 53.5384 92.0474 53.5384 91.6569 53.9289L86 59.5858L80.3431 53.9289C79.9526 53.5384 79.3195 53.5384 78.9289 53.9289C78.5384 54.3195 78.5384 54.9526 78.9289 55.3431L85.2929 61.7071ZM85 -6.30593e-08L85 61L87 61L87 6.30593e-08L85 -6.30593e-08Z" fill="white"/>
</svg>
