<svg width="817" height="808" viewBox="0 0 817 808" fill="none" xmlns="http://www.w3.org/2000/svg">
<path d="M111.04 197.965C110.907 197.965 110.793 197.918 110.7 197.825C110.607 197.732 110.56 197.618 110.56 197.485V184.445C110.56 184.312 110.607 184.198 110.7 184.105C110.793 184.012 110.907 183.965 111.04 183.965H112.9C113.033 183.965 113.147 184.012 113.24 184.105C113.333 184.198 113.38 184.312 113.38 184.445V195.585H119.72C119.867 195.585 119.987 195.632 120.08 195.725C120.173 195.818 120.22 195.938 120.22 196.085V197.485C120.22 197.618 120.173 197.732 120.08 197.825C119.987 197.918 119.867 197.965 119.72 197.965H111.04ZM122.642 197.965C122.508 197.965 122.395 197.918 122.302 197.825C122.208 197.732 122.162 197.618 122.162 197.485V184.465C122.162 184.318 122.208 184.198 122.302 184.105C122.395 184.012 122.508 183.965 122.642 183.965H128.002C129.042 183.965 129.948 184.132 130.722 184.465C131.495 184.785 132.095 185.278 132.522 185.945C132.948 186.598 133.162 187.418 133.162 188.405C133.162 189.405 132.948 190.232 132.522 190.885C132.095 191.525 131.495 192.005 130.722 192.325C129.948 192.645 129.042 192.805 128.002 192.805H125.022V197.485C125.022 197.618 124.975 197.732 124.882 197.825C124.802 197.918 124.688 197.965 124.542 197.965H122.642ZM124.982 190.585H127.902C128.675 190.585 129.268 190.405 129.682 190.045C130.095 189.672 130.302 189.125 130.302 188.405C130.302 187.738 130.108 187.205 129.722 186.805C129.335 186.392 128.728 186.185 127.902 186.185H124.982V190.585ZM111.9 222.965C111.78 222.965 111.68 222.925 111.6 222.845C111.52 222.752 111.48 222.645 111.48 222.525C111.48 222.472 111.493 222.412 111.52 222.345L116.34 211.345H110.06C109.913 211.345 109.793 211.298 109.7 211.205C109.62 211.112 109.58 210.998 109.58 210.865V209.465C109.58 209.318 109.62 209.198 109.7 209.105C109.793 209.012 109.913 208.965 110.06 208.965H118.84C118.987 208.965 119.1 209.012 119.18 209.105C119.273 209.198 119.32 209.318 119.32 209.465V210.705C119.32 210.892 119.3 211.052 119.26 211.185C119.233 211.305 119.193 211.432 119.14 211.565L114.36 222.485C114.32 222.578 114.247 222.685 114.14 222.805C114.047 222.912 113.907 222.965 113.72 222.965H111.9ZM126.419 223.165C125.473 223.165 124.666 223.025 123.999 222.745C123.333 222.465 122.786 222.078 122.359 221.585C121.933 221.092 121.613 220.525 121.399 219.885C121.186 219.232 121.059 218.538 121.019 217.805C121.006 217.445 120.993 217.052 120.979 216.625C120.979 216.185 120.979 215.745 120.979 215.305C120.993 214.865 121.006 214.458 121.019 214.085C121.046 213.352 121.173 212.665 121.399 212.025C121.626 211.372 121.953 210.805 122.379 210.325C122.819 209.845 123.373 209.465 124.039 209.185C124.706 208.905 125.499 208.765 126.419 208.765C127.353 208.765 128.153 208.905 128.819 209.185C129.486 209.465 130.033 209.845 130.459 210.325C130.899 210.805 131.226 211.372 131.439 212.025C131.666 212.665 131.793 213.352 131.819 214.085C131.846 214.458 131.859 214.865 131.859 215.305C131.859 215.745 131.859 216.185 131.859 216.625C131.859 217.052 131.846 217.445 131.819 217.805C131.793 218.538 131.673 219.232 131.459 219.885C131.246 220.525 130.926 221.092 130.499 221.585C130.073 222.078 129.519 222.465 128.839 222.745C128.173 223.025 127.366 223.165 126.419 223.165ZM126.419 220.865C127.286 220.865 127.919 220.585 128.319 220.025C128.733 219.452 128.946 218.678 128.959 217.705C128.986 217.318 128.999 216.932 128.999 216.545C128.999 216.145 128.999 215.745 128.999 215.345C128.999 214.945 128.986 214.565 128.959 214.205C128.946 213.258 128.733 212.498 128.319 211.925C127.919 211.338 127.286 211.045 126.419 211.045C125.566 211.045 124.933 211.338 124.519 211.925C124.119 212.498 123.906 213.258 123.879 214.205C123.879 214.565 123.873 214.945 123.859 215.345C123.859 215.745 123.859 216.145 123.859 216.545C123.873 216.932 123.879 217.318 123.879 217.705C123.906 218.678 124.126 219.452 124.539 220.025C124.953 220.585 125.579 220.865 126.419 220.865ZM135.204 222.965C134.924 222.965 134.784 222.832 134.784 222.565C134.784 222.485 134.811 222.412 134.864 222.345L144.724 209.345C144.817 209.225 144.911 209.132 145.004 209.065C145.097 208.998 145.231 208.965 145.404 208.965H146.464C146.744 208.965 146.884 209.098 146.884 209.365C146.884 209.445 146.857 209.518 146.804 209.585L136.944 222.585C136.851 222.705 136.757 222.798 136.664 222.865C136.584 222.932 136.451 222.965 136.264 222.965H135.204ZM144.824 223.085C143.931 223.085 143.224 222.838 142.704 222.345C142.184 221.852 141.897 221.205 141.844 220.405C141.831 220.058 141.824 219.758 141.824 219.505C141.824 219.252 141.831 218.938 141.844 218.565C141.897 217.765 142.171 217.118 142.664 216.625C143.171 216.132 143.891 215.885 144.824 215.885C145.771 215.885 146.491 216.132 146.984 216.625C147.491 217.118 147.764 217.765 147.804 218.565C147.831 218.938 147.844 219.252 147.844 219.505C147.844 219.758 147.831 220.058 147.804 220.405C147.764 221.205 147.477 221.852 146.944 222.345C146.424 222.838 145.717 223.085 144.824 223.085ZM144.824 221.525C145.117 221.525 145.344 221.465 145.504 221.345C145.677 221.225 145.804 221.072 145.884 220.885C145.964 220.698 146.004 220.512 146.004 220.325C146.031 219.992 146.044 219.712 146.044 219.485C146.044 219.245 146.031 218.972 146.004 218.665C145.991 218.358 145.897 218.078 145.724 217.825C145.551 217.558 145.251 217.425 144.824 217.425C144.411 217.425 144.117 217.558 143.944 217.825C143.771 218.078 143.671 218.358 143.644 218.665C143.631 218.972 143.624 219.245 143.624 219.485C143.624 219.712 143.631 219.992 143.644 220.325C143.671 220.512 143.717 220.698 143.784 220.885C143.864 221.072 143.984 221.225 144.144 221.345C144.317 221.465 144.544 221.525 144.824 221.525ZM136.844 216.005C135.951 216.005 135.244 215.772 134.724 215.305C134.204 214.838 133.917 214.205 133.864 213.405C133.851 213.058 133.844 212.758 133.844 212.505C133.844 212.238 133.851 211.918 133.864 211.545C133.917 210.745 134.191 210.098 134.684 209.605C135.191 209.112 135.911 208.865 136.844 208.865C137.791 208.865 138.511 209.112 139.004 209.605C139.511 210.098 139.784 210.745 139.824 211.545C139.851 211.918 139.864 212.238 139.864 212.505C139.864 212.758 139.851 213.058 139.824 213.405C139.784 214.205 139.497 214.838 138.964 215.305C138.444 215.772 137.737 216.005 136.844 216.005ZM136.844 214.525C137.137 214.525 137.364 214.465 137.524 214.345C137.697 214.225 137.824 214.072 137.904 213.885C137.984 213.698 138.024 213.505 138.024 213.305C138.051 212.972 138.064 212.692 138.064 212.465C138.064 212.225 138.051 211.952 138.024 211.645C138.011 211.338 137.917 211.058 137.744 210.805C137.571 210.552 137.271 210.425 136.844 210.425C136.431 210.425 136.137 210.552 135.964 210.805C135.791 211.058 135.697 211.338 135.684 211.645C135.671 211.952 135.664 212.225 135.664 212.465C135.664 212.692 135.671 212.972 135.684 213.305C135.697 213.505 135.737 213.698 135.804 213.885C135.884 214.072 136.004 214.225 136.164 214.345C136.337 214.465 136.564 214.525 136.844 214.525Z" fill="white"/>
<circle cx="404" cy="403.965" r="155" fill="url(#paint0_linear_233_19)" fill-opacity="0.06"/>
<circle cx="404" cy="403.965" r="154.5" stroke="white" stroke-opacity="0.09"/>
<circle cx="403.5" cy="403.465" r="222" stroke="white" stroke-dasharray="5 5"/>
<path d="M612.596 195.368C572.537 155.309 521.79 127.632 466.42 115.644C411.05 103.657 353.399 107.867 300.358 127.77C247.317 147.674 201.129 182.43 167.314 227.884C133.499 273.338 113.487 327.567 109.67 384.091C105.854 440.615 118.394 497.043 145.791 546.63C173.189 596.217 214.286 636.866 264.17 663.72C314.054 690.573 370.615 702.495 427.094 698.06C483.573 693.624 537.58 673.02 582.661 638.71L575.213 628.923C532.011 661.804 480.255 681.549 426.131 685.799C372.007 690.049 317.804 678.624 269.999 652.89C222.195 627.157 182.812 588.202 156.556 540.682C130.3 493.162 118.283 439.087 121.941 384.92C125.598 330.752 144.776 278.783 177.181 235.224C209.586 191.666 253.849 158.359 304.679 139.285C355.509 120.211 410.756 116.177 463.818 127.664C516.879 139.152 565.511 165.675 603.9 204.065L612.596 195.368Z" fill="#9D5B3E"/>
<path d="M585.203 636.753C630.147 601.769 664.002 554.523 682.682 500.72C701.362 446.916 704.068 388.855 690.473 333.548L678.53 336.483C691.558 389.485 688.965 445.125 671.064 496.686C653.163 548.247 620.719 593.523 577.649 627.048L585.203 636.753Z" fill="#EBB017"/>
<path d="M689.647 330.27C676.71 280.129 650.803 234.276 614.53 197.32L605.753 205.935C640.514 241.35 665.341 285.291 677.738 333.342L689.647 330.27Z" fill="#DB3E0D"/>
<path d="M708.04 514.965C707.907 514.965 707.793 514.918 707.7 514.825C707.607 514.732 707.56 514.618 707.56 514.485V501.465C707.56 501.318 707.607 501.198 707.7 501.105C707.793 501.012 707.907 500.965 708.04 500.965H716.84C716.987 500.965 717.107 501.012 717.2 501.105C717.293 501.198 717.34 501.318 717.34 501.465V502.785C717.34 502.918 717.293 503.032 717.2 503.125C717.107 503.218 716.987 503.265 716.84 503.265H710.26V506.805H716.4C716.547 506.805 716.667 506.852 716.76 506.945C716.853 507.025 716.9 507.138 716.9 507.285V508.525C716.9 508.672 716.853 508.792 716.76 508.885C716.667 508.965 716.547 509.005 716.4 509.005H710.26V512.665H717C717.147 512.665 717.267 512.712 717.36 512.805C717.453 512.898 717.5 513.018 717.5 513.165V514.485C717.5 514.618 717.453 514.732 717.36 514.825C717.267 514.918 717.147 514.965 717 514.965H708.04ZM724.183 515.165C723.223 515.165 722.377 514.985 721.643 514.625C720.923 514.265 720.357 513.745 719.943 513.065C719.543 512.372 719.323 511.538 719.283 510.565C719.27 510.365 719.263 510.105 719.263 509.785C719.263 509.452 719.27 509.178 719.283 508.965C719.323 507.992 719.543 507.165 719.943 506.485C720.357 505.792 720.923 505.265 721.643 504.905C722.377 504.545 723.223 504.365 724.183 504.365C725.037 504.365 725.763 504.485 726.363 504.725C726.963 504.965 727.457 505.265 727.843 505.625C728.23 505.985 728.517 506.365 728.703 506.765C728.903 507.152 729.01 507.505 729.023 507.825C729.037 507.972 728.99 508.092 728.883 508.185C728.79 508.265 728.677 508.305 728.543 508.305H726.783C726.65 508.305 726.543 508.272 726.463 508.205C726.397 508.138 726.33 508.038 726.263 507.905C726.063 507.372 725.797 506.998 725.463 506.785C725.143 506.558 724.73 506.445 724.223 506.445C723.557 506.445 723.023 506.658 722.623 507.085C722.237 507.498 722.03 508.158 722.003 509.065C721.977 509.572 721.977 510.038 722.003 510.465C722.03 511.385 722.237 512.052 722.623 512.465C723.023 512.878 723.557 513.085 724.223 513.085C724.743 513.085 725.163 512.978 725.483 512.765C725.803 512.538 726.063 512.158 726.263 511.625C726.33 511.492 726.397 511.392 726.463 511.325C726.543 511.258 726.65 511.225 726.783 511.225H728.543C728.677 511.225 728.79 511.272 728.883 511.365C728.99 511.445 729.037 511.558 729.023 511.705C729.01 511.945 728.943 512.218 728.823 512.525C728.717 512.818 728.537 513.125 728.283 513.445C728.043 513.752 727.737 514.038 727.363 514.305C726.99 514.558 726.537 514.765 726.003 514.925C725.483 515.085 724.877 515.165 724.183 515.165ZM735.709 515.165C734.642 515.165 733.742 514.978 733.009 514.605C732.289 514.232 731.736 513.705 731.349 513.025C730.976 512.345 730.762 511.552 730.709 510.645C730.696 510.405 730.689 510.112 730.689 509.765C730.689 509.418 730.696 509.125 730.709 508.885C730.762 507.965 730.982 507.172 731.369 506.505C731.769 505.825 732.329 505.298 733.049 504.925C733.782 504.552 734.669 504.365 735.709 504.365C736.749 504.365 737.629 504.552 738.349 504.925C739.082 505.298 739.642 505.825 740.029 506.505C740.429 507.172 740.656 507.965 740.709 508.885C740.722 509.125 740.729 509.418 740.729 509.765C740.729 510.112 740.722 510.405 740.709 510.645C740.656 511.552 740.436 512.345 740.049 513.025C739.676 513.705 739.122 514.232 738.389 514.605C737.669 514.978 736.776 515.165 735.709 515.165ZM735.709 513.185C736.416 513.185 736.962 512.965 737.349 512.525C737.736 512.072 737.949 511.412 737.989 510.545C738.002 510.345 738.009 510.085 738.009 509.765C738.009 509.445 738.002 509.185 737.989 508.985C737.949 508.132 737.736 507.478 737.349 507.025C736.962 506.572 736.416 506.345 735.709 506.345C735.002 506.345 734.456 506.572 734.069 507.025C733.682 507.478 733.469 508.132 733.429 508.985C733.416 509.185 733.409 509.445 733.409 509.765C733.409 510.085 733.416 510.345 733.429 510.545C733.469 511.412 733.682 512.072 734.069 512.525C734.456 512.965 735.002 513.185 735.709 513.185ZM746.885 515.165C746.085 515.165 745.398 515.072 744.825 514.885C744.265 514.698 743.805 514.465 743.445 514.185C743.085 513.905 742.818 513.625 742.645 513.345C742.472 513.065 742.378 512.832 742.365 512.645C742.352 512.498 742.392 512.385 742.485 512.305C742.592 512.212 742.705 512.165 742.825 512.165H744.405C744.458 512.165 744.505 512.172 744.545 512.185C744.585 512.198 744.638 512.238 744.705 512.305C744.878 512.452 745.058 512.605 745.245 512.765C745.445 512.925 745.678 513.065 745.945 513.185C746.212 513.292 746.545 513.345 746.945 513.345C747.465 513.345 747.898 513.245 748.245 513.045C748.605 512.832 748.785 512.532 748.785 512.145C748.785 511.865 748.705 511.638 748.545 511.465C748.398 511.292 748.118 511.138 747.705 511.005C747.292 510.858 746.705 510.705 745.945 510.545C745.198 510.372 744.578 510.152 744.085 509.885C743.592 509.618 743.225 509.285 742.985 508.885C742.745 508.485 742.625 508.018 742.625 507.485C742.625 506.965 742.778 506.472 743.085 506.005C743.405 505.525 743.872 505.132 744.485 504.825C745.112 504.518 745.885 504.365 746.805 504.365C747.525 504.365 748.152 504.458 748.685 504.645C749.218 504.818 749.658 505.038 750.005 505.305C750.365 505.572 750.638 505.845 750.825 506.125C751.012 506.392 751.112 506.625 751.125 506.825C751.138 506.972 751.098 507.092 751.005 507.185C750.912 507.265 750.805 507.305 750.685 507.305H749.205C749.138 507.305 749.078 507.292 749.025 507.265C748.972 507.238 748.918 507.205 748.865 507.165C748.718 507.032 748.558 506.892 748.385 506.745C748.212 506.598 747.998 506.472 747.745 506.365C747.505 506.245 747.185 506.185 746.785 506.185C746.278 506.185 745.892 506.298 745.625 506.525C745.358 506.738 745.225 507.012 745.225 507.345C745.225 507.572 745.285 507.772 745.405 507.945C745.538 508.105 745.798 508.258 746.185 508.405C746.572 508.552 747.158 508.705 747.945 508.865C748.838 509.025 749.545 509.265 750.065 509.585C750.598 509.892 750.972 510.252 751.185 510.665C751.412 511.065 751.525 511.512 751.525 512.005C751.525 512.605 751.345 513.145 750.985 513.625C750.638 514.105 750.118 514.485 749.425 514.765C748.745 515.032 747.898 515.165 746.885 515.165ZM755.079 518.765C754.972 518.765 754.879 518.725 754.799 518.645C754.719 518.565 754.679 518.472 754.679 518.365C754.679 518.312 754.679 518.258 754.679 518.205C754.692 518.165 754.719 518.112 754.759 518.045L756.319 514.345L752.479 505.285C752.426 505.152 752.399 505.058 752.399 505.005C752.412 504.885 752.459 504.785 752.539 504.705C752.619 504.612 752.719 504.565 752.839 504.565H754.459C754.619 504.565 754.739 504.605 754.819 504.685C754.899 504.765 754.959 504.852 754.999 504.945L757.659 511.485L760.399 504.945C760.439 504.838 760.499 504.752 760.579 504.685C760.659 504.605 760.779 504.565 760.939 504.565H762.539C762.646 504.565 762.739 504.605 762.819 504.685C762.912 504.765 762.959 504.858 762.959 504.965C762.959 505.045 762.932 505.152 762.879 505.285L757.219 518.385C757.166 518.492 757.099 518.578 757.019 518.645C756.939 518.725 756.819 518.765 756.659 518.765H755.079ZM768.311 515.165C767.511 515.165 766.824 515.072 766.251 514.885C765.691 514.698 765.231 514.465 764.871 514.185C764.511 513.905 764.244 513.625 764.071 513.345C763.897 513.065 763.804 512.832 763.791 512.645C763.777 512.498 763.817 512.385 763.911 512.305C764.017 512.212 764.131 512.165 764.251 512.165H765.831C765.884 512.165 765.931 512.172 765.971 512.185C766.011 512.198 766.064 512.238 766.131 512.305C766.304 512.452 766.484 512.605 766.671 512.765C766.871 512.925 767.104 513.065 767.371 513.185C767.637 513.292 767.971 513.345 768.371 513.345C768.891 513.345 769.324 513.245 769.671 513.045C770.031 512.832 770.211 512.532 770.211 512.145C770.211 511.865 770.131 511.638 769.971 511.465C769.824 511.292 769.544 511.138 769.131 511.005C768.717 510.858 768.131 510.705 767.371 510.545C766.624 510.372 766.004 510.152 765.511 509.885C765.017 509.618 764.651 509.285 764.411 508.885C764.171 508.485 764.051 508.018 764.051 507.485C764.051 506.965 764.204 506.472 764.511 506.005C764.831 505.525 765.297 505.132 765.911 504.825C766.537 504.518 767.311 504.365 768.231 504.365C768.951 504.365 769.577 504.458 770.111 504.645C770.644 504.818 771.084 505.038 771.431 505.305C771.791 505.572 772.064 505.845 772.251 506.125C772.437 506.392 772.537 506.625 772.551 506.825C772.564 506.972 772.524 507.092 772.431 507.185C772.337 507.265 772.231 507.305 772.111 507.305H770.631C770.564 507.305 770.504 507.292 770.451 507.265C770.397 507.238 770.344 507.205 770.291 507.165C770.144 507.032 769.984 506.892 769.811 506.745C769.637 506.598 769.424 506.472 769.171 506.365C768.931 506.245 768.611 506.185 768.211 506.185C767.704 506.185 767.317 506.298 767.051 506.525C766.784 506.738 766.651 507.012 766.651 507.345C766.651 507.572 766.711 507.772 766.831 507.945C766.964 508.105 767.224 508.258 767.611 508.405C767.997 508.552 768.584 508.705 769.371 508.865C770.264 509.025 770.971 509.265 771.491 509.585C772.024 509.892 772.397 510.252 772.611 510.665C772.837 511.065 772.951 511.512 772.951 512.005C772.951 512.605 772.771 513.145 772.411 513.625C772.064 514.105 771.544 514.485 770.851 514.765C770.171 515.032 769.324 515.165 768.311 515.165ZM779.676 514.965C778.876 514.965 778.203 514.825 777.656 514.545C777.11 514.265 776.703 513.852 776.436 513.305C776.17 512.745 776.036 512.052 776.036 511.225V506.685H774.456C774.323 506.685 774.21 506.638 774.116 506.545C774.023 506.452 773.976 506.338 773.976 506.205V505.045C773.976 504.912 774.023 504.798 774.116 504.705C774.21 504.612 774.323 504.565 774.456 504.565H776.036V501.245C776.036 501.112 776.076 500.998 776.156 500.905C776.25 500.812 776.37 500.765 776.516 500.765H778.136C778.27 500.765 778.383 500.812 778.476 500.905C778.57 500.998 778.616 501.112 778.616 501.245V504.565H781.116C781.25 504.565 781.363 504.612 781.456 504.705C781.55 504.798 781.596 504.912 781.596 505.045V506.205C781.596 506.338 781.55 506.452 781.456 506.545C781.363 506.638 781.25 506.685 781.116 506.685H778.616V511.025C778.616 511.572 778.71 511.998 778.896 512.305C779.096 512.612 779.436 512.765 779.916 512.765H781.296C781.43 512.765 781.543 512.812 781.636 512.905C781.73 512.998 781.776 513.112 781.776 513.245V514.485C781.776 514.618 781.73 514.732 781.636 514.825C781.543 514.918 781.43 514.965 781.296 514.965H779.676ZM788.03 515.165C786.55 515.165 785.377 514.738 784.51 513.885C783.644 513.032 783.177 511.818 783.11 510.245C783.097 510.112 783.09 509.945 783.09 509.745C783.09 509.532 783.097 509.365 783.11 509.245C783.164 508.245 783.39 507.378 783.79 506.645C784.204 505.912 784.77 505.352 785.49 504.965C786.21 504.565 787.057 504.365 788.03 504.365C789.11 504.365 790.017 504.592 790.75 505.045C791.484 505.485 792.037 506.105 792.41 506.905C792.784 507.692 792.97 508.605 792.97 509.645V510.065C792.97 510.198 792.924 510.312 792.83 510.405C792.737 510.498 792.617 510.545 792.47 510.545H785.83C785.83 510.545 785.83 510.565 785.83 510.605C785.83 510.645 785.83 510.678 785.83 510.705C785.844 511.172 785.93 511.605 786.09 512.005C786.264 512.392 786.51 512.705 786.83 512.945C787.164 513.185 787.557 513.305 788.01 513.305C788.384 513.305 788.697 513.252 788.95 513.145C789.204 513.025 789.41 512.892 789.57 512.745C789.73 512.598 789.844 512.478 789.91 512.385C790.03 512.225 790.124 512.132 790.19 512.105C790.27 512.065 790.384 512.045 790.53 512.045H792.25C792.384 512.045 792.49 512.085 792.57 512.165C792.664 512.245 792.704 512.345 792.69 512.465C792.677 512.678 792.564 512.938 792.35 513.245C792.15 513.552 791.857 513.852 791.47 514.145C791.084 514.438 790.597 514.685 790.01 514.885C789.437 515.072 788.777 515.165 788.03 515.165ZM785.83 508.865H790.25V508.805C790.25 508.285 790.164 507.832 789.99 507.445C789.817 507.058 789.564 506.752 789.23 506.525C788.897 506.298 788.497 506.185 788.03 506.185C787.564 506.185 787.164 506.298 786.83 506.525C786.497 506.752 786.244 507.058 786.07 507.445C785.91 507.832 785.83 508.285 785.83 508.805V508.865ZM795.573 514.965C795.44 514.965 795.327 514.918 795.233 514.825C795.14 514.732 795.093 514.618 795.093 514.485V505.045C795.093 504.912 795.14 504.798 795.233 504.705C795.327 504.612 795.44 504.565 795.573 504.565H797.133C797.267 504.565 797.38 504.612 797.473 504.705C797.567 504.798 797.613 504.912 797.613 505.045V505.725C797.893 505.352 798.267 505.038 798.733 504.785C799.213 504.518 799.78 504.378 800.433 504.365C801.953 504.338 803.013 504.932 803.613 506.145C803.92 505.612 804.36 505.185 804.933 504.865C805.52 504.532 806.167 504.365 806.873 504.365C807.567 504.365 808.193 504.525 808.753 504.845C809.327 505.165 809.773 505.652 810.093 506.305C810.427 506.945 810.593 507.758 810.593 508.745V514.485C810.593 514.618 810.547 514.732 810.453 514.825C810.36 514.918 810.247 514.965 810.113 514.965H808.473C808.34 514.965 808.227 514.918 808.133 514.825C808.04 514.732 807.993 514.618 807.993 514.485V508.905C807.993 508.305 807.907 507.832 807.733 507.485C807.56 507.125 807.327 506.872 807.033 506.725C806.74 506.578 806.413 506.505 806.053 506.505C805.76 506.505 805.467 506.578 805.173 506.725C804.88 506.872 804.64 507.125 804.453 507.485C804.267 507.832 804.173 508.305 804.173 508.905V514.485C804.173 514.618 804.127 514.732 804.033 514.825C803.94 514.918 803.827 514.965 803.693 514.965H802.053C801.907 514.965 801.787 514.918 801.693 514.825C801.613 514.732 801.573 514.618 801.573 514.485V508.905C801.573 508.305 801.48 507.832 801.293 507.485C801.107 507.125 800.867 506.872 800.573 506.725C800.28 506.578 799.967 506.505 799.633 506.505C799.327 506.505 799.027 506.585 798.733 506.745C798.44 506.892 798.2 507.138 798.013 507.485C797.827 507.832 797.733 508.305 797.733 508.905V514.485C797.733 514.618 797.687 514.732 797.593 514.825C797.5 514.918 797.387 514.965 797.253 514.965H795.573ZM707.38 539.965C707.247 539.965 707.133 539.918 707.04 539.825C706.947 539.732 706.9 539.618 706.9 539.485V538.465C706.9 538.345 706.927 538.205 706.98 538.045C707.047 537.872 707.187 537.698 707.4 537.525L710.56 534.385C711.44 533.692 712.147 533.105 712.68 532.625C713.227 532.132 713.62 531.685 713.86 531.285C714.113 530.872 714.24 530.465 714.24 530.065C714.24 529.465 714.073 528.978 713.74 528.605C713.42 528.232 712.907 528.045 712.2 528.045C711.733 528.045 711.34 528.145 711.02 528.345C710.7 528.532 710.447 528.785 710.26 529.105C710.087 529.425 709.967 529.778 709.9 530.165C709.873 530.338 709.8 530.458 709.68 530.525C709.56 530.592 709.44 530.625 709.32 530.625H707.54C707.42 530.625 707.32 530.585 707.24 530.505C707.16 530.425 707.12 530.332 707.12 530.225C707.133 529.652 707.253 529.098 707.48 528.565C707.707 528.018 708.033 527.538 708.46 527.125C708.9 526.698 709.433 526.358 710.06 526.105C710.687 525.852 711.393 525.725 712.18 525.725C713.287 525.725 714.2 525.912 714.92 526.285C715.653 526.658 716.2 527.165 716.56 527.805C716.933 528.445 717.12 529.165 717.12 529.965C717.12 530.592 717 531.172 716.76 531.705C716.52 532.225 716.173 532.732 715.72 533.225C715.267 533.705 714.72 534.198 714.08 534.705L711.24 537.585H716.94C717.087 537.585 717.2 537.632 717.28 537.725C717.373 537.805 717.42 537.918 717.42 538.065V539.485C717.42 539.618 717.373 539.732 717.28 539.825C717.2 539.918 717.087 539.965 716.94 539.965H707.38ZM724.943 540.165C723.996 540.165 723.189 540.025 722.523 539.745C721.856 539.465 721.309 539.078 720.883 538.585C720.456 538.092 720.136 537.525 719.923 536.885C719.709 536.232 719.583 535.538 719.543 534.805C719.529 534.445 719.516 534.052 719.503 533.625C719.503 533.185 719.503 532.745 719.503 532.305C719.516 531.865 719.529 531.458 719.543 531.085C719.569 530.352 719.696 529.665 719.923 529.025C720.149 528.372 720.476 527.805 720.903 527.325C721.343 526.845 721.896 526.465 722.563 526.185C723.229 525.905 724.023 525.765 724.943 525.765C725.876 525.765 726.676 525.905 727.343 526.185C728.009 526.465 728.556 526.845 728.983 527.325C729.423 527.805 729.749 528.372 729.963 529.025C730.189 529.665 730.316 530.352 730.343 531.085C730.369 531.458 730.383 531.865 730.383 532.305C730.383 532.745 730.383 533.185 730.383 533.625C730.383 534.052 730.369 534.445 730.343 534.805C730.316 535.538 730.196 536.232 729.983 536.885C729.769 537.525 729.449 538.092 729.023 538.585C728.596 539.078 728.043 539.465 727.363 539.745C726.696 540.025 725.889 540.165 724.943 540.165ZM724.943 537.865C725.809 537.865 726.443 537.585 726.843 537.025C727.256 536.452 727.469 535.678 727.483 534.705C727.509 534.318 727.523 533.932 727.523 533.545C727.523 533.145 727.523 532.745 727.523 532.345C727.523 531.945 727.509 531.565 727.483 531.205C727.469 530.258 727.256 529.498 726.843 528.925C726.443 528.338 725.809 528.045 724.943 528.045C724.089 528.045 723.456 528.338 723.043 528.925C722.643 529.498 722.429 530.258 722.403 531.205C722.403 531.565 722.396 531.945 722.383 532.345C722.383 532.745 722.383 533.145 722.383 533.545C722.396 533.932 722.403 534.318 722.403 534.705C722.429 535.678 722.649 536.452 723.063 537.025C723.476 537.585 724.103 537.865 724.943 537.865ZM733.727 539.965C733.447 539.965 733.307 539.832 733.307 539.565C733.307 539.485 733.334 539.412 733.387 539.345L743.247 526.345C743.341 526.225 743.434 526.132 743.527 526.065C743.621 525.998 743.754 525.965 743.927 525.965H744.987C745.267 525.965 745.407 526.098 745.407 526.365C745.407 526.445 745.381 526.518 745.327 526.585L735.467 539.585C735.374 539.705 735.281 539.798 735.187 539.865C735.107 539.932 734.974 539.965 734.787 539.965H733.727ZM743.347 540.085C742.454 540.085 741.747 539.838 741.227 539.345C740.707 538.852 740.421 538.205 740.367 537.405C740.354 537.058 740.347 536.758 740.347 536.505C740.347 536.252 740.354 535.938 740.367 535.565C740.421 534.765 740.694 534.118 741.187 533.625C741.694 533.132 742.414 532.885 743.347 532.885C744.294 532.885 745.014 533.132 745.507 533.625C746.014 534.118 746.287 534.765 746.327 535.565C746.354 535.938 746.367 536.252 746.367 536.505C746.367 536.758 746.354 537.058 746.327 537.405C746.287 538.205 746.001 538.852 745.467 539.345C744.947 539.838 744.241 540.085 743.347 540.085ZM743.347 538.525C743.641 538.525 743.867 538.465 744.027 538.345C744.201 538.225 744.327 538.072 744.407 537.885C744.487 537.698 744.527 537.512 744.527 537.325C744.554 536.992 744.567 536.712 744.567 536.485C744.567 536.245 744.554 535.972 744.527 535.665C744.514 535.358 744.421 535.078 744.247 534.825C744.074 534.558 743.774 534.425 743.347 534.425C742.934 534.425 742.641 534.558 742.467 534.825C742.294 535.078 742.194 535.358 742.167 535.665C742.154 535.972 742.147 536.245 742.147 536.485C742.147 536.712 742.154 536.992 742.167 537.325C742.194 537.512 742.241 537.698 742.307 537.885C742.387 538.072 742.507 538.225 742.667 538.345C742.841 538.465 743.067 538.525 743.347 538.525ZM735.367 533.005C734.474 533.005 733.767 532.772 733.247 532.305C732.727 531.838 732.441 531.205 732.387 530.405C732.374 530.058 732.367 529.758 732.367 529.505C732.367 529.238 732.374 528.918 732.387 528.545C732.441 527.745 732.714 527.098 733.207 526.605C733.714 526.112 734.434 525.865 735.367 525.865C736.314 525.865 737.034 526.112 737.527 526.605C738.034 527.098 738.307 527.745 738.347 528.545C738.374 528.918 738.387 529.238 738.387 529.505C738.387 529.758 738.374 530.058 738.347 530.405C738.307 531.205 738.021 531.838 737.487 532.305C736.967 532.772 736.261 533.005 735.367 533.005ZM735.367 531.525C735.661 531.525 735.887 531.465 736.047 531.345C736.221 531.225 736.347 531.072 736.427 530.885C736.507 530.698 736.547 530.505 736.547 530.305C736.574 529.972 736.587 529.692 736.587 529.465C736.587 529.225 736.574 528.952 736.547 528.645C736.534 528.338 736.441 528.058 736.267 527.805C736.094 527.552 735.794 527.425 735.367 527.425C734.954 527.425 734.661 527.552 734.487 527.805C734.314 528.058 734.221 528.338 734.207 528.645C734.194 528.952 734.187 529.225 734.187 529.465C734.187 529.692 734.194 529.972 734.207 530.305C734.221 530.505 734.261 530.698 734.327 530.885C734.407 531.072 734.527 531.225 734.687 531.345C734.861 531.465 735.087 531.525 735.367 531.525Z" fill="white"/>
<path d="M686.12 231.965C685.987 231.965 685.873 231.918 685.78 231.825C685.687 231.732 685.64 231.618 685.64 231.485V220.425H681.94C681.807 220.425 681.693 220.378 681.6 220.285C681.507 220.192 681.46 220.078 681.46 219.945V218.465C681.46 218.318 681.507 218.198 681.6 218.105C681.693 218.012 681.807 217.965 681.94 217.965H692.14C692.287 217.965 692.407 218.012 692.5 218.105C692.593 218.198 692.64 218.318 692.64 218.465V219.945C692.64 220.078 692.593 220.192 692.5 220.285C692.407 220.378 692.287 220.425 692.14 220.425H688.46V231.485C688.46 231.618 688.413 231.732 688.32 231.825C688.227 231.918 688.107 231.965 687.96 231.965H686.12ZM697.073 232.165C695.593 232.165 694.42 231.738 693.553 230.885C692.687 230.032 692.22 228.818 692.153 227.245C692.14 227.112 692.133 226.945 692.133 226.745C692.133 226.532 692.14 226.365 692.153 226.245C692.207 225.245 692.433 224.378 692.833 223.645C693.247 222.912 693.813 222.352 694.533 221.965C695.253 221.565 696.1 221.365 697.073 221.365C698.153 221.365 699.06 221.592 699.793 222.045C700.527 222.485 701.08 223.105 701.453 223.905C701.827 224.692 702.013 225.605 702.013 226.645V227.065C702.013 227.198 701.967 227.312 701.873 227.405C701.78 227.498 701.66 227.545 701.513 227.545H694.873C694.873 227.545 694.873 227.565 694.873 227.605C694.873 227.645 694.873 227.678 694.873 227.705C694.887 228.172 694.973 228.605 695.133 229.005C695.307 229.392 695.553 229.705 695.873 229.945C696.207 230.185 696.6 230.305 697.053 230.305C697.427 230.305 697.74 230.252 697.993 230.145C698.247 230.025 698.453 229.892 698.613 229.745C698.773 229.598 698.887 229.478 698.953 229.385C699.073 229.225 699.167 229.132 699.233 229.105C699.313 229.065 699.427 229.045 699.573 229.045H701.293C701.427 229.045 701.533 229.085 701.613 229.165C701.707 229.245 701.747 229.345 701.733 229.465C701.72 229.678 701.607 229.938 701.393 230.245C701.193 230.552 700.9 230.852 700.513 231.145C700.127 231.438 699.64 231.685 699.053 231.885C698.48 232.072 697.82 232.165 697.073 232.165ZM694.873 225.865H699.293V225.805C699.293 225.285 699.207 224.832 699.033 224.445C698.86 224.058 698.607 223.752 698.273 223.525C697.94 223.298 697.54 223.185 697.073 223.185C696.607 223.185 696.207 223.298 695.873 223.525C695.54 223.752 695.287 224.058 695.113 224.445C694.953 224.832 694.873 225.285 694.873 225.805V225.865ZM707.156 232.165C706.463 232.165 705.836 232.032 705.276 231.765C704.716 231.485 704.27 231.118 703.936 230.665C703.616 230.198 703.456 229.678 703.456 229.105C703.456 228.172 703.83 227.432 704.576 226.885C705.336 226.325 706.336 225.952 707.576 225.765L710.316 225.365V224.945C710.316 224.385 710.176 223.952 709.896 223.645C709.616 223.338 709.136 223.185 708.456 223.185C707.976 223.185 707.583 223.285 707.276 223.485C706.983 223.672 706.763 223.925 706.616 224.245C706.51 224.418 706.356 224.505 706.156 224.505H704.576C704.43 224.505 704.316 224.465 704.236 224.385C704.17 224.305 704.136 224.198 704.136 224.065C704.15 223.852 704.236 223.592 704.396 223.285C704.556 222.978 704.81 222.685 705.156 222.405C705.503 222.112 705.95 221.865 706.496 221.665C707.043 221.465 707.703 221.365 708.476 221.365C709.316 221.365 710.023 221.472 710.596 221.685C711.183 221.885 711.65 222.158 711.996 222.505C712.343 222.852 712.596 223.258 712.756 223.725C712.916 224.192 712.996 224.685 712.996 225.205V231.485C712.996 231.618 712.95 231.732 712.856 231.825C712.763 231.918 712.65 231.965 712.516 231.965H710.896C710.75 231.965 710.63 231.918 710.536 231.825C710.456 231.732 710.416 231.618 710.416 231.485V230.705C710.243 230.958 710.01 231.198 709.716 231.425C709.423 231.638 709.063 231.818 708.636 231.965C708.223 232.098 707.73 232.165 707.156 232.165ZM707.836 230.265C708.303 230.265 708.723 230.165 709.096 229.965C709.483 229.765 709.783 229.458 709.996 229.045C710.223 228.618 710.336 228.085 710.336 227.445V227.025L708.336 227.345C707.55 227.465 706.963 227.658 706.576 227.925C706.19 228.192 705.996 228.518 705.996 228.905C705.996 229.198 706.083 229.452 706.256 229.665C706.443 229.865 706.676 230.018 706.956 230.125C707.236 230.218 707.53 230.265 707.836 230.265ZM716.042 231.965C715.909 231.965 715.796 231.918 715.702 231.825C715.609 231.732 715.562 231.618 715.562 231.485V222.045C715.562 221.912 715.609 221.798 715.702 221.705C715.796 221.612 715.909 221.565 716.042 221.565H717.602C717.736 221.565 717.849 221.612 717.942 221.705C718.036 221.798 718.082 221.912 718.082 222.045V222.725C718.362 222.352 718.736 222.038 719.202 221.785C719.682 221.518 720.249 221.378 720.902 221.365C722.422 221.338 723.482 221.932 724.082 223.145C724.389 222.612 724.829 222.185 725.402 221.865C725.989 221.532 726.636 221.365 727.342 221.365C728.036 221.365 728.662 221.525 729.222 221.845C729.796 222.165 730.242 222.652 730.562 223.305C730.896 223.945 731.062 224.758 731.062 225.745V231.485C731.062 231.618 731.016 231.732 730.922 231.825C730.829 231.918 730.716 231.965 730.582 231.965H728.942C728.809 231.965 728.696 231.918 728.602 231.825C728.509 231.732 728.462 231.618 728.462 231.485V225.905C728.462 225.305 728.376 224.832 728.202 224.485C728.029 224.125 727.796 223.872 727.502 223.725C727.209 223.578 726.882 223.505 726.522 223.505C726.229 223.505 725.936 223.578 725.642 223.725C725.349 223.872 725.109 224.125 724.922 224.485C724.736 224.832 724.642 225.305 724.642 225.905V231.485C724.642 231.618 724.596 231.732 724.502 231.825C724.409 231.918 724.296 231.965 724.162 231.965H722.522C722.376 231.965 722.256 231.918 722.162 231.825C722.082 231.732 722.042 231.618 722.042 231.485V225.905C722.042 225.305 721.949 224.832 721.762 224.485C721.576 224.125 721.336 223.872 721.042 223.725C720.749 223.578 720.436 223.505 720.102 223.505C719.796 223.505 719.496 223.585 719.202 223.745C718.909 223.892 718.669 224.138 718.482 224.485C718.296 224.832 718.202 225.305 718.202 225.905V231.485C718.202 231.618 718.156 231.732 718.062 231.825C717.969 231.918 717.856 231.965 717.722 231.965H716.042ZM686.54 256.965C686.393 256.965 686.273 256.918 686.18 256.825C686.1 256.732 686.06 256.618 686.06 256.485V246.125L683.02 248.465C682.9 248.545 682.78 248.578 682.66 248.565C682.54 248.538 682.433 248.465 682.34 248.345L681.5 247.265C681.42 247.145 681.387 247.018 681.4 246.885C681.427 246.752 681.5 246.645 681.62 246.565L686.1 243.105C686.18 243.038 686.26 242.998 686.34 242.985C686.42 242.972 686.507 242.965 686.6 242.965H688.36C688.493 242.965 688.607 243.012 688.7 243.105C688.793 243.198 688.84 243.312 688.84 243.445V256.485C688.84 256.618 688.793 256.732 688.7 256.825C688.607 256.918 688.493 256.965 688.36 256.965H686.54ZM696.818 257.165C695.871 257.165 695.064 257.025 694.398 256.745C693.731 256.465 693.184 256.078 692.758 255.585C692.331 255.092 692.011 254.525 691.798 253.885C691.584 253.232 691.458 252.538 691.418 251.805C691.404 251.445 691.391 251.052 691.378 250.625C691.378 250.185 691.378 249.745 691.378 249.305C691.391 248.865 691.404 248.458 691.418 248.085C691.444 247.352 691.571 246.665 691.798 246.025C692.024 245.372 692.351 244.805 692.778 244.325C693.218 243.845 693.771 243.465 694.438 243.185C695.104 242.905 695.898 242.765 696.818 242.765C697.751 242.765 698.551 242.905 699.218 243.185C699.884 243.465 700.431 243.845 700.858 244.325C701.298 244.805 701.624 245.372 701.838 246.025C702.064 246.665 702.191 247.352 702.218 248.085C702.244 248.458 702.258 248.865 702.258 249.305C702.258 249.745 702.258 250.185 702.258 250.625C702.258 251.052 702.244 251.445 702.218 251.805C702.191 252.538 702.071 253.232 701.858 253.885C701.644 254.525 701.324 255.092 700.898 255.585C700.471 256.078 699.918 256.465 699.238 256.745C698.571 257.025 697.764 257.165 696.818 257.165ZM696.818 254.865C697.684 254.865 698.318 254.585 698.718 254.025C699.131 253.452 699.344 252.678 699.358 251.705C699.384 251.318 699.398 250.932 699.398 250.545C699.398 250.145 699.398 249.745 699.398 249.345C699.398 248.945 699.384 248.565 699.358 248.205C699.344 247.258 699.131 246.498 698.718 245.925C698.318 245.338 697.684 245.045 696.818 245.045C695.964 245.045 695.331 245.338 694.918 245.925C694.518 246.498 694.304 247.258 694.278 248.205C694.278 248.565 694.271 248.945 694.258 249.345C694.258 249.745 694.258 250.145 694.258 250.545C694.271 250.932 694.278 251.318 694.278 251.705C694.304 252.678 694.524 253.452 694.938 254.025C695.351 254.585 695.978 254.865 696.818 254.865ZM705.602 256.965C705.322 256.965 705.182 256.832 705.182 256.565C705.182 256.485 705.209 256.412 705.262 256.345L715.122 243.345C715.216 243.225 715.309 243.132 715.402 243.065C715.496 242.998 715.629 242.965 715.802 242.965H716.862C717.142 242.965 717.282 243.098 717.282 243.365C717.282 243.445 717.256 243.518 717.202 243.585L707.342 256.585C707.249 256.705 707.156 256.798 707.062 256.865C706.982 256.932 706.849 256.965 706.662 256.965H705.602ZM715.222 257.085C714.329 257.085 713.622 256.838 713.102 256.345C712.582 255.852 712.296 255.205 712.242 254.405C712.229 254.058 712.222 253.758 712.222 253.505C712.222 253.252 712.229 252.938 712.242 252.565C712.296 251.765 712.569 251.118 713.062 250.625C713.569 250.132 714.289 249.885 715.222 249.885C716.169 249.885 716.889 250.132 717.382 250.625C717.889 251.118 718.162 251.765 718.202 252.565C718.229 252.938 718.242 253.252 718.242 253.505C718.242 253.758 718.229 254.058 718.202 254.405C718.162 255.205 717.876 255.852 717.342 256.345C716.822 256.838 716.116 257.085 715.222 257.085ZM715.222 255.525C715.516 255.525 715.742 255.465 715.902 255.345C716.076 255.225 716.202 255.072 716.282 254.885C716.362 254.698 716.402 254.512 716.402 254.325C716.429 253.992 716.442 253.712 716.442 253.485C716.442 253.245 716.429 252.972 716.402 252.665C716.389 252.358 716.296 252.078 716.122 251.825C715.949 251.558 715.649 251.425 715.222 251.425C714.809 251.425 714.516 251.558 714.342 251.825C714.169 252.078 714.069 252.358 714.042 252.665C714.029 252.972 714.022 253.245 714.022 253.485C714.022 253.712 714.029 253.992 714.042 254.325C714.069 254.512 714.116 254.698 714.182 254.885C714.262 255.072 714.382 255.225 714.542 255.345C714.716 255.465 714.942 255.525 715.222 255.525ZM707.242 250.005C706.349 250.005 705.642 249.772 705.122 249.305C704.602 248.838 704.316 248.205 704.262 247.405C704.249 247.058 704.242 246.758 704.242 246.505C704.242 246.238 704.249 245.918 704.262 245.545C704.316 244.745 704.589 244.098 705.082 243.605C705.589 243.112 706.309 242.865 707.242 242.865C708.189 242.865 708.909 243.112 709.402 243.605C709.909 244.098 710.182 244.745 710.222 245.545C710.249 245.918 710.262 246.238 710.262 246.505C710.262 246.758 710.249 247.058 710.222 247.405C710.182 248.205 709.896 248.838 709.362 249.305C708.842 249.772 708.136 250.005 707.242 250.005ZM707.242 248.525C707.536 248.525 707.762 248.465 707.922 248.345C708.096 248.225 708.222 248.072 708.302 247.885C708.382 247.698 708.422 247.505 708.422 247.305C708.449 246.972 708.462 246.692 708.462 246.465C708.462 246.225 708.449 245.952 708.422 245.645C708.409 245.338 708.316 245.058 708.142 244.805C707.969 244.552 707.669 244.425 707.242 244.425C706.829 244.425 706.536 244.552 706.362 244.805C706.189 245.058 706.096 245.338 706.082 245.645C706.069 245.952 706.062 246.225 706.062 246.465C706.062 246.692 706.069 246.972 706.082 247.305C706.096 247.505 706.136 247.698 706.202 247.885C706.282 248.072 706.402 248.225 706.562 248.345C706.736 248.465 706.962 248.525 707.242 248.525Z" fill="white"/>
<path d="M356.174 395.965C356.067 395.965 355.977 395.928 355.902 395.853C355.827 395.778 355.79 395.688 355.79 395.581V386.733H352.83C352.723 386.733 352.633 386.696 352.558 386.621C352.483 386.546 352.446 386.456 352.446 386.349V385.165C352.446 385.048 352.483 384.952 352.558 384.877C352.633 384.802 352.723 384.765 352.83 384.765H360.99C361.107 384.765 361.203 384.802 361.278 384.877C361.353 384.952 361.39 385.048 361.39 385.165V386.349C361.39 386.456 361.353 386.546 361.278 386.621C361.203 386.696 361.107 386.733 360.99 386.733H358.046V395.581C358.046 395.688 358.009 395.778 357.934 395.853C357.859 395.928 357.763 395.965 357.646 395.965H356.174ZM365.033 396.125C364.18 396.125 363.46 395.976 362.873 395.677C362.297 395.378 361.854 394.957 361.545 394.413C361.246 393.869 361.076 393.234 361.033 392.509C361.022 392.317 361.017 392.082 361.017 391.805C361.017 391.528 361.022 391.293 361.033 391.101C361.076 390.365 361.252 389.73 361.561 389.197C361.881 388.653 362.329 388.232 362.905 387.933C363.492 387.634 364.201 387.485 365.033 387.485C365.865 387.485 366.569 387.634 367.145 387.933C367.732 388.232 368.18 388.653 368.489 389.197C368.809 389.73 368.99 390.365 369.033 391.101C369.044 391.293 369.049 391.528 369.049 391.805C369.049 392.082 369.044 392.317 369.033 392.509C368.99 393.234 368.814 393.869 368.505 394.413C368.206 394.957 367.764 395.378 367.177 395.677C366.601 395.976 365.886 396.125 365.033 396.125ZM365.033 394.541C365.598 394.541 366.036 394.365 366.345 394.013C366.654 393.65 366.825 393.122 366.857 392.429C366.868 392.269 366.873 392.061 366.873 391.805C366.873 391.549 366.868 391.341 366.857 391.181C366.825 390.498 366.654 389.976 366.345 389.613C366.036 389.25 365.598 389.069 365.033 389.069C364.468 389.069 364.03 389.25 363.721 389.613C363.412 389.976 363.241 390.498 363.209 391.181C363.198 391.341 363.193 391.549 363.193 391.805C363.193 392.061 363.198 392.269 363.209 392.429C363.241 393.122 363.412 393.65 363.721 394.013C364.03 394.365 364.468 394.541 365.033 394.541ZM374.519 395.965C373.879 395.965 373.34 395.853 372.903 395.629C372.466 395.405 372.14 395.074 371.927 394.637C371.714 394.189 371.607 393.634 371.607 392.973V389.341H370.343C370.236 389.341 370.146 389.304 370.071 389.229C369.996 389.154 369.959 389.064 369.959 388.957V388.029C369.959 387.922 369.996 387.832 370.071 387.757C370.146 387.682 370.236 387.645 370.343 387.645H371.607V384.989C371.607 384.882 371.639 384.792 371.703 384.717C371.778 384.642 371.874 384.605 371.991 384.605H373.287C373.394 384.605 373.484 384.642 373.559 384.717C373.634 384.792 373.671 384.882 373.671 384.989V387.645H375.671C375.778 387.645 375.868 387.682 375.943 387.757C376.018 387.832 376.055 387.922 376.055 388.029V388.957C376.055 389.064 376.018 389.154 375.943 389.229C375.868 389.304 375.778 389.341 375.671 389.341H373.671V392.813C373.671 393.25 373.746 393.592 373.895 393.837C374.055 394.082 374.327 394.205 374.711 394.205H375.815C375.922 394.205 376.012 394.242 376.087 394.317C376.162 394.392 376.199 394.482 376.199 394.589V395.581C376.199 395.688 376.162 395.778 376.087 395.853C376.012 395.928 375.922 395.965 375.815 395.965H374.519ZM380.035 396.125C379.48 396.125 378.979 396.018 378.531 395.805C378.083 395.581 377.725 395.288 377.459 394.925C377.203 394.552 377.075 394.136 377.075 393.677C377.075 392.93 377.373 392.338 377.971 391.901C378.579 391.453 379.379 391.154 380.371 391.005L382.563 390.685V390.349C382.563 389.901 382.451 389.554 382.227 389.309C382.003 389.064 381.619 388.941 381.075 388.941C380.691 388.941 380.376 389.021 380.131 389.181C379.896 389.33 379.72 389.533 379.603 389.789C379.517 389.928 379.395 389.997 379.235 389.997H377.971C377.853 389.997 377.763 389.965 377.699 389.901C377.645 389.837 377.618 389.752 377.618 389.645C377.629 389.474 377.699 389.266 377.827 389.021C377.955 388.776 378.157 388.541 378.435 388.317C378.712 388.082 379.069 387.885 379.507 387.725C379.944 387.565 380.472 387.485 381.091 387.485C381.763 387.485 382.328 387.57 382.787 387.741C383.256 387.901 383.629 388.12 383.907 388.397C384.184 388.674 384.387 389 384.515 389.373C384.643 389.746 384.707 390.141 384.707 390.557V395.581C384.707 395.688 384.669 395.778 384.595 395.853C384.52 395.928 384.429 395.965 384.323 395.965H383.027C382.909 395.965 382.813 395.928 382.739 395.853C382.675 395.778 382.643 395.688 382.643 395.581V394.957C382.504 395.16 382.317 395.352 382.083 395.533C381.848 395.704 381.56 395.848 381.219 395.965C380.888 396.072 380.493 396.125 380.035 396.125ZM380.579 394.605C380.952 394.605 381.288 394.525 381.587 394.365C381.896 394.205 382.136 393.96 382.307 393.629C382.488 393.288 382.579 392.861 382.579 392.349V392.013L380.979 392.269C380.349 392.365 379.88 392.52 379.571 392.733C379.261 392.946 379.107 393.208 379.107 393.517C379.107 393.752 379.176 393.954 379.315 394.125C379.464 394.285 379.651 394.408 379.875 394.493C380.099 394.568 380.333 394.605 380.579 394.605ZM387.159 395.965C387.052 395.965 386.962 395.928 386.887 395.853C386.812 395.778 386.775 395.688 386.775 395.581V384.989C386.775 384.882 386.812 384.792 386.887 384.717C386.962 384.642 387.052 384.605 387.159 384.605H388.487C388.594 384.605 388.684 384.642 388.759 384.717C388.834 384.792 388.871 384.882 388.871 384.989V395.581C388.871 395.688 388.834 395.778 388.759 395.853C388.684 395.928 388.594 395.965 388.487 395.965H387.159ZM398.73 396.125C397.738 396.125 396.906 395.981 396.234 395.693C395.572 395.394 395.066 395.01 394.714 394.541C394.372 394.061 394.191 393.56 394.17 393.037C394.17 392.941 394.202 392.861 394.266 392.797C394.33 392.733 394.41 392.701 394.506 392.701H395.93C396.068 392.701 396.17 392.733 396.234 392.797C396.308 392.85 396.372 392.92 396.426 393.005C396.49 393.208 396.612 393.41 396.794 393.613C396.975 393.805 397.22 393.965 397.53 394.093C397.85 394.221 398.25 394.285 398.73 394.285C399.498 394.285 400.068 394.157 400.442 393.901C400.826 393.645 401.018 393.298 401.018 392.861C401.018 392.552 400.916 392.306 400.714 392.125C400.511 391.933 400.196 391.762 399.77 391.613C399.354 391.453 398.799 391.288 398.106 391.117C397.306 390.925 396.634 390.696 396.09 390.429C395.556 390.152 395.151 389.805 394.874 389.389C394.607 388.973 394.474 388.445 394.474 387.805C394.474 387.186 394.639 386.637 394.97 386.157C395.311 385.677 395.791 385.298 396.41 385.021C397.039 384.744 397.786 384.605 398.65 384.605C399.343 384.605 399.956 384.701 400.49 384.893C401.023 385.074 401.466 385.32 401.818 385.629C402.17 385.928 402.436 386.253 402.618 386.605C402.81 386.946 402.911 387.282 402.922 387.613C402.922 387.698 402.89 387.778 402.826 387.853C402.772 387.917 402.692 387.949 402.586 387.949H401.098C401.012 387.949 400.927 387.928 400.842 387.885C400.756 387.842 400.687 387.762 400.634 387.645C400.57 387.314 400.362 387.032 400.01 386.797C399.658 386.562 399.204 386.445 398.65 386.445C398.074 386.445 397.61 386.552 397.258 386.765C396.906 386.978 396.73 387.309 396.73 387.757C396.73 388.056 396.815 388.306 396.986 388.509C397.167 388.701 397.45 388.872 397.834 389.021C398.228 389.17 398.746 389.33 399.386 389.501C400.292 389.704 401.034 389.938 401.61 390.205C402.186 390.472 402.607 390.813 402.874 391.229C403.14 391.634 403.274 392.152 403.274 392.781C403.274 393.485 403.082 394.088 402.698 394.589C402.324 395.08 401.796 395.458 401.114 395.725C400.431 395.992 399.636 396.125 398.73 396.125ZM408.003 396.125C407.353 396.125 406.787 395.981 406.307 395.693C405.838 395.394 405.475 394.978 405.219 394.445C404.963 393.901 404.835 393.261 404.835 392.525V388.029C404.835 387.922 404.873 387.832 404.947 387.757C405.022 387.682 405.113 387.645 405.219 387.645H406.627C406.745 387.645 406.835 387.682 406.899 387.757C406.974 387.832 407.011 387.922 407.011 388.029V392.429C407.011 393.752 407.593 394.413 408.755 394.413C409.31 394.413 409.747 394.237 410.067 393.885C410.398 393.533 410.563 393.048 410.563 392.429V388.029C410.563 387.922 410.601 387.832 410.675 387.757C410.75 387.682 410.841 387.645 410.947 387.645H412.355C412.462 387.645 412.553 387.682 412.627 387.757C412.702 387.832 412.739 387.922 412.739 388.029V395.581C412.739 395.688 412.702 395.778 412.627 395.853C412.553 395.928 412.462 395.965 412.355 395.965H411.059C410.942 395.965 410.846 395.928 410.771 395.853C410.707 395.778 410.675 395.688 410.675 395.581V394.925C410.387 395.298 410.03 395.592 409.603 395.805C409.177 396.018 408.643 396.125 408.003 396.125ZM415.253 399.005C415.146 399.005 415.056 398.968 414.981 398.893C414.906 398.818 414.869 398.728 414.869 398.621V388.029C414.869 387.922 414.906 387.832 414.981 387.757C415.056 387.682 415.146 387.645 415.253 387.645H416.517C416.634 387.645 416.725 387.682 416.789 387.757C416.864 387.832 416.901 387.922 416.901 388.029V388.669C417.157 388.328 417.493 388.045 417.909 387.821C418.325 387.597 418.842 387.485 419.461 387.485C420.026 387.485 420.517 387.576 420.933 387.757C421.349 387.938 421.696 388.2 421.973 388.541C422.25 388.872 422.464 389.266 422.613 389.725C422.762 390.184 422.848 390.69 422.869 391.245C422.88 391.426 422.885 391.613 422.885 391.805C422.885 391.997 422.88 392.189 422.869 392.381C422.858 392.914 422.778 393.41 422.629 393.869C422.48 394.317 422.261 394.712 421.973 395.053C421.696 395.384 421.349 395.645 420.933 395.837C420.517 396.029 420.026 396.125 419.461 396.125C418.885 396.125 418.394 396.024 417.989 395.821C417.584 395.608 417.253 395.33 416.997 394.989V398.621C416.997 398.728 416.96 398.818 416.885 398.893C416.821 398.968 416.73 399.005 416.613 399.005H415.253ZM418.869 394.413C419.328 394.413 419.685 394.317 419.941 394.125C420.197 393.922 420.378 393.661 420.485 393.341C420.602 393.021 420.672 392.669 420.693 392.285C420.714 391.965 420.714 391.645 420.693 391.325C420.672 390.941 420.602 390.589 420.485 390.269C420.378 389.949 420.197 389.693 419.941 389.501C419.685 389.298 419.328 389.197 418.869 389.197C418.432 389.197 418.074 389.298 417.797 389.501C417.53 389.704 417.333 389.965 417.205 390.285C417.088 390.594 417.018 390.914 416.997 391.245C416.986 391.437 416.981 391.64 416.981 391.853C416.981 392.066 416.986 392.274 416.997 392.477C417.008 392.797 417.082 393.106 417.221 393.405C417.36 393.693 417.562 393.933 417.829 394.125C418.096 394.317 418.442 394.413 418.869 394.413ZM425.081 399.005C424.974 399.005 424.884 398.968 424.809 398.893C424.734 398.818 424.697 398.728 424.697 398.621V388.029C424.697 387.922 424.734 387.832 424.809 387.757C424.884 387.682 424.974 387.645 425.081 387.645H426.345C426.462 387.645 426.553 387.682 426.617 387.757C426.692 387.832 426.729 387.922 426.729 388.029V388.669C426.985 388.328 427.321 388.045 427.737 387.821C428.153 387.597 428.67 387.485 429.289 387.485C429.854 387.485 430.345 387.576 430.761 387.757C431.177 387.938 431.524 388.2 431.801 388.541C432.078 388.872 432.292 389.266 432.441 389.725C432.59 390.184 432.676 390.69 432.697 391.245C432.708 391.426 432.713 391.613 432.713 391.805C432.713 391.997 432.708 392.189 432.697 392.381C432.686 392.914 432.606 393.41 432.457 393.869C432.308 394.317 432.089 394.712 431.801 395.053C431.524 395.384 431.177 395.645 430.761 395.837C430.345 396.029 429.854 396.125 429.289 396.125C428.713 396.125 428.222 396.024 427.817 395.821C427.412 395.608 427.081 395.33 426.825 394.989V398.621C426.825 398.728 426.788 398.818 426.713 398.893C426.649 398.968 426.558 399.005 426.441 399.005H425.081ZM428.697 394.413C429.156 394.413 429.513 394.317 429.769 394.125C430.025 393.922 430.206 393.661 430.313 393.341C430.43 393.021 430.5 392.669 430.521 392.285C430.542 391.965 430.542 391.645 430.521 391.325C430.5 390.941 430.43 390.589 430.313 390.269C430.206 389.949 430.025 389.693 429.769 389.501C429.513 389.298 429.156 389.197 428.697 389.197C428.26 389.197 427.902 389.298 427.625 389.501C427.358 389.704 427.161 389.965 427.033 390.285C426.916 390.594 426.846 390.914 426.825 391.245C426.814 391.437 426.809 391.64 426.809 391.853C426.809 392.066 426.814 392.274 426.825 392.477C426.836 392.797 426.91 393.106 427.049 393.405C427.188 393.693 427.39 393.933 427.657 394.125C427.924 394.317 428.27 394.413 428.697 394.413ZM434.909 395.965C434.802 395.965 434.712 395.928 434.637 395.853C434.562 395.778 434.525 395.688 434.525 395.581V384.989C434.525 384.882 434.562 384.792 434.637 384.717C434.712 384.642 434.802 384.605 434.909 384.605H436.237C436.344 384.605 436.434 384.642 436.509 384.717C436.584 384.792 436.621 384.882 436.621 384.989V395.581C436.621 395.688 436.584 395.778 436.509 395.853C436.434 395.928 436.344 395.965 436.237 395.965H434.909ZM440.248 399.005C440.162 399.005 440.088 398.973 440.024 398.909C439.96 398.845 439.928 398.77 439.928 398.685C439.928 398.642 439.928 398.6 439.928 398.557C439.938 398.525 439.96 398.482 439.992 398.429L441.24 395.469L438.168 388.221C438.125 388.114 438.104 388.04 438.104 387.997C438.114 387.901 438.152 387.821 438.215 387.757C438.28 387.682 438.36 387.645 438.456 387.645H439.752C439.88 387.645 439.976 387.677 440.039 387.741C440.104 387.805 440.152 387.874 440.184 387.949L442.312 393.181L444.504 387.949C444.536 387.864 444.584 387.794 444.648 387.741C444.712 387.677 444.808 387.645 444.936 387.645H446.216C446.301 387.645 446.376 387.677 446.44 387.741C446.514 387.805 446.552 387.88 446.552 387.965C446.552 388.029 446.53 388.114 446.488 388.221L441.96 398.701C441.917 398.786 441.864 398.856 441.799 398.909C441.736 398.973 441.64 399.005 441.512 399.005H440.248ZM448.267 390.365C448.16 390.365 448.07 390.328 447.995 390.253C447.92 390.178 447.883 390.088 447.883 389.981V388.461C447.883 388.344 447.92 388.248 447.995 388.173C448.07 388.098 448.16 388.061 448.267 388.061H449.851C449.968 388.061 450.064 388.098 450.139 388.173C450.214 388.248 450.251 388.344 450.251 388.461V389.981C450.251 390.088 450.214 390.178 450.139 390.253C450.064 390.328 449.968 390.365 449.851 390.365H448.267ZM448.267 395.965C448.16 395.965 448.07 395.928 447.995 395.853C447.92 395.778 447.883 395.688 447.883 395.581V394.061C447.883 393.944 447.92 393.848 447.995 393.773C448.07 393.698 448.16 393.661 448.267 393.661H449.851C449.968 393.661 450.064 393.698 450.139 393.773C450.214 393.848 450.251 393.944 450.251 394.061V395.581C450.251 395.688 450.214 395.778 450.139 395.853C450.064 395.928 449.968 395.965 449.851 395.965H448.267ZM299.893 420.965C299.776 420.965 299.68 420.928 299.605 420.853C299.541 420.778 299.509 420.688 299.509 420.581V412.293L297.077 414.165C296.981 414.229 296.885 414.256 296.789 414.245C296.693 414.224 296.608 414.165 296.533 414.069L295.861 413.205C295.797 413.109 295.77 413.008 295.781 412.901C295.802 412.794 295.861 412.709 295.957 412.645L299.541 409.877C299.605 409.824 299.669 409.792 299.733 409.781C299.797 409.77 299.866 409.765 299.941 409.765H301.349C301.456 409.765 301.546 409.802 301.621 409.877C301.696 409.952 301.733 410.042 301.733 410.149V420.581C301.733 420.688 301.696 420.778 301.621 420.853C301.546 420.928 301.456 420.965 301.349 420.965H299.893ZM303.827 422.165C303.731 422.165 303.657 422.133 303.603 422.069C303.55 422.005 303.529 421.925 303.539 421.829L303.971 419.109C303.993 418.97 304.041 418.853 304.115 418.757C304.201 418.65 304.323 418.597 304.483 418.597H305.955C306.041 418.597 306.11 418.629 306.163 418.693C306.217 418.746 306.243 418.816 306.243 418.901C306.243 418.976 306.227 419.045 306.195 419.109L305.171 421.765C305.129 421.872 305.065 421.962 304.979 422.037C304.905 422.122 304.793 422.165 304.643 422.165H303.827ZM312.162 421.125C311.405 421.125 310.759 421.013 310.226 420.789C309.693 420.565 309.255 420.256 308.914 419.861C308.573 419.466 308.317 419.013 308.146 418.501C307.975 417.978 307.874 417.424 307.842 416.837C307.831 416.549 307.821 416.234 307.81 415.893C307.81 415.541 307.81 415.189 307.81 414.837C307.821 414.485 307.831 414.16 307.842 413.861C307.863 413.274 307.965 412.725 308.146 412.213C308.327 411.69 308.589 411.237 308.93 410.853C309.282 410.469 309.725 410.165 310.258 409.941C310.791 409.717 311.426 409.605 312.162 409.605C312.909 409.605 313.549 409.717 314.082 409.941C314.615 410.165 315.053 410.469 315.394 410.853C315.746 411.237 316.007 411.69 316.178 412.213C316.359 412.725 316.461 413.274 316.482 413.861C316.503 414.16 316.514 414.485 316.514 414.837C316.514 415.189 316.514 415.541 316.514 415.893C316.514 416.234 316.503 416.549 316.482 416.837C316.461 417.424 316.365 417.978 316.194 418.501C316.023 419.013 315.767 419.466 315.426 419.861C315.085 420.256 314.642 420.565 314.098 420.789C313.565 421.013 312.919 421.125 312.162 421.125ZM312.162 419.285C312.855 419.285 313.362 419.061 313.682 418.613C314.013 418.154 314.183 417.536 314.194 416.757C314.215 416.448 314.226 416.138 314.226 415.829C314.226 415.509 314.226 415.189 314.226 414.869C314.226 414.549 314.215 414.245 314.194 413.957C314.183 413.2 314.013 412.592 313.682 412.133C313.362 411.664 312.855 411.429 312.162 411.429C311.479 411.429 310.973 411.664 310.642 412.133C310.322 412.592 310.151 413.2 310.13 413.957C310.13 414.245 310.125 414.549 310.114 414.869C310.114 415.189 310.114 415.509 310.114 415.829C310.125 416.138 310.13 416.448 310.13 416.757C310.151 417.536 310.327 418.154 310.658 418.613C310.989 419.061 311.49 419.285 312.162 419.285ZM322.678 421.125C321.92 421.125 321.275 421.013 320.742 420.789C320.208 420.565 319.771 420.256 319.43 419.861C319.088 419.466 318.832 419.013 318.662 418.501C318.491 417.978 318.39 417.424 318.358 416.837C318.347 416.549 318.336 416.234 318.326 415.893C318.326 415.541 318.326 415.189 318.326 414.837C318.336 414.485 318.347 414.16 318.358 413.861C318.379 413.274 318.48 412.725 318.662 412.213C318.843 411.69 319.104 411.237 319.446 410.853C319.798 410.469 320.24 410.165 320.774 409.941C321.307 409.717 321.942 409.605 322.678 409.605C323.424 409.605 324.064 409.717 324.598 409.941C325.131 410.165 325.568 410.469 325.91 410.853C326.262 411.237 326.523 411.69 326.694 412.213C326.875 412.725 326.976 413.274 326.998 413.861C327.019 414.16 327.03 414.485 327.03 414.837C327.03 415.189 327.03 415.541 327.03 415.893C327.03 416.234 327.019 416.549 326.998 416.837C326.976 417.424 326.88 417.978 326.71 418.501C326.539 419.013 326.283 419.466 325.942 419.861C325.6 420.256 325.158 420.565 324.614 420.789C324.08 421.013 323.435 421.125 322.678 421.125ZM322.678 419.285C323.371 419.285 323.878 419.061 324.198 418.613C324.528 418.154 324.699 417.536 324.71 416.757C324.731 416.448 324.742 416.138 324.742 415.829C324.742 415.509 324.742 415.189 324.742 414.869C324.742 414.549 324.731 414.245 324.71 413.957C324.699 413.2 324.528 412.592 324.198 412.133C323.878 411.664 323.371 411.429 322.678 411.429C321.995 411.429 321.488 411.664 321.158 412.133C320.838 412.592 320.667 413.2 320.646 413.957C320.646 414.245 320.64 414.549 320.63 414.869C320.63 415.189 320.63 415.509 320.63 415.829C320.64 416.138 320.646 416.448 320.646 416.757C320.667 417.536 320.843 418.154 321.174 418.613C321.504 419.061 322.006 419.285 322.678 419.285ZM333.193 421.125C332.436 421.125 331.791 421.013 331.257 420.789C330.724 420.565 330.287 420.256 329.945 419.861C329.604 419.466 329.348 419.013 329.177 418.501C329.007 417.978 328.905 417.424 328.873 416.837C328.863 416.549 328.852 416.234 328.841 415.893C328.841 415.541 328.841 415.189 328.841 414.837C328.852 414.485 328.863 414.16 328.873 413.861C328.895 413.274 328.996 412.725 329.177 412.213C329.359 411.69 329.62 411.237 329.961 410.853C330.313 410.469 330.756 410.165 331.289 409.941C331.823 409.717 332.457 409.605 333.193 409.605C333.94 409.605 334.58 409.717 335.113 409.941C335.647 410.165 336.084 410.469 336.425 410.853C336.777 411.237 337.039 411.69 337.209 412.213C337.391 412.725 337.492 413.274 337.513 413.861C337.535 414.16 337.545 414.485 337.545 414.837C337.545 415.189 337.545 415.541 337.545 415.893C337.545 416.234 337.535 416.549 337.513 416.837C337.492 417.424 337.396 417.978 337.225 418.501C337.055 419.013 336.799 419.466 336.457 419.861C336.116 420.256 335.673 420.565 335.129 420.789C334.596 421.013 333.951 421.125 333.193 421.125ZM333.193 419.285C333.887 419.285 334.393 419.061 334.713 418.613C335.044 418.154 335.215 417.536 335.225 416.757C335.247 416.448 335.257 416.138 335.257 415.829C335.257 415.509 335.257 415.189 335.257 414.869C335.257 414.549 335.247 414.245 335.225 413.957C335.215 413.2 335.044 412.592 334.713 412.133C334.393 411.664 333.887 411.429 333.193 411.429C332.511 411.429 332.004 411.664 331.673 412.133C331.353 412.592 331.183 413.2 331.161 413.957C331.161 414.245 331.156 414.549 331.145 414.869C331.145 415.189 331.145 415.509 331.145 415.829C331.156 416.138 331.161 416.448 331.161 416.757C331.183 417.536 331.359 418.154 331.689 418.613C332.02 419.061 332.521 419.285 333.193 419.285ZM339.249 422.165C339.153 422.165 339.078 422.133 339.025 422.069C338.972 422.005 338.95 421.925 338.961 421.829L339.393 419.109C339.414 418.97 339.462 418.853 339.537 418.757C339.622 418.65 339.745 418.597 339.905 418.597H341.377C341.462 418.597 341.532 418.629 341.585 418.693C341.638 418.746 341.665 418.816 341.665 418.901C341.665 418.976 341.649 419.045 341.617 419.109L340.593 421.765C340.55 421.872 340.486 421.962 340.401 422.037C340.326 422.122 340.214 422.165 340.065 422.165H339.249ZM347.584 421.125C346.827 421.125 346.181 421.013 345.648 420.789C345.115 420.565 344.677 420.256 344.336 419.861C343.995 419.466 343.739 419.013 343.568 418.501C343.397 417.978 343.296 417.424 343.264 416.837C343.253 416.549 343.243 416.234 343.232 415.893C343.232 415.541 343.232 415.189 343.232 414.837C343.243 414.485 343.253 414.16 343.264 413.861C343.285 413.274 343.387 412.725 343.568 412.213C343.749 411.69 344.011 411.237 344.352 410.853C344.704 410.469 345.147 410.165 345.68 409.941C346.213 409.717 346.848 409.605 347.584 409.605C348.331 409.605 348.971 409.717 349.504 409.941C350.037 410.165 350.475 410.469 350.816 410.853C351.168 411.237 351.429 411.69 351.6 412.213C351.781 412.725 351.883 413.274 351.904 413.861C351.925 414.16 351.936 414.485 351.936 414.837C351.936 415.189 351.936 415.541 351.936 415.893C351.936 416.234 351.925 416.549 351.904 416.837C351.883 417.424 351.787 417.978 351.616 418.501C351.445 419.013 351.189 419.466 350.848 419.861C350.507 420.256 350.064 420.565 349.52 420.789C348.987 421.013 348.341 421.125 347.584 421.125ZM347.584 419.285C348.277 419.285 348.784 419.061 349.104 418.613C349.435 418.154 349.605 417.536 349.616 416.757C349.637 416.448 349.648 416.138 349.648 415.829C349.648 415.509 349.648 415.189 349.648 414.869C349.648 414.549 349.637 414.245 349.616 413.957C349.605 413.2 349.435 412.592 349.104 412.133C348.784 411.664 348.277 411.429 347.584 411.429C346.901 411.429 346.395 411.664 346.064 412.133C345.744 412.592 345.573 413.2 345.552 413.957C345.552 414.245 345.547 414.549 345.536 414.869C345.536 415.189 345.536 415.509 345.536 415.829C345.547 416.138 345.552 416.448 345.552 416.757C345.573 417.536 345.749 418.154 346.08 418.613C346.411 419.061 346.912 419.285 347.584 419.285ZM358.1 421.125C357.342 421.125 356.697 421.013 356.164 420.789C355.63 420.565 355.193 420.256 354.852 419.861C354.51 419.466 354.254 419.013 354.084 418.501C353.913 417.978 353.812 417.424 353.78 416.837C353.769 416.549 353.758 416.234 353.748 415.893C353.748 415.541 353.748 415.189 353.748 414.837C353.758 414.485 353.769 414.16 353.78 413.861C353.801 413.274 353.902 412.725 354.084 412.213C354.265 411.69 354.526 411.237 354.868 410.853C355.22 410.469 355.662 410.165 356.196 409.941C356.729 409.717 357.364 409.605 358.1 409.605C358.846 409.605 359.486 409.717 360.02 409.941C360.553 410.165 360.99 410.469 361.332 410.853C361.684 411.237 361.945 411.69 362.116 412.213C362.297 412.725 362.398 413.274 362.42 413.861C362.441 414.16 362.452 414.485 362.452 414.837C362.452 415.189 362.452 415.541 362.452 415.893C362.452 416.234 362.441 416.549 362.42 416.837C362.398 417.424 362.302 417.978 362.132 418.501C361.961 419.013 361.705 419.466 361.364 419.861C361.022 420.256 360.58 420.565 360.036 420.789C359.502 421.013 358.857 421.125 358.1 421.125ZM358.1 419.285C358.793 419.285 359.3 419.061 359.62 418.613C359.95 418.154 360.121 417.536 360.132 416.757C360.153 416.448 360.164 416.138 360.164 415.829C360.164 415.509 360.164 415.189 360.164 414.869C360.164 414.549 360.153 414.245 360.132 413.957C360.121 413.2 359.95 412.592 359.62 412.133C359.3 411.664 358.793 411.429 358.1 411.429C357.417 411.429 356.91 411.664 356.58 412.133C356.26 412.592 356.089 413.2 356.068 413.957C356.068 414.245 356.062 414.549 356.052 414.869C356.052 415.189 356.052 415.509 356.052 415.829C356.062 416.138 356.068 416.448 356.068 416.757C356.089 417.536 356.265 418.154 356.596 418.613C356.926 419.061 357.428 419.285 358.1 419.285ZM368.615 421.125C367.858 421.125 367.213 421.013 366.679 420.789C366.146 420.565 365.709 420.256 365.367 419.861C365.026 419.466 364.77 419.013 364.599 418.501C364.429 417.978 364.327 417.424 364.295 416.837C364.285 416.549 364.274 416.234 364.263 415.893C364.263 415.541 364.263 415.189 364.263 414.837C364.274 414.485 364.285 414.16 364.295 413.861C364.317 413.274 364.418 412.725 364.599 412.213C364.781 411.69 365.042 411.237 365.383 410.853C365.735 410.469 366.178 410.165 366.711 409.941C367.245 409.717 367.879 409.605 368.615 409.605C369.362 409.605 370.002 409.717 370.535 409.941C371.069 410.165 371.506 410.469 371.847 410.853C372.199 411.237 372.461 411.69 372.631 412.213C372.813 412.725 372.914 413.274 372.935 413.861C372.957 414.16 372.967 414.485 372.967 414.837C372.967 415.189 372.967 415.541 372.967 415.893C372.967 416.234 372.957 416.549 372.935 416.837C372.914 417.424 372.818 417.978 372.647 418.501C372.477 419.013 372.221 419.466 371.879 419.861C371.538 420.256 371.095 420.565 370.551 420.789C370.018 421.013 369.373 421.125 368.615 421.125ZM368.615 419.285C369.309 419.285 369.815 419.061 370.135 418.613C370.466 418.154 370.637 417.536 370.647 416.757C370.669 416.448 370.679 416.138 370.679 415.829C370.679 415.509 370.679 415.189 370.679 414.869C370.679 414.549 370.669 414.245 370.647 413.957C370.637 413.2 370.466 412.592 370.135 412.133C369.815 411.664 369.309 411.429 368.615 411.429C367.933 411.429 367.426 411.664 367.095 412.133C366.775 412.592 366.605 413.2 366.583 413.957C366.583 414.245 366.578 414.549 366.567 414.869C366.567 415.189 366.567 415.509 366.567 415.829C366.578 416.138 366.583 416.448 366.583 416.757C366.605 417.536 366.781 418.154 367.111 418.613C367.442 419.061 367.943 419.285 368.615 419.285ZM374.671 422.165C374.575 422.165 374.5 422.133 374.447 422.069C374.394 422.005 374.372 421.925 374.383 421.829L374.815 419.109C374.836 418.97 374.884 418.853 374.959 418.757C375.044 418.65 375.167 418.597 375.327 418.597H376.799C376.884 418.597 376.954 418.629 377.007 418.693C377.06 418.746 377.087 418.816 377.087 418.901C377.087 418.976 377.071 419.045 377.039 419.109L376.015 421.765C375.972 421.872 375.908 421.962 375.823 422.037C375.748 422.122 375.636 422.165 375.487 422.165H374.671ZM383.006 421.125C382.248 421.125 381.603 421.013 381.07 420.789C380.536 420.565 380.099 420.256 379.758 419.861C379.416 419.466 379.16 419.013 378.99 418.501C378.819 417.978 378.718 417.424 378.686 416.837C378.675 416.549 378.664 416.234 378.654 415.893C378.654 415.541 378.654 415.189 378.654 414.837C378.664 414.485 378.675 414.16 378.686 413.861C378.707 413.274 378.808 412.725 378.99 412.213C379.171 411.69 379.432 411.237 379.774 410.853C380.126 410.469 380.568 410.165 381.102 409.941C381.635 409.717 382.27 409.605 383.006 409.605C383.752 409.605 384.392 409.717 384.926 409.941C385.459 410.165 385.896 410.469 386.238 410.853C386.59 411.237 386.851 411.69 387.022 412.213C387.203 412.725 387.304 413.274 387.326 413.861C387.347 414.16 387.358 414.485 387.358 414.837C387.358 415.189 387.358 415.541 387.358 415.893C387.358 416.234 387.347 416.549 387.326 416.837C387.304 417.424 387.208 417.978 387.038 418.501C386.867 419.013 386.611 419.466 386.27 419.861C385.928 420.256 385.486 420.565 384.942 420.789C384.408 421.013 383.763 421.125 383.006 421.125ZM383.006 419.285C383.699 419.285 384.206 419.061 384.526 418.613C384.856 418.154 385.027 417.536 385.038 416.757C385.059 416.448 385.07 416.138 385.07 415.829C385.07 415.509 385.07 415.189 385.07 414.869C385.07 414.549 385.059 414.245 385.038 413.957C385.027 413.2 384.856 412.592 384.526 412.133C384.206 411.664 383.699 411.429 383.006 411.429C382.323 411.429 381.816 411.664 381.486 412.133C381.166 412.592 380.995 413.2 380.974 413.957C380.974 414.245 380.968 414.549 380.958 414.869C380.958 415.189 380.958 415.509 380.958 415.829C380.968 416.138 380.974 416.448 380.974 416.757C380.995 417.536 381.171 418.154 381.502 418.613C381.832 419.061 382.334 419.285 383.006 419.285ZM393.521 421.125C392.764 421.125 392.119 421.013 391.585 420.789C391.052 420.565 390.615 420.256 390.273 419.861C389.932 419.466 389.676 419.013 389.505 418.501C389.335 417.978 389.233 417.424 389.201 416.837C389.191 416.549 389.18 416.234 389.169 415.893C389.169 415.541 389.169 415.189 389.169 414.837C389.18 414.485 389.191 414.16 389.201 413.861C389.223 413.274 389.324 412.725 389.505 412.213C389.687 411.69 389.948 411.237 390.289 410.853C390.641 410.469 391.084 410.165 391.617 409.941C392.151 409.717 392.785 409.605 393.521 409.605C394.268 409.605 394.908 409.717 395.441 409.941C395.975 410.165 396.412 410.469 396.753 410.853C397.105 411.237 397.367 411.69 397.537 412.213C397.719 412.725 397.82 413.274 397.841 413.861C397.863 414.16 397.873 414.485 397.873 414.837C397.873 415.189 397.873 415.541 397.873 415.893C397.873 416.234 397.863 416.549 397.841 416.837C397.82 417.424 397.724 417.978 397.553 418.501C397.383 419.013 397.127 419.466 396.785 419.861C396.444 420.256 396.001 420.565 395.457 420.789C394.924 421.013 394.279 421.125 393.521 421.125ZM393.521 419.285C394.215 419.285 394.721 419.061 395.041 418.613C395.372 418.154 395.543 417.536 395.553 416.757C395.575 416.448 395.585 416.138 395.585 415.829C395.585 415.509 395.585 415.189 395.585 414.869C395.585 414.549 395.575 414.245 395.553 413.957C395.543 413.2 395.372 412.592 395.041 412.133C394.721 411.664 394.215 411.429 393.521 411.429C392.839 411.429 392.332 411.664 392.001 412.133C391.681 412.592 391.511 413.2 391.489 413.957C391.489 414.245 391.484 414.549 391.473 414.869C391.473 415.189 391.473 415.509 391.473 415.829C391.484 416.138 391.489 416.448 391.489 416.757C391.511 417.536 391.687 418.154 392.017 418.613C392.348 419.061 392.849 419.285 393.521 419.285ZM404.037 421.125C403.28 421.125 402.634 421.013 402.101 420.789C401.568 420.565 401.13 420.256 400.789 419.861C400.448 419.466 400.192 419.013 400.021 418.501C399.85 417.978 399.749 417.424 399.717 416.837C399.706 416.549 399.696 416.234 399.685 415.893C399.685 415.541 399.685 415.189 399.685 414.837C399.696 414.485 399.706 414.16 399.717 413.861C399.738 413.274 399.84 412.725 400.021 412.213C400.202 411.69 400.464 411.237 400.805 410.853C401.157 410.469 401.6 410.165 402.133 409.941C402.666 409.717 403.301 409.605 404.037 409.605C404.784 409.605 405.424 409.717 405.957 409.941C406.49 410.165 406.928 410.469 407.269 410.853C407.621 411.237 407.882 411.69 408.053 412.213C408.234 412.725 408.336 413.274 408.357 413.861C408.378 414.16 408.389 414.485 408.389 414.837C408.389 415.189 408.389 415.541 408.389 415.893C408.389 416.234 408.378 416.549 408.357 416.837C408.336 417.424 408.24 417.978 408.069 418.501C407.898 419.013 407.642 419.466 407.301 419.861C406.96 420.256 406.517 420.565 405.973 420.789C405.44 421.013 404.794 421.125 404.037 421.125ZM404.037 419.285C404.73 419.285 405.237 419.061 405.557 418.613C405.888 418.154 406.058 417.536 406.069 416.757C406.09 416.448 406.101 416.138 406.101 415.829C406.101 415.509 406.101 415.189 406.101 414.869C406.101 414.549 406.09 414.245 406.069 413.957C406.058 413.2 405.888 412.592 405.557 412.133C405.237 411.664 404.73 411.429 404.037 411.429C403.354 411.429 402.848 411.664 402.517 412.133C402.197 412.592 402.026 413.2 402.005 413.957C402.005 414.245 402 414.549 401.989 414.869C401.989 415.189 401.989 415.509 401.989 415.829C402 416.138 402.005 416.448 402.005 416.757C402.026 417.536 402.202 418.154 402.533 418.613C402.864 419.061 403.365 419.285 404.037 419.285ZM417.969 423.509C417.265 423.509 416.646 423.365 416.113 423.077C415.58 422.789 415.137 422.341 414.785 421.733C414.444 421.136 414.188 420.362 414.017 419.413C413.846 418.464 413.761 417.333 413.761 416.021C413.761 414.698 413.846 413.568 414.017 412.629C414.188 411.68 414.444 410.906 414.785 410.309C415.137 409.701 415.58 409.258 416.113 408.981C416.646 408.693 417.265 408.549 417.969 408.549C418.076 408.549 418.166 408.586 418.241 408.661C418.316 408.736 418.353 408.826 418.353 408.933V409.893C418.353 410 418.316 410.09 418.241 410.165C418.177 410.24 418.097 410.277 418.001 410.277C417.564 410.298 417.196 410.426 416.897 410.661C416.598 410.885 416.358 411.232 416.177 411.701C416.006 412.16 415.884 412.746 415.809 413.461C415.734 414.176 415.697 415.029 415.697 416.021C415.697 417.013 415.734 417.866 415.809 418.581C415.884 419.296 416.006 419.888 416.177 420.357C416.358 420.826 416.598 421.173 416.897 421.397C417.196 421.632 417.564 421.76 418.001 421.781C418.097 421.781 418.177 421.818 418.241 421.893C418.316 421.968 418.353 422.058 418.353 422.165V423.125C418.353 423.232 418.316 423.322 418.241 423.397C418.166 423.472 418.076 423.509 417.969 423.509ZM422.643 420.965C422.526 420.965 422.43 420.928 422.355 420.853C422.291 420.778 422.259 420.688 422.259 420.581V412.293L419.827 414.165C419.731 414.229 419.635 414.256 419.539 414.245C419.443 414.224 419.358 414.165 419.283 414.069L418.611 413.205C418.547 413.109 418.52 413.008 418.531 412.901C418.552 412.794 418.611 412.709 418.707 412.645L422.291 409.877C422.355 409.824 422.419 409.792 422.483 409.781C422.547 409.77 422.616 409.765 422.691 409.765H424.099C424.206 409.765 424.296 409.802 424.371 409.877C424.446 409.952 424.483 410.042 424.483 410.149V420.581C424.483 420.688 424.446 420.778 424.371 420.853C424.296 420.928 424.206 420.965 424.099 420.965H422.643ZM430.905 420.965C430.799 420.965 430.708 420.928 430.633 420.853C430.559 420.778 430.521 420.688 430.521 420.581V410.165C430.521 410.048 430.559 409.952 430.633 409.877C430.708 409.802 430.799 409.765 430.905 409.765H435.545C436.409 409.765 437.113 409.898 437.657 410.165C438.201 410.421 438.601 410.778 438.857 411.237C439.124 411.696 439.257 412.229 439.257 412.837C439.257 413.242 439.183 413.6 439.033 413.909C438.895 414.208 438.719 414.453 438.505 414.645C438.303 414.837 438.1 414.986 437.897 415.093C438.313 415.285 438.681 415.605 439.001 416.053C439.321 416.501 439.481 417.034 439.481 417.653C439.481 418.293 439.337 418.864 439.049 419.365C438.761 419.866 438.335 420.261 437.769 420.549C437.204 420.826 436.505 420.965 435.673 420.965H430.905ZM432.745 419.269H435.417C435.993 419.269 436.431 419.114 436.729 418.805C437.028 418.485 437.177 418.101 437.177 417.653C437.177 417.184 437.023 416.794 436.713 416.485C436.415 416.176 435.983 416.021 435.417 416.021H432.745V419.269ZM432.745 414.357H435.257C435.823 414.357 436.244 414.224 436.521 413.957C436.809 413.68 436.953 413.322 436.953 412.885C436.953 412.437 436.809 412.09 436.521 411.845C436.244 411.589 435.823 411.461 435.257 411.461H432.745V414.357ZM441.745 420.965C441.638 420.965 441.547 420.928 441.473 420.853C441.398 420.778 441.361 420.688 441.361 420.581V413.029C441.361 412.922 441.398 412.832 441.473 412.757C441.547 412.682 441.638 412.645 441.745 412.645H443.073C443.19 412.645 443.281 412.682 443.345 412.757C443.419 412.832 443.457 412.922 443.457 413.029V420.581C443.457 420.688 443.419 420.778 443.345 420.853C443.281 420.928 443.19 420.965 443.073 420.965H441.745ZM441.681 411.269C441.563 411.269 441.467 411.237 441.393 411.173C441.329 411.098 441.297 411.002 441.297 410.885V409.733C441.297 409.626 441.329 409.536 441.393 409.461C441.467 409.386 441.563 409.349 441.681 409.349H443.137C443.254 409.349 443.35 409.386 443.425 409.461C443.499 409.536 443.537 409.626 443.537 409.733V410.885C443.537 411.002 443.499 411.098 443.425 411.173C443.35 411.237 443.254 411.269 443.137 411.269H441.681ZM445.979 420.965C445.873 420.965 445.782 420.928 445.707 420.853C445.633 420.778 445.595 420.688 445.595 420.581V409.989C445.595 409.882 445.633 409.792 445.707 409.717C445.782 409.642 445.873 409.605 445.979 409.605H447.307C447.414 409.605 447.505 409.642 447.579 409.717C447.654 409.792 447.691 409.882 447.691 409.989V420.581C447.691 420.688 447.654 420.778 447.579 420.853C447.505 420.928 447.414 420.965 447.307 420.965H445.979ZM450.214 420.965C450.107 420.965 450.016 420.928 449.942 420.853C449.867 420.778 449.83 420.688 449.83 420.581V409.989C449.83 409.882 449.867 409.792 449.942 409.717C450.016 409.642 450.107 409.605 450.214 409.605H451.542C451.648 409.605 451.739 409.642 451.814 409.717C451.888 409.792 451.926 409.882 451.926 409.989V420.581C451.926 420.688 451.888 420.778 451.814 420.853C451.739 420.928 451.648 420.965 451.542 420.965H450.214ZM454.776 420.965C454.669 420.965 454.579 420.928 454.504 420.853C454.429 420.778 454.392 420.688 454.392 420.581V413.029C454.392 412.922 454.429 412.832 454.504 412.757C454.579 412.682 454.669 412.645 454.776 412.645H456.104C456.221 412.645 456.312 412.682 456.376 412.757C456.451 412.832 456.488 412.922 456.488 413.029V420.581C456.488 420.688 456.451 420.778 456.376 420.853C456.312 420.928 456.221 420.965 456.104 420.965H454.776ZM454.712 411.269C454.595 411.269 454.499 411.237 454.424 411.173C454.36 411.098 454.328 411.002 454.328 410.885V409.733C454.328 409.626 454.36 409.536 454.424 409.461C454.499 409.386 454.595 409.349 454.712 409.349H456.168C456.285 409.349 456.381 409.386 456.456 409.461C456.531 409.536 456.568 409.626 456.568 409.733V410.885C456.568 411.002 456.531 411.098 456.456 411.173C456.381 411.237 456.285 411.269 456.168 411.269H454.712ZM462.338 421.125C461.484 421.125 460.764 420.976 460.178 420.677C459.602 420.378 459.159 419.957 458.85 419.413C458.551 418.869 458.38 418.234 458.338 417.509C458.327 417.317 458.322 417.082 458.322 416.805C458.322 416.528 458.327 416.293 458.338 416.101C458.38 415.365 458.556 414.73 458.866 414.197C459.186 413.653 459.634 413.232 460.21 412.933C460.796 412.634 461.506 412.485 462.338 412.485C463.17 412.485 463.874 412.634 464.45 412.933C465.036 413.232 465.484 413.653 465.794 414.197C466.114 414.73 466.295 415.365 466.338 416.101C466.348 416.293 466.354 416.528 466.354 416.805C466.354 417.082 466.348 417.317 466.338 417.509C466.295 418.234 466.119 418.869 465.81 419.413C465.511 419.957 465.068 420.378 464.482 420.677C463.906 420.976 463.191 421.125 462.338 421.125ZM462.338 419.541C462.903 419.541 463.34 419.365 463.65 419.013C463.959 418.65 464.13 418.122 464.162 417.429C464.172 417.269 464.178 417.061 464.178 416.805C464.178 416.549 464.172 416.341 464.162 416.181C464.13 415.498 463.959 414.976 463.65 414.613C463.34 414.25 462.903 414.069 462.338 414.069C461.772 414.069 461.335 414.25 461.026 414.613C460.716 414.976 460.546 415.498 460.514 416.181C460.503 416.341 460.498 416.549 460.498 416.805C460.498 417.061 460.503 417.269 460.514 417.429C460.546 418.122 460.716 418.65 461.026 419.013C461.335 419.365 461.772 419.541 462.338 419.541ZM468.51 420.965C468.404 420.965 468.313 420.928 468.238 420.853C468.164 420.778 468.126 420.688 468.126 420.581V413.029C468.126 412.922 468.164 412.832 468.238 412.757C468.313 412.682 468.404 412.645 468.51 412.645H469.822C469.929 412.645 470.02 412.682 470.094 412.757C470.169 412.832 470.206 412.922 470.206 413.029V413.685C470.484 413.344 470.836 413.061 471.262 412.837C471.7 412.602 472.238 412.485 472.878 412.485C473.529 412.485 474.094 412.634 474.574 412.933C475.054 413.221 475.422 413.632 475.678 414.165C475.945 414.698 476.078 415.338 476.078 416.085V420.581C476.078 420.688 476.041 420.778 475.966 420.853C475.892 420.928 475.801 420.965 475.694 420.965H474.286C474.18 420.965 474.089 420.928 474.014 420.853C473.94 420.778 473.902 420.688 473.902 420.581V416.181C473.902 415.562 473.748 415.077 473.438 414.725C473.14 414.373 472.702 414.197 472.126 414.197C471.572 414.197 471.129 414.373 470.798 414.725C470.468 415.077 470.302 415.562 470.302 416.181V420.581C470.302 420.688 470.265 420.778 470.19 420.853C470.116 420.928 470.025 420.965 469.918 420.965H468.51ZM482.343 420.965C482.236 420.965 482.146 420.928 482.071 420.853C481.996 420.778 481.959 420.688 481.959 420.581V410.165C481.959 410.048 481.996 409.952 482.071 409.877C482.146 409.802 482.236 409.765 482.343 409.765H489.287C489.404 409.765 489.5 409.802 489.575 409.877C489.65 409.952 489.687 410.048 489.687 410.165V411.285C489.687 411.402 489.65 411.498 489.575 411.573C489.5 411.637 489.404 411.669 489.287 411.669H484.151V414.709H488.967C489.084 414.709 489.18 414.746 489.255 414.821C489.33 414.896 489.367 414.992 489.367 415.109V416.229C489.367 416.336 489.33 416.426 489.255 416.501C489.18 416.576 489.084 416.613 488.967 416.613H484.151V420.581C484.151 420.688 484.114 420.778 484.039 420.853C483.964 420.928 483.868 420.965 483.751 420.965H482.343ZM490.224 420.965C490.139 420.965 490.059 420.933 489.984 420.869C489.92 420.805 489.888 420.725 489.888 420.629C489.888 420.586 489.899 420.538 489.92 420.485L493.776 410.165C493.808 410.058 493.867 409.968 493.952 409.893C494.048 409.808 494.176 409.765 494.336 409.765H496.08C496.24 409.765 496.363 409.808 496.448 409.893C496.533 409.968 496.597 410.058 496.64 410.165L500.496 420.485C500.507 420.538 500.512 420.586 500.512 420.629C500.512 420.725 500.48 420.805 500.416 420.869C500.352 420.933 500.277 420.965 500.192 420.965H498.8C498.651 420.965 498.539 420.933 498.464 420.869C498.4 420.794 498.357 420.725 498.336 420.661L497.584 418.709H492.832L492.08 420.661C492.059 420.725 492.011 420.794 491.936 420.869C491.872 420.933 491.765 420.965 491.616 420.965H490.224ZM493.392 416.869H497.024L495.2 411.925L493.392 416.869ZM502.39 420.965C502.283 420.965 502.192 420.928 502.118 420.853C502.043 420.778 502.006 420.688 502.006 420.581V410.149C502.006 410.042 502.043 409.952 502.118 409.877C502.192 409.802 502.283 409.765 502.39 409.765H503.894C504.011 409.765 504.102 409.802 504.166 409.877C504.24 409.952 504.278 410.042 504.278 410.149V420.581C504.278 420.688 504.24 420.778 504.166 420.853C504.102 420.928 504.011 420.965 503.894 420.965H502.39ZM506.526 423.509C506.419 423.509 506.328 423.472 506.254 423.397C506.179 423.322 506.142 423.232 506.142 423.125V422.165C506.142 422.058 506.174 421.968 506.238 421.893C506.312 421.818 506.398 421.781 506.494 421.781C506.942 421.76 507.31 421.632 507.598 421.397C507.896 421.173 508.131 420.826 508.302 420.357C508.483 419.888 508.611 419.296 508.686 418.581C508.771 417.866 508.814 417.013 508.814 416.021C508.814 415.029 508.771 414.176 508.686 413.461C508.611 412.746 508.483 412.16 508.302 411.701C508.131 411.232 507.896 410.885 507.598 410.661C507.31 410.426 506.942 410.298 506.494 410.277C506.398 410.277 506.312 410.24 506.238 410.165C506.174 410.09 506.142 410 506.142 409.893V408.933C506.142 408.826 506.179 408.736 506.254 408.661C506.328 408.586 506.419 408.549 506.526 408.549C507.23 408.549 507.848 408.693 508.382 408.981C508.915 409.258 509.352 409.701 509.694 410.309C510.046 410.906 510.307 411.68 510.478 412.629C510.648 413.568 510.734 414.698 510.734 416.021C510.734 417.333 510.648 418.464 510.478 419.413C510.307 420.362 510.046 421.136 509.694 421.733C509.352 422.341 508.915 422.789 508.382 423.077C507.848 423.365 507.23 423.509 506.526 423.509Z" fill="white"/>
<circle cx="249" cy="243.965" r="10" fill="white"/>
<circle cx="616" cy="469.965" r="10" fill="white"/>
<circle cx="601" cy="300.965" r="10" fill="white"/>
<defs>
<linearGradient id="paint0_linear_233_19" x1="561.688" y1="405.746" x2="249" y2="405.746" gradientUnits="userSpaceOnUse">
<stop stop-color="white"/>
<stop offset="1" stop-color="white" stop-opacity="0"/>
</linearGradient>
</defs>
</svg>
