<svg width="533" height="305" viewBox="0 0 533 305" fill="none" xmlns="http://www.w3.org/2000/svg">
<rect x="14" width="519" height="87" rx="15" fill="url(#paint0_linear_233_20)" fill-opacity="0.06"/>
<rect x="14.5" y="0.5" width="518" height="86" rx="14.5" stroke="white" stroke-opacity="0.09"/>
<rect x="14" y="218" width="519" height="87" rx="15" fill="url(#paint1_linear_233_20)" fill-opacity="0.06"/>
<rect x="14.5" y="218.5" width="518" height="86" rx="14.5" stroke="white" stroke-opacity="0.09"/>
<rect x="14" y="109" width="519" height="87" rx="15" fill="url(#paint2_linear_233_20)" fill-opacity="0.06"/>
<rect x="14.5" y="109.5" width="518" height="86" rx="14.5" stroke="white" stroke-opacity="0.09"/>
<path d="M49.04 50C48.9067 50 48.7933 49.9533 48.7 49.86C48.6067 49.7667 48.56 49.6533 48.56 49.52V36.48C48.56 36.3467 48.6067 36.2333 48.7 36.14C48.7933 36.0467 48.9067 36 49.04 36H50.9C51.0333 36 51.1467 36.0467 51.24 36.14C51.3333 36.2333 51.38 36.3467 51.38 36.48V47.62H57.72C57.8667 47.62 57.9867 47.6667 58.08 47.76C58.1733 47.8533 58.22 47.9733 58.22 48.12V49.52C58.22 49.6533 58.1733 49.7667 58.08 49.86C57.9867 49.9533 57.8667 50 57.72 50H49.04ZM60.6416 50C60.5082 50 60.3949 49.9533 60.3016 49.86C60.2082 49.7667 60.1616 49.6533 60.1616 49.52V36.5C60.1616 36.3533 60.2082 36.2333 60.3016 36.14C60.3949 36.0467 60.5082 36 60.6416 36H66.0016C67.0416 36 67.9482 36.1667 68.7216 36.5C69.4949 36.82 70.0949 37.3133 70.5216 37.98C70.9482 38.6333 71.1616 39.4533 71.1616 40.44C71.1616 41.44 70.9482 42.2667 70.5216 42.92C70.0949 43.56 69.4949 44.04 68.7216 44.36C67.9482 44.68 67.0416 44.84 66.0016 44.84H63.0216V49.52C63.0216 49.6533 62.9749 49.7667 62.8816 49.86C62.8016 49.9533 62.6882 50 62.5416 50H60.6416ZM62.9816 42.62H65.9016C66.6749 42.62 67.2682 42.44 67.6816 42.08C68.0949 41.7067 68.3016 41.16 68.3016 40.44C68.3016 39.7733 68.1082 39.24 67.7216 38.84C67.3349 38.4267 66.7282 38.22 65.9016 38.22H62.9816V42.62ZM78.8063 50C78.6863 50 78.5863 49.96 78.5063 49.88C78.4263 49.7867 78.3863 49.68 78.3863 49.56C78.3863 49.5067 78.3996 49.4467 78.4263 49.38L83.2463 38.38H76.9663C76.8196 38.38 76.6996 38.3333 76.6063 38.24C76.5263 38.1467 76.4863 38.0333 76.4863 37.9V36.5C76.4863 36.3533 76.5263 36.2333 76.6063 36.14C76.6996 36.0467 76.8196 36 76.9663 36H85.7463C85.8929 36 86.0063 36.0467 86.0863 36.14C86.1796 36.2333 86.2263 36.3533 86.2263 36.5V37.74C86.2263 37.9267 86.2063 38.0867 86.1663 38.22C86.1396 38.34 86.0996 38.4667 86.0463 38.6L81.2663 49.52C81.2263 49.6133 81.1529 49.72 81.0462 49.84C80.9529 49.9467 80.8129 50 80.6263 50H78.8063ZM93.3256 50.2C92.379 50.2 91.5723 50.06 90.9056 49.78C90.239 49.5 89.6923 49.1133 89.2656 48.62C88.839 48.1267 88.519 47.56 88.3056 46.92C88.0923 46.2667 87.9656 45.5733 87.9256 44.84C87.9123 44.48 87.899 44.0867 87.8856 43.66C87.8856 43.22 87.8856 42.78 87.8856 42.34C87.899 41.9 87.9123 41.4933 87.9256 41.12C87.9523 40.3867 88.079 39.7 88.3056 39.06C88.5323 38.4067 88.859 37.84 89.2856 37.36C89.7256 36.88 90.279 36.5 90.9456 36.22C91.6123 35.94 92.4056 35.8 93.3256 35.8C94.259 35.8 95.059 35.94 95.7256 36.22C96.3923 36.5 96.939 36.88 97.3656 37.36C97.8056 37.84 98.1323 38.4067 98.3456 39.06C98.5723 39.7 98.699 40.3867 98.7256 41.12C98.7523 41.4933 98.7656 41.9 98.7656 42.34C98.7656 42.78 98.7656 43.22 98.7656 43.66C98.7656 44.0867 98.7523 44.48 98.7256 44.84C98.699 45.5733 98.579 46.2667 98.3656 46.92C98.1523 47.56 97.8323 48.1267 97.4056 48.62C96.979 49.1133 96.4256 49.5 95.7456 49.78C95.079 50.06 94.2723 50.2 93.3256 50.2ZM93.3256 47.9C94.1923 47.9 94.8256 47.62 95.2256 47.06C95.639 46.4867 95.8523 45.7133 95.8656 44.74C95.8923 44.3533 95.9056 43.9667 95.9056 43.58C95.9056 43.18 95.9056 42.78 95.9056 42.38C95.9056 41.98 95.8923 41.6 95.8656 41.24C95.8523 40.2933 95.639 39.5333 95.2256 38.96C94.8256 38.3733 94.1923 38.08 93.3256 38.08C92.4723 38.08 91.839 38.3733 91.4256 38.96C91.0256 39.5333 90.8123 40.2933 90.7856 41.24C90.7856 41.6 90.779 41.98 90.7656 42.38C90.7656 42.78 90.7656 43.18 90.7656 43.58C90.779 43.9667 90.7856 44.3533 90.7856 44.74C90.8123 45.7133 91.0323 46.4867 91.4456 47.06C91.859 47.62 92.4856 47.9 93.3256 47.9ZM102.11 50C101.83 50 101.69 49.8667 101.69 49.6C101.69 49.52 101.717 49.4467 101.77 49.38L111.63 36.38C111.723 36.26 111.817 36.1667 111.91 36.1C112.003 36.0333 112.137 36 112.31 36H113.37C113.65 36 113.79 36.1333 113.79 36.4C113.79 36.48 113.763 36.5533 113.71 36.62L103.85 49.62C103.757 49.74 103.663 49.8333 103.57 49.9C103.49 49.9667 103.357 50 103.17 50H102.11ZM111.73 50.12C110.837 50.12 110.13 49.8733 109.61 49.38C109.09 48.8867 108.803 48.24 108.75 47.44C108.737 47.0933 108.73 46.7933 108.73 46.54C108.73 46.2867 108.737 45.9733 108.75 45.6C108.803 44.8 109.077 44.1533 109.57 43.66C110.077 43.1667 110.797 42.92 111.73 42.92C112.677 42.92 113.397 43.1667 113.89 43.66C114.397 44.1533 114.67 44.8 114.71 45.6C114.737 45.9733 114.75 46.2867 114.75 46.54C114.75 46.7933 114.737 47.0933 114.71 47.44C114.67 48.24 114.383 48.8867 113.85 49.38C113.33 49.8733 112.623 50.12 111.73 50.12ZM111.73 48.56C112.023 48.56 112.25 48.5 112.41 48.38C112.583 48.26 112.71 48.1067 112.79 47.92C112.87 47.7333 112.91 47.5467 112.91 47.36C112.937 47.0267 112.95 46.7467 112.95 46.52C112.95 46.28 112.937 46.0067 112.91 45.7C112.897 45.3933 112.803 45.1133 112.63 44.86C112.457 44.5933 112.157 44.46 111.73 44.46C111.317 44.46 111.023 44.5933 110.85 44.86C110.677 45.1133 110.577 45.3933 110.55 45.7C110.537 46.0067 110.53 46.28 110.53 46.52C110.53 46.7467 110.537 47.0267 110.55 47.36C110.577 47.5467 110.623 47.7333 110.69 47.92C110.77 48.1067 110.89 48.26 111.05 48.38C111.223 48.5 111.45 48.56 111.73 48.56ZM103.75 43.04C102.857 43.04 102.15 42.8067 101.63 42.34C101.11 41.8733 100.823 41.24 100.77 40.44C100.757 40.0933 100.75 39.7933 100.75 39.54C100.75 39.2733 100.757 38.9533 100.77 38.58C100.823 37.78 101.097 37.1333 101.59 36.64C102.097 36.1467 102.817 35.9 103.75 35.9C104.697 35.9 105.417 36.1467 105.91 36.64C106.417 37.1333 106.69 37.78 106.73 38.58C106.757 38.9533 106.77 39.2733 106.77 39.54C106.77 39.7933 106.757 40.0933 106.73 40.44C106.69 41.24 106.403 41.8733 105.87 42.34C105.35 42.8067 104.643 43.04 103.75 43.04ZM103.75 41.56C104.043 41.56 104.27 41.5 104.43 41.38C104.603 41.26 104.73 41.1067 104.81 40.92C104.89 40.7333 104.93 40.54 104.93 40.34C104.957 40.0067 104.97 39.7267 104.97 39.5C104.97 39.26 104.957 38.9867 104.93 38.68C104.917 38.3733 104.823 38.0933 104.65 37.84C104.477 37.5867 104.177 37.46 103.75 37.46C103.337 37.46 103.043 37.5867 102.87 37.84C102.697 38.0933 102.603 38.3733 102.59 38.68C102.577 38.9867 102.57 39.26 102.57 39.5C102.57 39.7267 102.577 40.0067 102.59 40.34C102.603 40.54 102.643 40.7333 102.71 40.92C102.79 41.1067 102.91 41.26 103.07 41.38C103.243 41.5 103.47 41.56 103.75 41.56ZM117.334 43C117.2 43 117.087 42.9533 116.994 42.86C116.9 42.7667 116.854 42.6533 116.854 42.52V40.62C116.854 40.4733 116.9 40.3533 116.994 40.26C117.087 40.1667 117.2 40.12 117.334 40.12H119.314C119.46 40.12 119.58 40.1667 119.674 40.26C119.767 40.3533 119.814 40.4733 119.814 40.62V42.52C119.814 42.6533 119.767 42.7667 119.674 42.86C119.58 42.9533 119.46 43 119.314 43H117.334ZM117.334 50C117.2 50 117.087 49.9533 116.994 49.86C116.9 49.7667 116.854 49.6533 116.854 49.52V47.62C116.854 47.4733 116.9 47.3533 116.994 47.26C117.087 47.1667 117.2 47.12 117.334 47.12H119.314C119.46 47.12 119.58 47.1667 119.674 47.26C119.767 47.3533 119.814 47.4733 119.814 47.62V49.52C119.814 49.6533 119.767 49.7667 119.674 49.86C119.58 49.9533 119.46 50 119.314 50H117.334Z" fill="#9D5B3E"/>
<path d="M128.552 50C128.432 50 128.332 49.96 128.252 49.88C128.172 49.7867 128.132 49.68 128.132 49.56C128.132 49.5067 128.146 49.4467 128.172 49.38L132.992 38.38H126.712C126.566 38.38 126.446 38.3333 126.352 38.24C126.272 38.1467 126.232 38.0333 126.232 37.9V36.5C126.232 36.3533 126.272 36.2333 126.352 36.14C126.446 36.0467 126.566 36 126.712 36H135.492C135.639 36 135.752 36.0467 135.832 36.14C135.926 36.2333 135.972 36.3533 135.972 36.5V37.74C135.972 37.9267 135.952 38.0867 135.912 38.22C135.886 38.34 135.846 38.4667 135.792 38.6L131.012 49.52C130.972 49.6133 130.899 49.72 130.792 49.84C130.699 49.9467 130.559 50 130.372 50H128.552ZM143.072 50.2C142.125 50.2 141.318 50.06 140.652 49.78C139.985 49.5 139.438 49.1133 139.012 48.62C138.585 48.1267 138.265 47.56 138.052 46.92C137.838 46.2667 137.712 45.5733 137.672 44.84C137.658 44.48 137.645 44.0867 137.632 43.66C137.632 43.22 137.632 42.78 137.632 42.34C137.645 41.9 137.658 41.4933 137.672 41.12C137.698 40.3867 137.825 39.7 138.052 39.06C138.278 38.4067 138.605 37.84 139.032 37.36C139.472 36.88 140.025 36.5 140.692 36.22C141.358 35.94 142.152 35.8 143.072 35.8C144.005 35.8 144.805 35.94 145.472 36.22C146.138 36.5 146.685 36.88 147.112 37.36C147.552 37.84 147.878 38.4067 148.092 39.06C148.318 39.7 148.445 40.3867 148.472 41.12C148.498 41.4933 148.512 41.9 148.512 42.34C148.512 42.78 148.512 43.22 148.512 43.66C148.512 44.0867 148.498 44.48 148.472 44.84C148.445 45.5733 148.325 46.2667 148.112 46.92C147.898 47.56 147.578 48.1267 147.152 48.62C146.725 49.1133 146.172 49.5 145.492 49.78C144.825 50.06 144.018 50.2 143.072 50.2ZM143.072 47.9C143.938 47.9 144.572 47.62 144.972 47.06C145.385 46.4867 145.598 45.7133 145.612 44.74C145.638 44.3533 145.652 43.9667 145.652 43.58C145.652 43.18 145.652 42.78 145.652 42.38C145.652 41.98 145.638 41.6 145.612 41.24C145.598 40.2933 145.385 39.5333 144.972 38.96C144.572 38.3733 143.938 38.08 143.072 38.08C142.218 38.08 141.585 38.3733 141.172 38.96C140.772 39.5333 140.558 40.2933 140.532 41.24C140.532 41.6 140.525 41.98 140.512 42.38C140.512 42.78 140.512 43.18 140.512 43.58C140.525 43.9667 140.532 44.3533 140.532 44.74C140.558 45.7133 140.778 46.4867 141.192 47.06C141.605 47.62 142.232 47.9 143.072 47.9ZM156.216 50.2C155.27 50.2 154.463 50.06 153.796 49.78C153.13 49.5 152.583 49.1133 152.156 48.62C151.73 48.1267 151.41 47.56 151.196 46.92C150.983 46.2667 150.856 45.5733 150.816 44.84C150.803 44.48 150.79 44.0867 150.776 43.66C150.776 43.22 150.776 42.78 150.776 42.34C150.79 41.9 150.803 41.4933 150.816 41.12C150.843 40.3867 150.97 39.7 151.196 39.06C151.423 38.4067 151.75 37.84 152.176 37.36C152.616 36.88 153.17 36.5 153.836 36.22C154.503 35.94 155.296 35.8 156.216 35.8C157.15 35.8 157.95 35.94 158.616 36.22C159.283 36.5 159.83 36.88 160.256 37.36C160.696 37.84 161.023 38.4067 161.236 39.06C161.463 39.7 161.59 40.3867 161.616 41.12C161.643 41.4933 161.656 41.9 161.656 42.34C161.656 42.78 161.656 43.22 161.656 43.66C161.656 44.0867 161.643 44.48 161.616 44.84C161.59 45.5733 161.47 46.2667 161.256 46.92C161.043 47.56 160.723 48.1267 160.296 48.62C159.87 49.1133 159.316 49.5 158.636 49.78C157.97 50.06 157.163 50.2 156.216 50.2ZM156.216 47.9C157.083 47.9 157.716 47.62 158.116 47.06C158.53 46.4867 158.743 45.7133 158.756 44.74C158.783 44.3533 158.796 43.9667 158.796 43.58C158.796 43.18 158.796 42.78 158.796 42.38C158.796 41.98 158.783 41.6 158.756 41.24C158.743 40.2933 158.53 39.5333 158.116 38.96C157.716 38.3733 157.083 38.08 156.216 38.08C155.363 38.08 154.73 38.3733 154.316 38.96C153.916 39.5333 153.703 40.2933 153.676 41.24C153.676 41.6 153.67 41.98 153.656 42.38C153.656 42.78 153.656 43.18 153.656 43.58C153.67 43.9667 153.676 44.3533 153.676 44.74C153.703 45.7133 153.923 46.4867 154.336 47.06C154.75 47.62 155.376 47.9 156.216 47.9ZM163.786 51.5C163.666 51.5 163.573 51.46 163.506 51.38C163.439 51.3 163.413 51.2 163.426 51.08L163.966 47.68C163.993 47.5067 164.053 47.36 164.146 47.24C164.253 47.1067 164.406 47.04 164.606 47.04H166.446C166.553 47.04 166.639 47.08 166.706 47.16C166.773 47.2267 166.806 47.3133 166.806 47.42C166.806 47.5133 166.786 47.6 166.746 47.68L165.466 51C165.413 51.1333 165.333 51.2467 165.226 51.34C165.133 51.4467 164.993 51.5 164.806 51.5H163.786ZM174.205 50.2C173.258 50.2 172.451 50.06 171.785 49.78C171.118 49.5 170.571 49.1133 170.145 48.62C169.718 48.1267 169.398 47.56 169.185 46.92C168.971 46.2667 168.845 45.5733 168.805 44.84C168.791 44.48 168.778 44.0867 168.765 43.66C168.765 43.22 168.765 42.78 168.765 42.34C168.778 41.9 168.791 41.4933 168.805 41.12C168.831 40.3867 168.958 39.7 169.185 39.06C169.411 38.4067 169.738 37.84 170.165 37.36C170.605 36.88 171.158 36.5 171.825 36.22C172.491 35.94 173.285 35.8 174.205 35.8C175.138 35.8 175.938 35.94 176.605 36.22C177.271 36.5 177.818 36.88 178.245 37.36C178.685 37.84 179.011 38.4067 179.225 39.06C179.451 39.7 179.578 40.3867 179.605 41.12C179.631 41.4933 179.645 41.9 179.645 42.34C179.645 42.78 179.645 43.22 179.645 43.66C179.645 44.0867 179.631 44.48 179.605 44.84C179.578 45.5733 179.458 46.2667 179.245 46.92C179.031 47.56 178.711 48.1267 178.285 48.62C177.858 49.1133 177.305 49.5 176.625 49.78C175.958 50.06 175.151 50.2 174.205 50.2ZM174.205 47.9C175.071 47.9 175.705 47.62 176.105 47.06C176.518 46.4867 176.731 45.7133 176.745 44.74C176.771 44.3533 176.785 43.9667 176.785 43.58C176.785 43.18 176.785 42.78 176.785 42.38C176.785 41.98 176.771 41.6 176.745 41.24C176.731 40.2933 176.518 39.5333 176.105 38.96C175.705 38.3733 175.071 38.08 174.205 38.08C173.351 38.08 172.718 38.3733 172.305 38.96C171.905 39.5333 171.691 40.2933 171.665 41.24C171.665 41.6 171.658 41.98 171.645 42.38C171.645 42.78 171.645 43.18 171.645 43.58C171.658 43.9667 171.665 44.3533 171.665 44.74C171.691 45.7133 171.911 46.4867 172.325 47.06C172.738 47.62 173.365 47.9 174.205 47.9ZM187.349 50.2C186.402 50.2 185.596 50.06 184.929 49.78C184.262 49.5 183.716 49.1133 183.289 48.62C182.862 48.1267 182.542 47.56 182.329 46.92C182.116 46.2667 181.989 45.5733 181.949 44.84C181.936 44.48 181.922 44.0867 181.909 43.66C181.909 43.22 181.909 42.78 181.909 42.34C181.922 41.9 181.936 41.4933 181.949 41.12C181.976 40.3867 182.102 39.7 182.329 39.06C182.556 38.4067 182.882 37.84 183.309 37.36C183.749 36.88 184.302 36.5 184.969 36.22C185.636 35.94 186.429 35.8 187.349 35.8C188.282 35.8 189.082 35.94 189.749 36.22C190.416 36.5 190.962 36.88 191.389 37.36C191.829 37.84 192.156 38.4067 192.369 39.06C192.596 39.7 192.722 40.3867 192.749 41.12C192.776 41.4933 192.789 41.9 192.789 42.34C192.789 42.78 192.789 43.22 192.789 43.66C192.789 44.0867 192.776 44.48 192.749 44.84C192.722 45.5733 192.602 46.2667 192.389 46.92C192.176 47.56 191.856 48.1267 191.429 48.62C191.002 49.1133 190.449 49.5 189.769 49.78C189.102 50.06 188.296 50.2 187.349 50.2ZM187.349 47.9C188.216 47.9 188.849 47.62 189.249 47.06C189.662 46.4867 189.876 45.7133 189.889 44.74C189.916 44.3533 189.929 43.9667 189.929 43.58C189.929 43.18 189.929 42.78 189.929 42.38C189.929 41.98 189.916 41.6 189.889 41.24C189.876 40.2933 189.662 39.5333 189.249 38.96C188.849 38.3733 188.216 38.08 187.349 38.08C186.496 38.08 185.862 38.3733 185.449 38.96C185.049 39.5333 184.836 40.2933 184.809 41.24C184.809 41.6 184.802 41.98 184.789 42.38C184.789 42.78 184.789 43.18 184.789 43.58C184.802 43.9667 184.809 44.3533 184.809 44.74C184.836 45.7133 185.056 46.4867 185.469 47.06C185.882 47.62 186.509 47.9 187.349 47.9ZM200.494 50.2C199.547 50.2 198.74 50.06 198.074 49.78C197.407 49.5 196.86 49.1133 196.434 48.62C196.007 48.1267 195.687 47.56 195.474 46.92C195.26 46.2667 195.134 45.5733 195.094 44.84C195.08 44.48 195.067 44.0867 195.054 43.66C195.054 43.22 195.054 42.78 195.054 42.34C195.067 41.9 195.08 41.4933 195.094 41.12C195.12 40.3867 195.247 39.7 195.474 39.06C195.7 38.4067 196.027 37.84 196.454 37.36C196.894 36.88 197.447 36.5 198.114 36.22C198.78 35.94 199.574 35.8 200.494 35.8C201.427 35.8 202.227 35.94 202.894 36.22C203.56 36.5 204.107 36.88 204.534 37.36C204.974 37.84 205.3 38.4067 205.514 39.06C205.74 39.7 205.867 40.3867 205.894 41.12C205.92 41.4933 205.934 41.9 205.934 42.34C205.934 42.78 205.934 43.22 205.934 43.66C205.934 44.0867 205.92 44.48 205.894 44.84C205.867 45.5733 205.747 46.2667 205.534 46.92C205.32 47.56 205 48.1267 204.574 48.62C204.147 49.1133 203.594 49.5 202.914 49.78C202.247 50.06 201.44 50.2 200.494 50.2ZM200.494 47.9C201.36 47.9 201.994 47.62 202.394 47.06C202.807 46.4867 203.02 45.7133 203.034 44.74C203.06 44.3533 203.074 43.9667 203.074 43.58C203.074 43.18 203.074 42.78 203.074 42.38C203.074 41.98 203.06 41.6 203.034 41.24C203.02 40.2933 202.807 39.5333 202.394 38.96C201.994 38.3733 201.36 38.08 200.494 38.08C199.64 38.08 199.007 38.3733 198.594 38.96C198.194 39.5333 197.98 40.2933 197.954 41.24C197.954 41.6 197.947 41.98 197.934 42.38C197.934 42.78 197.934 43.18 197.934 43.58C197.947 43.9667 197.954 44.3533 197.954 44.74C197.98 45.7133 198.2 46.4867 198.614 47.06C199.027 47.62 199.654 47.9 200.494 47.9ZM208.063 51.5C207.943 51.5 207.85 51.46 207.783 51.38C207.717 51.3 207.69 51.2 207.703 51.08L208.243 47.68C208.27 47.5067 208.33 47.36 208.423 47.24C208.53 47.1067 208.683 47.04 208.883 47.04H210.723C210.83 47.04 210.917 47.08 210.983 47.16C211.05 47.2267 211.083 47.3133 211.083 47.42C211.083 47.5133 211.063 47.6 211.023 47.68L209.743 51C209.69 51.1333 209.61 51.2467 209.503 51.34C209.41 51.4467 209.27 51.5 209.083 51.5H208.063ZM218.482 50.2C217.535 50.2 216.729 50.06 216.062 49.78C215.395 49.5 214.849 49.1133 214.422 48.62C213.995 48.1267 213.675 47.56 213.462 46.92C213.249 46.2667 213.122 45.5733 213.082 44.84C213.069 44.48 213.055 44.0867 213.042 43.66C213.042 43.22 213.042 42.78 213.042 42.34C213.055 41.9 213.069 41.4933 213.082 41.12C213.109 40.3867 213.235 39.7 213.462 39.06C213.689 38.4067 214.015 37.84 214.442 37.36C214.882 36.88 215.435 36.5 216.102 36.22C216.769 35.94 217.562 35.8 218.482 35.8C219.415 35.8 220.215 35.94 220.882 36.22C221.549 36.5 222.095 36.88 222.522 37.36C222.962 37.84 223.289 38.4067 223.502 39.06C223.729 39.7 223.855 40.3867 223.882 41.12C223.909 41.4933 223.922 41.9 223.922 42.34C223.922 42.78 223.922 43.22 223.922 43.66C223.922 44.0867 223.909 44.48 223.882 44.84C223.855 45.5733 223.735 46.2667 223.522 46.92C223.309 47.56 222.989 48.1267 222.562 48.62C222.135 49.1133 221.582 49.5 220.902 49.78C220.235 50.06 219.429 50.2 218.482 50.2ZM218.482 47.9C219.349 47.9 219.982 47.62 220.382 47.06C220.795 46.4867 221.009 45.7133 221.022 44.74C221.049 44.3533 221.062 43.9667 221.062 43.58C221.062 43.18 221.062 42.78 221.062 42.38C221.062 41.98 221.049 41.6 221.022 41.24C221.009 40.2933 220.795 39.5333 220.382 38.96C219.982 38.3733 219.349 38.08 218.482 38.08C217.629 38.08 216.995 38.3733 216.582 38.96C216.182 39.5333 215.969 40.2933 215.942 41.24C215.942 41.6 215.935 41.98 215.922 42.38C215.922 42.78 215.922 43.18 215.922 43.58C215.935 43.9667 215.942 44.3533 215.942 44.74C215.969 45.7133 216.189 46.4867 216.602 47.06C217.015 47.62 217.642 47.9 218.482 47.9ZM231.626 50.2C230.68 50.2 229.873 50.06 229.206 49.78C228.54 49.5 227.993 49.1133 227.566 48.62C227.14 48.1267 226.82 47.56 226.606 46.92C226.393 46.2667 226.266 45.5733 226.226 44.84C226.213 44.48 226.2 44.0867 226.186 43.66C226.186 43.22 226.186 42.78 226.186 42.34C226.2 41.9 226.213 41.4933 226.226 41.12C226.253 40.3867 226.38 39.7 226.606 39.06C226.833 38.4067 227.16 37.84 227.586 37.36C228.026 36.88 228.58 36.5 229.246 36.22C229.913 35.94 230.706 35.8 231.626 35.8C232.56 35.8 233.36 35.94 234.026 36.22C234.693 36.5 235.24 36.88 235.666 37.36C236.106 37.84 236.433 38.4067 236.646 39.06C236.873 39.7 237 40.3867 237.026 41.12C237.053 41.4933 237.066 41.9 237.066 42.34C237.066 42.78 237.066 43.22 237.066 43.66C237.066 44.0867 237.053 44.48 237.026 44.84C237 45.5733 236.88 46.2667 236.666 46.92C236.453 47.56 236.133 48.1267 235.706 48.62C235.28 49.1133 234.726 49.5 234.046 49.78C233.38 50.06 232.573 50.2 231.626 50.2ZM231.626 47.9C232.493 47.9 233.126 47.62 233.526 47.06C233.94 46.4867 234.153 45.7133 234.166 44.74C234.193 44.3533 234.206 43.9667 234.206 43.58C234.206 43.18 234.206 42.78 234.206 42.38C234.206 41.98 234.193 41.6 234.166 41.24C234.153 40.2933 233.94 39.5333 233.526 38.96C233.126 38.3733 232.493 38.08 231.626 38.08C230.773 38.08 230.14 38.3733 229.726 38.96C229.326 39.5333 229.113 40.2933 229.086 41.24C229.086 41.6 229.08 41.98 229.066 42.38C229.066 42.78 229.066 43.18 229.066 43.58C229.08 43.9667 229.086 44.3533 229.086 44.74C229.113 45.7133 229.333 46.4867 229.746 47.06C230.16 47.62 230.786 47.9 231.626 47.9ZM244.771 50.2C243.824 50.2 243.018 50.06 242.351 49.78C241.684 49.5 241.138 49.1133 240.711 48.62C240.284 48.1267 239.964 47.56 239.751 46.92C239.538 46.2667 239.411 45.5733 239.371 44.84C239.358 44.48 239.344 44.0867 239.331 43.66C239.331 43.22 239.331 42.78 239.331 42.34C239.344 41.9 239.358 41.4933 239.371 41.12C239.398 40.3867 239.524 39.7 239.751 39.06C239.978 38.4067 240.304 37.84 240.731 37.36C241.171 36.88 241.724 36.5 242.391 36.22C243.058 35.94 243.851 35.8 244.771 35.8C245.704 35.8 246.504 35.94 247.171 36.22C247.838 36.5 248.384 36.88 248.811 37.36C249.251 37.84 249.578 38.4067 249.791 39.06C250.018 39.7 250.144 40.3867 250.171 41.12C250.198 41.4933 250.211 41.9 250.211 42.34C250.211 42.78 250.211 43.22 250.211 43.66C250.211 44.0867 250.198 44.48 250.171 44.84C250.144 45.5733 250.024 46.2667 249.811 46.92C249.598 47.56 249.278 48.1267 248.851 48.62C248.424 49.1133 247.871 49.5 247.191 49.78C246.524 50.06 245.718 50.2 244.771 50.2ZM244.771 47.9C245.638 47.9 246.271 47.62 246.671 47.06C247.084 46.4867 247.298 45.7133 247.311 44.74C247.338 44.3533 247.351 43.9667 247.351 43.58C247.351 43.18 247.351 42.78 247.351 42.38C247.351 41.98 247.338 41.6 247.311 41.24C247.298 40.2933 247.084 39.5333 246.671 38.96C246.271 38.3733 245.638 38.08 244.771 38.08C243.918 38.08 243.284 38.3733 242.871 38.96C242.471 39.5333 242.258 40.2933 242.231 41.24C242.231 41.6 242.224 41.98 242.211 42.38C242.211 42.78 242.211 43.18 242.211 43.58C242.224 43.9667 242.231 44.3533 242.231 44.74C242.258 45.7133 242.478 46.4867 242.891 47.06C243.304 47.62 243.931 47.9 244.771 47.9ZM257.966 50C257.832 50 257.719 49.9533 257.626 49.86C257.532 49.7667 257.486 49.6533 257.486 49.52V36.5C257.486 36.3533 257.532 36.2333 257.626 36.14C257.719 36.0467 257.832 36 257.966 36H266.646C266.792 36 266.912 36.0467 267.006 36.14C267.099 36.2333 267.146 36.3533 267.146 36.5V37.9C267.146 38.0467 267.099 38.1667 267.006 38.26C266.912 38.34 266.792 38.38 266.646 38.38H260.226V42.18H266.246C266.392 42.18 266.512 42.2267 266.606 42.32C266.699 42.4133 266.746 42.5333 266.746 42.68V44.08C266.746 44.2133 266.699 44.3267 266.606 44.42C266.512 44.5133 266.392 44.56 266.246 44.56H260.226V49.52C260.226 49.6533 260.179 49.7667 260.086 49.86C259.992 49.9533 259.872 50 259.726 50H257.966ZM267.817 50C267.711 50 267.611 49.96 267.517 49.88C267.437 49.8 267.397 49.7 267.397 49.58C267.397 49.5267 267.411 49.4667 267.437 49.4L272.257 36.5C272.297 36.3667 272.371 36.2533 272.477 36.16C272.597 36.0533 272.757 36 272.957 36H275.137C275.337 36 275.491 36.0533 275.597 36.16C275.704 36.2533 275.784 36.3667 275.837 36.5L280.657 49.4C280.671 49.4667 280.677 49.5267 280.677 49.58C280.677 49.7 280.637 49.8 280.557 49.88C280.477 49.96 280.384 50 280.277 50H278.537C278.351 50 278.211 49.96 278.117 49.88C278.037 49.7867 277.984 49.7 277.957 49.62L277.017 47.18H271.077L270.137 49.62C270.111 49.7 270.051 49.7867 269.957 49.88C269.877 49.96 269.744 50 269.557 50H267.817ZM271.777 44.88H276.317L274.037 38.7L271.777 44.88ZM283.024 50C282.891 50 282.778 49.9533 282.684 49.86C282.591 49.7667 282.544 49.6533 282.544 49.52V36.48C282.544 36.3467 282.591 36.2333 282.684 36.14C282.778 36.0467 282.891 36 283.024 36H284.904C285.051 36 285.164 36.0467 285.244 36.14C285.338 36.2333 285.384 36.3467 285.384 36.48V49.52C285.384 49.6533 285.338 49.7667 285.244 49.86C285.164 49.9533 285.051 50 284.904 50H283.024Z" fill="white"/>
<path d="M52.12 159C51.9867 159 51.8733 158.953 51.78 158.86C51.6867 158.767 51.64 158.653 51.64 158.52V147.46H47.94C47.8067 147.46 47.6933 147.413 47.6 147.32C47.5067 147.227 47.46 147.113 47.46 146.98V145.5C47.46 145.353 47.5067 145.233 47.6 145.14C47.6933 145.047 47.8067 145 47.94 145H58.14C58.2867 145 58.4067 145.047 58.5 145.14C58.5933 145.233 58.64 145.353 58.64 145.5V146.98C58.64 147.113 58.5933 147.227 58.5 147.32C58.4067 147.413 58.2867 147.46 58.14 147.46H54.46V158.52C54.46 158.653 54.4133 158.767 54.32 158.86C54.2267 158.953 54.1067 159 53.96 159H52.12ZM63.0734 159.2C61.5934 159.2 60.4201 158.773 59.5534 157.92C58.6868 157.067 58.2201 155.853 58.1534 154.28C58.1401 154.147 58.1334 153.98 58.1334 153.78C58.1334 153.567 58.1401 153.4 58.1534 153.28C58.2068 152.28 58.4334 151.413 58.8334 150.68C59.2468 149.947 59.8134 149.387 60.5334 149C61.2534 148.6 62.1001 148.4 63.0734 148.4C64.1534 148.4 65.0601 148.627 65.7934 149.08C66.5268 149.52 67.0801 150.14 67.4534 150.94C67.8268 151.727 68.0134 152.64 68.0134 153.68V154.1C68.0134 154.233 67.9668 154.347 67.8734 154.44C67.7801 154.533 67.6601 154.58 67.5134 154.58H60.8734C60.8734 154.58 60.8734 154.6 60.8734 154.64C60.8734 154.68 60.8734 154.713 60.8734 154.74C60.8868 155.207 60.9734 155.64 61.1334 156.04C61.3068 156.427 61.5534 156.74 61.8734 156.98C62.2068 157.22 62.6001 157.34 63.0534 157.34C63.4268 157.34 63.7401 157.287 63.9934 157.18C64.2468 157.06 64.4534 156.927 64.6134 156.78C64.7734 156.633 64.8868 156.513 64.9534 156.42C65.0734 156.26 65.1668 156.167 65.2334 156.14C65.3134 156.1 65.4268 156.08 65.5734 156.08H67.2934C67.4268 156.08 67.5334 156.12 67.6134 156.2C67.7068 156.28 67.7468 156.38 67.7334 156.5C67.7201 156.713 67.6068 156.973 67.3934 157.28C67.1934 157.587 66.9001 157.887 66.5134 158.18C66.1268 158.473 65.6401 158.72 65.0534 158.92C64.4801 159.107 63.8201 159.2 63.0734 159.2ZM60.8734 152.9H65.2934V152.84C65.2934 152.32 65.2068 151.867 65.0334 151.48C64.8601 151.093 64.6068 150.787 64.2734 150.56C63.9401 150.333 63.5401 150.22 63.0734 150.22C62.6068 150.22 62.2068 150.333 61.8734 150.56C61.5401 150.787 61.2868 151.093 61.1134 151.48C60.9534 151.867 60.8734 152.32 60.8734 152.84V152.9ZM73.1564 159.2C72.4631 159.2 71.8364 159.067 71.2764 158.8C70.7164 158.52 70.2697 158.153 69.9364 157.7C69.6164 157.233 69.4564 156.713 69.4564 156.14C69.4564 155.207 69.8297 154.467 70.5764 153.92C71.3364 153.36 72.3364 152.987 73.5764 152.8L76.3164 152.4V151.98C76.3164 151.42 76.1764 150.987 75.8964 150.68C75.6164 150.373 75.1364 150.22 74.4564 150.22C73.9764 150.22 73.5831 150.32 73.2764 150.52C72.9831 150.707 72.7631 150.96 72.6164 151.28C72.5097 151.453 72.3564 151.54 72.1564 151.54H70.5764C70.4297 151.54 70.3164 151.5 70.2364 151.42C70.1697 151.34 70.1364 151.233 70.1364 151.1C70.1497 150.887 70.2364 150.627 70.3964 150.32C70.5564 150.013 70.8097 149.72 71.1564 149.44C71.5031 149.147 71.9497 148.9 72.4964 148.7C73.0431 148.5 73.7031 148.4 74.4764 148.4C75.3164 148.4 76.0231 148.507 76.5964 148.72C77.1831 148.92 77.6497 149.193 77.9964 149.54C78.3431 149.887 78.5964 150.293 78.7564 150.76C78.9164 151.227 78.9964 151.72 78.9964 152.24V158.52C78.9964 158.653 78.9497 158.767 78.8564 158.86C78.7631 158.953 78.6497 159 78.5164 159H76.8964C76.7497 159 76.6297 158.953 76.5364 158.86C76.4564 158.767 76.4164 158.653 76.4164 158.52V157.74C76.2431 157.993 76.0097 158.233 75.7164 158.46C75.4231 158.673 75.0631 158.853 74.6364 159C74.2231 159.133 73.7297 159.2 73.1564 159.2ZM73.8364 157.3C74.3031 157.3 74.7231 157.2 75.0964 157C75.4831 156.8 75.7831 156.493 75.9964 156.08C76.2231 155.653 76.3364 155.12 76.3364 154.48V154.06L74.3364 154.38C73.5497 154.5 72.9631 154.693 72.5764 154.96C72.1897 155.227 71.9964 155.553 71.9964 155.94C71.9964 156.233 72.0831 156.487 72.2564 156.7C72.4431 156.9 72.6764 157.053 72.9564 157.16C73.2364 157.253 73.5297 157.3 73.8364 157.3ZM82.0422 159C81.9089 159 81.7955 158.953 81.7022 158.86C81.6089 158.767 81.5622 158.653 81.5622 158.52V149.08C81.5622 148.947 81.6089 148.833 81.7022 148.74C81.7955 148.647 81.9089 148.6 82.0422 148.6H83.6022C83.7355 148.6 83.8489 148.647 83.9422 148.74C84.0355 148.833 84.0822 148.947 84.0822 149.08V149.76C84.3622 149.387 84.7355 149.073 85.2022 148.82C85.6822 148.553 86.2489 148.413 86.9022 148.4C88.4222 148.373 89.4822 148.967 90.0822 150.18C90.3889 149.647 90.8289 149.22 91.4022 148.9C91.9889 148.567 92.6355 148.4 93.3422 148.4C94.0355 148.4 94.6622 148.56 95.2222 148.88C95.7955 149.2 96.2422 149.687 96.5622 150.34C96.8955 150.98 97.0622 151.793 97.0622 152.78V158.52C97.0622 158.653 97.0155 158.767 96.9222 158.86C96.8289 158.953 96.7155 159 96.5822 159H94.9422C94.8089 159 94.6955 158.953 94.6022 158.86C94.5089 158.767 94.4622 158.653 94.4622 158.52V152.94C94.4622 152.34 94.3755 151.867 94.2022 151.52C94.0289 151.16 93.7955 150.907 93.5022 150.76C93.2089 150.613 92.8822 150.54 92.5222 150.54C92.2289 150.54 91.9355 150.613 91.6422 150.76C91.3489 150.907 91.1089 151.16 90.9222 151.52C90.7355 151.867 90.6422 152.34 90.6422 152.94V158.52C90.6422 158.653 90.5955 158.767 90.5022 158.86C90.4089 158.953 90.2955 159 90.1622 159H88.5222C88.3755 159 88.2555 158.953 88.1622 158.86C88.0822 158.767 88.0422 158.653 88.0422 158.52V152.94C88.0422 152.34 87.9489 151.867 87.7622 151.52C87.5755 151.16 87.3355 150.907 87.0422 150.76C86.7489 150.613 86.4355 150.54 86.1022 150.54C85.7955 150.54 85.4955 150.62 85.2022 150.78C84.9089 150.927 84.6689 151.173 84.4822 151.52C84.2955 151.867 84.2022 152.34 84.2022 152.94V158.52C84.2022 158.653 84.1555 158.767 84.0622 158.86C83.9689 158.953 83.8555 159 83.7222 159H82.0422ZM104.239 159C104.106 159 103.993 158.953 103.899 158.86C103.806 158.767 103.759 158.653 103.759 158.52V157.5C103.759 157.38 103.786 157.24 103.839 157.08C103.906 156.907 104.046 156.733 104.259 156.56L107.419 153.42C108.299 152.727 109.006 152.14 109.539 151.66C110.086 151.167 110.479 150.72 110.719 150.32C110.973 149.907 111.099 149.5 111.099 149.1C111.099 148.5 110.933 148.013 110.599 147.64C110.279 147.267 109.766 147.08 109.059 147.08C108.593 147.08 108.199 147.18 107.879 147.38C107.559 147.567 107.306 147.82 107.119 148.14C106.946 148.46 106.826 148.813 106.759 149.2C106.733 149.373 106.659 149.493 106.539 149.56C106.419 149.627 106.299 149.66 106.179 149.66H104.399C104.279 149.66 104.179 149.62 104.099 149.54C104.019 149.46 103.979 149.367 103.979 149.26C103.993 148.687 104.113 148.133 104.339 147.6C104.566 147.053 104.893 146.573 105.319 146.16C105.759 145.733 106.293 145.393 106.919 145.14C107.546 144.887 108.253 144.76 109.039 144.76C110.146 144.76 111.059 144.947 111.779 145.32C112.513 145.693 113.059 146.2 113.419 146.84C113.793 147.48 113.979 148.2 113.979 149C113.979 149.627 113.859 150.207 113.619 150.74C113.379 151.26 113.033 151.767 112.579 152.26C112.126 152.74 111.579 153.233 110.939 153.74L108.099 156.62H113.799C113.946 156.62 114.059 156.667 114.139 156.76C114.233 156.84 114.279 156.953 114.279 157.1V158.52C114.279 158.653 114.233 158.767 114.139 158.86C114.059 158.953 113.946 159 113.799 159H104.239ZM121.802 159.2C120.856 159.2 120.049 159.06 119.382 158.78C118.716 158.5 118.169 158.113 117.742 157.62C117.316 157.127 116.996 156.56 116.782 155.92C116.569 155.267 116.442 154.573 116.402 153.84C116.389 153.48 116.376 153.087 116.362 152.66C116.362 152.22 116.362 151.78 116.362 151.34C116.376 150.9 116.389 150.493 116.402 150.12C116.429 149.387 116.556 148.7 116.782 148.06C117.009 147.407 117.336 146.84 117.762 146.36C118.202 145.88 118.756 145.5 119.422 145.22C120.089 144.94 120.882 144.8 121.802 144.8C122.736 144.8 123.536 144.94 124.202 145.22C124.869 145.5 125.416 145.88 125.842 146.36C126.282 146.84 126.609 147.407 126.822 148.06C127.049 148.7 127.176 149.387 127.202 150.12C127.229 150.493 127.242 150.9 127.242 151.34C127.242 151.78 127.242 152.22 127.242 152.66C127.242 153.087 127.229 153.48 127.202 153.84C127.176 154.573 127.056 155.267 126.842 155.92C126.629 156.56 126.309 157.127 125.882 157.62C125.456 158.113 124.902 158.5 124.222 158.78C123.556 159.06 122.749 159.2 121.802 159.2ZM121.802 156.9C122.669 156.9 123.302 156.62 123.702 156.06C124.116 155.487 124.329 154.713 124.342 153.74C124.369 153.353 124.382 152.967 124.382 152.58C124.382 152.18 124.382 151.78 124.382 151.38C124.382 150.98 124.369 150.6 124.342 150.24C124.329 149.293 124.116 148.533 123.702 147.96C123.302 147.373 122.669 147.08 121.802 147.08C120.949 147.08 120.316 147.373 119.902 147.96C119.502 148.533 119.289 149.293 119.262 150.24C119.262 150.6 119.256 150.98 119.242 151.38C119.242 151.78 119.242 152.18 119.242 152.58C119.256 152.967 119.262 153.353 119.262 153.74C119.289 154.713 119.509 155.487 119.922 156.06C120.336 156.62 120.962 156.9 121.802 156.9ZM130.587 159C130.307 159 130.167 158.867 130.167 158.6C130.167 158.52 130.193 158.447 130.247 158.38L140.107 145.38C140.2 145.26 140.293 145.167 140.387 145.1C140.48 145.033 140.613 145 140.787 145H141.847C142.127 145 142.267 145.133 142.267 145.4C142.267 145.48 142.24 145.553 142.187 145.62L132.327 158.62C132.233 158.74 132.14 158.833 132.047 158.9C131.967 158.967 131.833 159 131.647 159H130.587ZM140.207 159.12C139.313 159.12 138.607 158.873 138.087 158.38C137.567 157.887 137.28 157.24 137.227 156.44C137.213 156.093 137.207 155.793 137.207 155.54C137.207 155.287 137.213 154.973 137.227 154.6C137.28 153.8 137.553 153.153 138.047 152.66C138.553 152.167 139.273 151.92 140.207 151.92C141.153 151.92 141.873 152.167 142.367 152.66C142.873 153.153 143.147 153.8 143.187 154.6C143.213 154.973 143.227 155.287 143.227 155.54C143.227 155.793 143.213 156.093 143.187 156.44C143.147 157.24 142.86 157.887 142.327 158.38C141.807 158.873 141.1 159.12 140.207 159.12ZM140.207 157.56C140.5 157.56 140.727 157.5 140.887 157.38C141.06 157.26 141.187 157.107 141.267 156.92C141.347 156.733 141.387 156.547 141.387 156.36C141.413 156.027 141.427 155.747 141.427 155.52C141.427 155.28 141.413 155.007 141.387 154.7C141.373 154.393 141.28 154.113 141.107 153.86C140.933 153.593 140.633 153.46 140.207 153.46C139.793 153.46 139.5 153.593 139.327 153.86C139.153 154.113 139.053 154.393 139.027 154.7C139.013 155.007 139.007 155.28 139.007 155.52C139.007 155.747 139.013 156.027 139.027 156.36C139.053 156.547 139.1 156.733 139.167 156.92C139.247 157.107 139.367 157.26 139.527 157.38C139.7 157.5 139.927 157.56 140.207 157.56ZM132.227 152.04C131.333 152.04 130.627 151.807 130.107 151.34C129.587 150.873 129.3 150.24 129.247 149.44C129.233 149.093 129.227 148.793 129.227 148.54C129.227 148.273 129.233 147.953 129.247 147.58C129.3 146.78 129.573 146.133 130.067 145.64C130.573 145.147 131.293 144.9 132.227 144.9C133.173 144.9 133.893 145.147 134.387 145.64C134.893 146.133 135.167 146.78 135.207 147.58C135.233 147.953 135.247 148.273 135.247 148.54C135.247 148.793 135.233 149.093 135.207 149.44C135.167 150.24 134.88 150.873 134.347 151.34C133.827 151.807 133.12 152.04 132.227 152.04ZM132.227 150.56C132.52 150.56 132.747 150.5 132.907 150.38C133.08 150.26 133.207 150.107 133.287 149.92C133.367 149.733 133.407 149.54 133.407 149.34C133.433 149.007 133.447 148.727 133.447 148.5C133.447 148.26 133.433 147.987 133.407 147.68C133.393 147.373 133.3 147.093 133.127 146.84C132.953 146.587 132.653 146.46 132.227 146.46C131.813 146.46 131.52 146.587 131.347 146.84C131.173 147.093 131.08 147.373 131.067 147.68C131.053 147.987 131.047 148.26 131.047 148.5C131.047 148.727 131.053 149.007 131.067 149.34C131.08 149.54 131.12 149.733 131.187 149.92C131.267 150.107 131.387 150.26 131.547 150.38C131.72 150.5 131.947 150.56 132.227 150.56ZM145.81 152C145.677 152 145.564 151.953 145.47 151.86C145.377 151.767 145.33 151.653 145.33 151.52V149.62C145.33 149.473 145.377 149.353 145.47 149.26C145.564 149.167 145.677 149.12 145.81 149.12H147.79C147.937 149.12 148.057 149.167 148.15 149.26C148.244 149.353 148.29 149.473 148.29 149.62V151.52C148.29 151.653 148.244 151.767 148.15 151.86C148.057 151.953 147.937 152 147.79 152H145.81ZM145.81 159C145.677 159 145.564 158.953 145.47 158.86C145.377 158.767 145.33 158.653 145.33 158.52V156.62C145.33 156.473 145.377 156.353 145.47 156.26C145.564 156.167 145.677 156.12 145.81 156.12H147.79C147.937 156.12 148.057 156.167 148.15 156.26C148.244 156.353 148.29 156.473 148.29 156.62V158.52C148.29 158.653 148.244 158.767 148.15 158.86C148.057 158.953 147.937 159 147.79 159H145.81Z" fill="#DEA617"/>
<path d="M155.509 159C155.376 159 155.262 158.953 155.169 158.86C155.076 158.767 155.029 158.653 155.029 158.52V157.5C155.029 157.38 155.056 157.24 155.109 157.08C155.176 156.907 155.316 156.733 155.529 156.56L158.689 153.42C159.569 152.727 160.276 152.14 160.809 151.66C161.356 151.167 161.749 150.72 161.989 150.32C162.242 149.907 162.369 149.5 162.369 149.1C162.369 148.5 162.202 148.013 161.869 147.64C161.549 147.267 161.036 147.08 160.329 147.08C159.862 147.08 159.469 147.18 159.149 147.38C158.829 147.567 158.576 147.82 158.389 148.14C158.216 148.46 158.096 148.813 158.029 149.2C158.002 149.373 157.929 149.493 157.809 149.56C157.689 149.627 157.569 149.66 157.449 149.66H155.669C155.549 149.66 155.449 149.62 155.369 149.54C155.289 149.46 155.249 149.367 155.249 149.26C155.262 148.687 155.382 148.133 155.609 147.6C155.836 147.053 156.162 146.573 156.589 146.16C157.029 145.733 157.562 145.393 158.189 145.14C158.816 144.887 159.522 144.76 160.309 144.76C161.416 144.76 162.329 144.947 163.049 145.32C163.782 145.693 164.329 146.2 164.689 146.84C165.062 147.48 165.249 148.2 165.249 149C165.249 149.627 165.129 150.207 164.889 150.74C164.649 151.26 164.302 151.767 163.849 152.26C163.396 152.74 162.849 153.233 162.209 153.74L159.369 156.62H165.069C165.216 156.62 165.329 156.667 165.409 156.76C165.502 156.84 165.549 156.953 165.549 157.1V158.52C165.549 158.653 165.502 158.767 165.409 158.86C165.329 158.953 165.216 159 165.069 159H155.509ZM173.072 159.2C172.125 159.2 171.318 159.06 170.652 158.78C169.985 158.5 169.438 158.113 169.012 157.62C168.585 157.127 168.265 156.56 168.052 155.92C167.838 155.267 167.712 154.573 167.672 153.84C167.658 153.48 167.645 153.087 167.632 152.66C167.632 152.22 167.632 151.78 167.632 151.34C167.645 150.9 167.658 150.493 167.672 150.12C167.698 149.387 167.825 148.7 168.052 148.06C168.278 147.407 168.605 146.84 169.032 146.36C169.472 145.88 170.025 145.5 170.692 145.22C171.358 144.94 172.152 144.8 173.072 144.8C174.005 144.8 174.805 144.94 175.472 145.22C176.138 145.5 176.685 145.88 177.112 146.36C177.552 146.84 177.878 147.407 178.092 148.06C178.318 148.7 178.445 149.387 178.472 150.12C178.498 150.493 178.512 150.9 178.512 151.34C178.512 151.78 178.512 152.22 178.512 152.66C178.512 153.087 178.498 153.48 178.472 153.84C178.445 154.573 178.325 155.267 178.112 155.92C177.898 156.56 177.578 157.127 177.152 157.62C176.725 158.113 176.172 158.5 175.492 158.78C174.825 159.06 174.018 159.2 173.072 159.2ZM173.072 156.9C173.938 156.9 174.572 156.62 174.972 156.06C175.385 155.487 175.598 154.713 175.612 153.74C175.638 153.353 175.652 152.967 175.652 152.58C175.652 152.18 175.652 151.78 175.652 151.38C175.652 150.98 175.638 150.6 175.612 150.24C175.598 149.293 175.385 148.533 174.972 147.96C174.572 147.373 173.938 147.08 173.072 147.08C172.218 147.08 171.585 147.373 171.172 147.96C170.772 148.533 170.558 149.293 170.532 150.24C170.532 150.6 170.525 150.98 170.512 151.38C170.512 151.78 170.512 152.18 170.512 152.58C170.525 152.967 170.532 153.353 170.532 153.74C170.558 154.713 170.778 155.487 171.192 156.06C171.605 156.62 172.232 156.9 173.072 156.9ZM186.216 159.2C185.27 159.2 184.463 159.06 183.796 158.78C183.13 158.5 182.583 158.113 182.156 157.62C181.73 157.127 181.41 156.56 181.196 155.92C180.983 155.267 180.856 154.573 180.816 153.84C180.803 153.48 180.79 153.087 180.776 152.66C180.776 152.22 180.776 151.78 180.776 151.34C180.79 150.9 180.803 150.493 180.816 150.12C180.843 149.387 180.97 148.7 181.196 148.06C181.423 147.407 181.75 146.84 182.176 146.36C182.616 145.88 183.17 145.5 183.836 145.22C184.503 144.94 185.296 144.8 186.216 144.8C187.15 144.8 187.95 144.94 188.616 145.22C189.283 145.5 189.83 145.88 190.256 146.36C190.696 146.84 191.023 147.407 191.236 148.06C191.463 148.7 191.59 149.387 191.616 150.12C191.643 150.493 191.656 150.9 191.656 151.34C191.656 151.78 191.656 152.22 191.656 152.66C191.656 153.087 191.643 153.48 191.616 153.84C191.59 154.573 191.47 155.267 191.256 155.92C191.043 156.56 190.723 157.127 190.296 157.62C189.87 158.113 189.316 158.5 188.636 158.78C187.97 159.06 187.163 159.2 186.216 159.2ZM186.216 156.9C187.083 156.9 187.716 156.62 188.116 156.06C188.53 155.487 188.743 154.713 188.756 153.74C188.783 153.353 188.796 152.967 188.796 152.58C188.796 152.18 188.796 151.78 188.796 151.38C188.796 150.98 188.783 150.6 188.756 150.24C188.743 149.293 188.53 148.533 188.116 147.96C187.716 147.373 187.083 147.08 186.216 147.08C185.363 147.08 184.73 147.373 184.316 147.96C183.916 148.533 183.703 149.293 183.676 150.24C183.676 150.6 183.67 150.98 183.656 151.38C183.656 151.78 183.656 152.18 183.656 152.58C183.67 152.967 183.676 153.353 183.676 153.74C183.703 154.713 183.923 155.487 184.336 156.06C184.75 156.62 185.376 156.9 186.216 156.9ZM193.786 160.5C193.666 160.5 193.573 160.46 193.506 160.38C193.439 160.3 193.413 160.2 193.426 160.08L193.966 156.68C193.993 156.507 194.053 156.36 194.146 156.24C194.253 156.107 194.406 156.04 194.606 156.04H196.446C196.553 156.04 196.639 156.08 196.706 156.16C196.773 156.227 196.806 156.313 196.806 156.42C196.806 156.513 196.786 156.6 196.746 156.68L195.466 160C195.413 160.133 195.333 160.247 195.226 160.34C195.133 160.447 194.993 160.5 194.806 160.5H193.786ZM204.205 159.2C203.258 159.2 202.451 159.06 201.785 158.78C201.118 158.5 200.571 158.113 200.145 157.62C199.718 157.127 199.398 156.56 199.185 155.92C198.971 155.267 198.845 154.573 198.805 153.84C198.791 153.48 198.778 153.087 198.765 152.66C198.765 152.22 198.765 151.78 198.765 151.34C198.778 150.9 198.791 150.493 198.805 150.12C198.831 149.387 198.958 148.7 199.185 148.06C199.411 147.407 199.738 146.84 200.165 146.36C200.605 145.88 201.158 145.5 201.825 145.22C202.491 144.94 203.285 144.8 204.205 144.8C205.138 144.8 205.938 144.94 206.605 145.22C207.271 145.5 207.818 145.88 208.245 146.36C208.685 146.84 209.011 147.407 209.225 148.06C209.451 148.7 209.578 149.387 209.605 150.12C209.631 150.493 209.645 150.9 209.645 151.34C209.645 151.78 209.645 152.22 209.645 152.66C209.645 153.087 209.631 153.48 209.605 153.84C209.578 154.573 209.458 155.267 209.245 155.92C209.031 156.56 208.711 157.127 208.285 157.62C207.858 158.113 207.305 158.5 206.625 158.78C205.958 159.06 205.151 159.2 204.205 159.2ZM204.205 156.9C205.071 156.9 205.705 156.62 206.105 156.06C206.518 155.487 206.731 154.713 206.745 153.74C206.771 153.353 206.785 152.967 206.785 152.58C206.785 152.18 206.785 151.78 206.785 151.38C206.785 150.98 206.771 150.6 206.745 150.24C206.731 149.293 206.518 148.533 206.105 147.96C205.705 147.373 205.071 147.08 204.205 147.08C203.351 147.08 202.718 147.373 202.305 147.96C201.905 148.533 201.691 149.293 201.665 150.24C201.665 150.6 201.658 150.98 201.645 151.38C201.645 151.78 201.645 152.18 201.645 152.58C201.658 152.967 201.665 153.353 201.665 153.74C201.691 154.713 201.911 155.487 202.325 156.06C202.738 156.62 203.365 156.9 204.205 156.9ZM217.349 159.2C216.402 159.2 215.596 159.06 214.929 158.78C214.262 158.5 213.716 158.113 213.289 157.62C212.862 157.127 212.542 156.56 212.329 155.92C212.116 155.267 211.989 154.573 211.949 153.84C211.936 153.48 211.922 153.087 211.909 152.66C211.909 152.22 211.909 151.78 211.909 151.34C211.922 150.9 211.936 150.493 211.949 150.12C211.976 149.387 212.102 148.7 212.329 148.06C212.556 147.407 212.882 146.84 213.309 146.36C213.749 145.88 214.302 145.5 214.969 145.22C215.636 144.94 216.429 144.8 217.349 144.8C218.282 144.8 219.082 144.94 219.749 145.22C220.416 145.5 220.962 145.88 221.389 146.36C221.829 146.84 222.156 147.407 222.369 148.06C222.596 148.7 222.722 149.387 222.749 150.12C222.776 150.493 222.789 150.9 222.789 151.34C222.789 151.78 222.789 152.22 222.789 152.66C222.789 153.087 222.776 153.48 222.749 153.84C222.722 154.573 222.602 155.267 222.389 155.92C222.176 156.56 221.856 157.127 221.429 157.62C221.002 158.113 220.449 158.5 219.769 158.78C219.102 159.06 218.296 159.2 217.349 159.2ZM217.349 156.9C218.216 156.9 218.849 156.62 219.249 156.06C219.662 155.487 219.876 154.713 219.889 153.74C219.916 153.353 219.929 152.967 219.929 152.58C219.929 152.18 219.929 151.78 219.929 151.38C219.929 150.98 219.916 150.6 219.889 150.24C219.876 149.293 219.662 148.533 219.249 147.96C218.849 147.373 218.216 147.08 217.349 147.08C216.496 147.08 215.862 147.373 215.449 147.96C215.049 148.533 214.836 149.293 214.809 150.24C214.809 150.6 214.802 150.98 214.789 151.38C214.789 151.78 214.789 152.18 214.789 152.58C214.802 152.967 214.809 153.353 214.809 153.74C214.836 154.713 215.056 155.487 215.469 156.06C215.882 156.62 216.509 156.9 217.349 156.9ZM230.494 159.2C229.547 159.2 228.74 159.06 228.074 158.78C227.407 158.5 226.86 158.113 226.434 157.62C226.007 157.127 225.687 156.56 225.474 155.92C225.26 155.267 225.134 154.573 225.094 153.84C225.08 153.48 225.067 153.087 225.054 152.66C225.054 152.22 225.054 151.78 225.054 151.34C225.067 150.9 225.08 150.493 225.094 150.12C225.12 149.387 225.247 148.7 225.474 148.06C225.7 147.407 226.027 146.84 226.454 146.36C226.894 145.88 227.447 145.5 228.114 145.22C228.78 144.94 229.574 144.8 230.494 144.8C231.427 144.8 232.227 144.94 232.894 145.22C233.56 145.5 234.107 145.88 234.534 146.36C234.974 146.84 235.3 147.407 235.514 148.06C235.74 148.7 235.867 149.387 235.894 150.12C235.92 150.493 235.934 150.9 235.934 151.34C235.934 151.78 235.934 152.22 235.934 152.66C235.934 153.087 235.92 153.48 235.894 153.84C235.867 154.573 235.747 155.267 235.534 155.92C235.32 156.56 235 157.127 234.574 157.62C234.147 158.113 233.594 158.5 232.914 158.78C232.247 159.06 231.44 159.2 230.494 159.2ZM230.494 156.9C231.36 156.9 231.994 156.62 232.394 156.06C232.807 155.487 233.02 154.713 233.034 153.74C233.06 153.353 233.074 152.967 233.074 152.58C233.074 152.18 233.074 151.78 233.074 151.38C233.074 150.98 233.06 150.6 233.034 150.24C233.02 149.293 232.807 148.533 232.394 147.96C231.994 147.373 231.36 147.08 230.494 147.08C229.64 147.08 229.007 147.373 228.594 147.96C228.194 148.533 227.98 149.293 227.954 150.24C227.954 150.6 227.947 150.98 227.934 151.38C227.934 151.78 227.934 152.18 227.934 152.58C227.947 152.967 227.954 153.353 227.954 153.74C227.98 154.713 228.2 155.487 228.614 156.06C229.027 156.62 229.654 156.9 230.494 156.9ZM238.063 160.5C237.943 160.5 237.85 160.46 237.783 160.38C237.717 160.3 237.69 160.2 237.703 160.08L238.243 156.68C238.27 156.507 238.33 156.36 238.423 156.24C238.53 156.107 238.683 156.04 238.883 156.04H240.723C240.83 156.04 240.917 156.08 240.983 156.16C241.05 156.227 241.083 156.313 241.083 156.42C241.083 156.513 241.063 156.6 241.023 156.68L239.743 160C239.69 160.133 239.61 160.247 239.503 160.34C239.41 160.447 239.27 160.5 239.083 160.5H238.063ZM248.482 159.2C247.535 159.2 246.729 159.06 246.062 158.78C245.395 158.5 244.849 158.113 244.422 157.62C243.995 157.127 243.675 156.56 243.462 155.92C243.249 155.267 243.122 154.573 243.082 153.84C243.069 153.48 243.055 153.087 243.042 152.66C243.042 152.22 243.042 151.78 243.042 151.34C243.055 150.9 243.069 150.493 243.082 150.12C243.109 149.387 243.235 148.7 243.462 148.06C243.689 147.407 244.015 146.84 244.442 146.36C244.882 145.88 245.435 145.5 246.102 145.22C246.769 144.94 247.562 144.8 248.482 144.8C249.415 144.8 250.215 144.94 250.882 145.22C251.549 145.5 252.095 145.88 252.522 146.36C252.962 146.84 253.289 147.407 253.502 148.06C253.729 148.7 253.855 149.387 253.882 150.12C253.909 150.493 253.922 150.9 253.922 151.34C253.922 151.78 253.922 152.22 253.922 152.66C253.922 153.087 253.909 153.48 253.882 153.84C253.855 154.573 253.735 155.267 253.522 155.92C253.309 156.56 252.989 157.127 252.562 157.62C252.135 158.113 251.582 158.5 250.902 158.78C250.235 159.06 249.429 159.2 248.482 159.2ZM248.482 156.9C249.349 156.9 249.982 156.62 250.382 156.06C250.795 155.487 251.009 154.713 251.022 153.74C251.049 153.353 251.062 152.967 251.062 152.58C251.062 152.18 251.062 151.78 251.062 151.38C251.062 150.98 251.049 150.6 251.022 150.24C251.009 149.293 250.795 148.533 250.382 147.96C249.982 147.373 249.349 147.08 248.482 147.08C247.629 147.08 246.995 147.373 246.582 147.96C246.182 148.533 245.969 149.293 245.942 150.24C245.942 150.6 245.935 150.98 245.922 151.38C245.922 151.78 245.922 152.18 245.922 152.58C245.935 152.967 245.942 153.353 245.942 153.74C245.969 154.713 246.189 155.487 246.602 156.06C247.015 156.62 247.642 156.9 248.482 156.9ZM261.626 159.2C260.68 159.2 259.873 159.06 259.206 158.78C258.54 158.5 257.993 158.113 257.566 157.62C257.14 157.127 256.82 156.56 256.606 155.92C256.393 155.267 256.266 154.573 256.226 153.84C256.213 153.48 256.2 153.087 256.186 152.66C256.186 152.22 256.186 151.78 256.186 151.34C256.2 150.9 256.213 150.493 256.226 150.12C256.253 149.387 256.38 148.7 256.606 148.06C256.833 147.407 257.16 146.84 257.586 146.36C258.026 145.88 258.58 145.5 259.246 145.22C259.913 144.94 260.706 144.8 261.626 144.8C262.56 144.8 263.36 144.94 264.026 145.22C264.693 145.5 265.24 145.88 265.666 146.36C266.106 146.84 266.433 147.407 266.646 148.06C266.873 148.7 267 149.387 267.026 150.12C267.053 150.493 267.066 150.9 267.066 151.34C267.066 151.78 267.066 152.22 267.066 152.66C267.066 153.087 267.053 153.48 267.026 153.84C267 154.573 266.88 155.267 266.666 155.92C266.453 156.56 266.133 157.127 265.706 157.62C265.28 158.113 264.726 158.5 264.046 158.78C263.38 159.06 262.573 159.2 261.626 159.2ZM261.626 156.9C262.493 156.9 263.126 156.62 263.526 156.06C263.94 155.487 264.153 154.713 264.166 153.74C264.193 153.353 264.206 152.967 264.206 152.58C264.206 152.18 264.206 151.78 264.206 151.38C264.206 150.98 264.193 150.6 264.166 150.24C264.153 149.293 263.94 148.533 263.526 147.96C263.126 147.373 262.493 147.08 261.626 147.08C260.773 147.08 260.14 147.373 259.726 147.96C259.326 148.533 259.113 149.293 259.086 150.24C259.086 150.6 259.08 150.98 259.066 151.38C259.066 151.78 259.066 152.18 259.066 152.58C259.08 152.967 259.086 153.353 259.086 153.74C259.113 154.713 259.333 155.487 259.746 156.06C260.16 156.62 260.786 156.9 261.626 156.9ZM274.771 159.2C273.824 159.2 273.018 159.06 272.351 158.78C271.684 158.5 271.138 158.113 270.711 157.62C270.284 157.127 269.964 156.56 269.751 155.92C269.538 155.267 269.411 154.573 269.371 153.84C269.358 153.48 269.344 153.087 269.331 152.66C269.331 152.22 269.331 151.78 269.331 151.34C269.344 150.9 269.358 150.493 269.371 150.12C269.398 149.387 269.524 148.7 269.751 148.06C269.978 147.407 270.304 146.84 270.731 146.36C271.171 145.88 271.724 145.5 272.391 145.22C273.058 144.94 273.851 144.8 274.771 144.8C275.704 144.8 276.504 144.94 277.171 145.22C277.838 145.5 278.384 145.88 278.811 146.36C279.251 146.84 279.578 147.407 279.791 148.06C280.018 148.7 280.144 149.387 280.171 150.12C280.198 150.493 280.211 150.9 280.211 151.34C280.211 151.78 280.211 152.22 280.211 152.66C280.211 153.087 280.198 153.48 280.171 153.84C280.144 154.573 280.024 155.267 279.811 155.92C279.598 156.56 279.278 157.127 278.851 157.62C278.424 158.113 277.871 158.5 277.191 158.78C276.524 159.06 275.718 159.2 274.771 159.2ZM274.771 156.9C275.638 156.9 276.271 156.62 276.671 156.06C277.084 155.487 277.298 154.713 277.311 153.74C277.338 153.353 277.351 152.967 277.351 152.58C277.351 152.18 277.351 151.78 277.351 151.38C277.351 150.98 277.338 150.6 277.311 150.24C277.298 149.293 277.084 148.533 276.671 147.96C276.271 147.373 275.638 147.08 274.771 147.08C273.918 147.08 273.284 147.373 272.871 147.96C272.471 148.533 272.258 149.293 272.231 150.24C272.231 150.6 272.224 150.98 272.211 151.38C272.211 151.78 272.211 152.18 272.211 152.58C272.224 152.967 272.231 153.353 272.231 153.74C272.258 154.713 272.478 155.487 272.891 156.06C273.304 156.62 273.931 156.9 274.771 156.9ZM287.966 159C287.832 159 287.719 158.953 287.626 158.86C287.532 158.767 287.486 158.653 287.486 158.52V145.5C287.486 145.353 287.532 145.233 287.626 145.14C287.719 145.047 287.832 145 287.966 145H296.646C296.792 145 296.912 145.047 297.006 145.14C297.099 145.233 297.146 145.353 297.146 145.5V146.9C297.146 147.047 297.099 147.167 297.006 147.26C296.912 147.34 296.792 147.38 296.646 147.38H290.226V151.18H296.246C296.392 151.18 296.512 151.227 296.606 151.32C296.699 151.413 296.746 151.533 296.746 151.68V153.08C296.746 153.213 296.699 153.327 296.606 153.42C296.512 153.513 296.392 153.56 296.246 153.56H290.226V158.52C290.226 158.653 290.179 158.767 290.086 158.86C289.992 158.953 289.872 159 289.726 159H287.966ZM297.817 159C297.711 159 297.611 158.96 297.517 158.88C297.437 158.8 297.397 158.7 297.397 158.58C297.397 158.527 297.411 158.467 297.437 158.4L302.257 145.5C302.297 145.367 302.371 145.253 302.477 145.16C302.597 145.053 302.757 145 302.957 145H305.137C305.337 145 305.491 145.053 305.597 145.16C305.704 145.253 305.784 145.367 305.837 145.5L310.657 158.4C310.671 158.467 310.677 158.527 310.677 158.58C310.677 158.7 310.637 158.8 310.557 158.88C310.477 158.96 310.384 159 310.277 159H308.537C308.351 159 308.211 158.96 308.117 158.88C308.037 158.787 307.984 158.7 307.957 158.62L307.017 156.18H301.077L300.137 158.62C300.111 158.7 300.051 158.787 299.957 158.88C299.877 158.96 299.744 159 299.557 159H297.817ZM301.777 153.88H306.317L304.037 147.7L301.777 153.88ZM313.024 159C312.891 159 312.778 158.953 312.684 158.86C312.591 158.767 312.544 158.653 312.544 158.52V145.48C312.544 145.347 312.591 145.233 312.684 145.14C312.778 145.047 312.891 145 313.024 145H314.904C315.051 145 315.164 145.047 315.244 145.14C315.338 145.233 315.384 145.347 315.384 145.48V158.52C315.384 158.653 315.338 158.767 315.244 158.86C315.164 158.953 315.051 159 314.904 159H313.024Z" fill="white"/>
<path d="M49.04 268C48.9067 268 48.7933 267.953 48.7 267.86C48.6067 267.767 48.56 267.653 48.56 267.52V254.5C48.56 254.353 48.6067 254.233 48.7 254.14C48.7933 254.047 48.9067 254 49.04 254H57.84C57.9867 254 58.1067 254.047 58.2 254.14C58.2933 254.233 58.34 254.353 58.34 254.5V255.82C58.34 255.953 58.2933 256.067 58.2 256.16C58.1067 256.253 57.9867 256.3 57.84 256.3H51.26V259.84H57.4C57.5467 259.84 57.6667 259.887 57.76 259.98C57.8533 260.06 57.9 260.173 57.9 260.32V261.56C57.9 261.707 57.8533 261.827 57.76 261.92C57.6667 262 57.5467 262.04 57.4 262.04H51.26V265.7H58C58.1467 265.7 58.2667 265.747 58.36 265.84C58.4533 265.933 58.5 266.053 58.5 266.2V267.52C58.5 267.653 58.4533 267.767 58.36 267.86C58.2667 267.953 58.1467 268 58 268H49.04ZM65.1833 268.2C64.2233 268.2 63.3766 268.02 62.6433 267.66C61.9233 267.3 61.3566 266.78 60.9433 266.1C60.5433 265.407 60.3233 264.573 60.2833 263.6C60.2699 263.4 60.2633 263.14 60.2633 262.82C60.2633 262.487 60.2699 262.213 60.2833 262C60.3233 261.027 60.5433 260.2 60.9433 259.52C61.3566 258.827 61.9233 258.3 62.6433 257.94C63.3766 257.58 64.2233 257.4 65.1833 257.4C66.0366 257.4 66.7633 257.52 67.3633 257.76C67.9633 258 68.4566 258.3 68.8433 258.66C69.2299 259.02 69.5166 259.4 69.7033 259.8C69.9033 260.187 70.0099 260.54 70.0233 260.86C70.0366 261.007 69.9899 261.127 69.8833 261.22C69.7899 261.3 69.6766 261.34 69.5433 261.34H67.7833C67.6499 261.34 67.5433 261.307 67.4633 261.24C67.3966 261.173 67.3299 261.073 67.2633 260.94C67.0633 260.407 66.7966 260.033 66.4633 259.82C66.1433 259.593 65.7299 259.48 65.2233 259.48C64.5566 259.48 64.0233 259.693 63.6233 260.12C63.2366 260.533 63.0299 261.193 63.0033 262.1C62.9766 262.607 62.9766 263.073 63.0033 263.5C63.0299 264.42 63.2366 265.087 63.6233 265.5C64.0233 265.913 64.5566 266.12 65.2233 266.12C65.7433 266.12 66.1633 266.013 66.4833 265.8C66.8033 265.573 67.0633 265.193 67.2633 264.66C67.3299 264.527 67.3966 264.427 67.4633 264.36C67.5433 264.293 67.6499 264.26 67.7833 264.26H69.5433C69.6766 264.26 69.7899 264.307 69.8833 264.4C69.9899 264.48 70.0366 264.593 70.0233 264.74C70.0099 264.98 69.9433 265.253 69.8233 265.56C69.7166 265.853 69.5366 266.16 69.2833 266.48C69.0433 266.787 68.7366 267.073 68.3633 267.34C67.9899 267.593 67.5366 267.8 67.0033 267.96C66.4833 268.12 65.8766 268.2 65.1833 268.2ZM76.7091 268.2C75.6424 268.2 74.7424 268.013 74.0091 267.64C73.2891 267.267 72.7357 266.74 72.3491 266.06C71.9757 265.38 71.7624 264.587 71.7091 263.68C71.6957 263.44 71.6891 263.147 71.6891 262.8C71.6891 262.453 71.6957 262.16 71.7091 261.92C71.7624 261 71.9824 260.207 72.3691 259.54C72.7691 258.86 73.3291 258.333 74.0491 257.96C74.7824 257.587 75.6691 257.4 76.7091 257.4C77.7491 257.4 78.6291 257.587 79.3491 257.96C80.0824 258.333 80.6424 258.86 81.0291 259.54C81.4291 260.207 81.6557 261 81.7091 261.92C81.7224 262.16 81.7291 262.453 81.7291 262.8C81.7291 263.147 81.7224 263.44 81.7091 263.68C81.6557 264.587 81.4357 265.38 81.0491 266.06C80.6757 266.74 80.1224 267.267 79.3891 267.64C78.6691 268.013 77.7757 268.2 76.7091 268.2ZM76.7091 266.22C77.4157 266.22 77.9624 266 78.3491 265.56C78.7357 265.107 78.9491 264.447 78.9891 263.58C79.0024 263.38 79.0091 263.12 79.0091 262.8C79.0091 262.48 79.0024 262.22 78.9891 262.02C78.9491 261.167 78.7357 260.513 78.3491 260.06C77.9624 259.607 77.4157 259.38 76.7091 259.38C76.0024 259.38 75.4557 259.607 75.0691 260.06C74.6824 260.513 74.4691 261.167 74.4291 262.02C74.4157 262.22 74.4091 262.48 74.4091 262.8C74.4091 263.12 74.4157 263.38 74.4291 263.58C74.4691 264.447 74.6824 265.107 75.0691 265.56C75.4557 266 76.0024 266.22 76.7091 266.22ZM87.885 268.2C87.085 268.2 86.3983 268.107 85.825 267.92C85.265 267.733 84.805 267.5 84.445 267.22C84.085 266.94 83.8183 266.66 83.645 266.38C83.4717 266.1 83.3783 265.867 83.365 265.68C83.3517 265.533 83.3917 265.42 83.485 265.34C83.5917 265.247 83.705 265.2 83.825 265.2H85.405C85.4583 265.2 85.505 265.207 85.545 265.22C85.585 265.233 85.6383 265.273 85.705 265.34C85.8783 265.487 86.0583 265.64 86.245 265.8C86.445 265.96 86.6783 266.1 86.945 266.22C87.2117 266.327 87.545 266.38 87.945 266.38C88.465 266.38 88.8983 266.28 89.245 266.08C89.605 265.867 89.785 265.567 89.785 265.18C89.785 264.9 89.705 264.673 89.545 264.5C89.3983 264.327 89.1183 264.173 88.705 264.04C88.2917 263.893 87.705 263.74 86.945 263.58C86.1983 263.407 85.5783 263.187 85.085 262.92C84.5917 262.653 84.225 262.32 83.985 261.92C83.745 261.52 83.625 261.053 83.625 260.52C83.625 260 83.7783 259.507 84.085 259.04C84.405 258.56 84.8717 258.167 85.485 257.86C86.1117 257.553 86.885 257.4 87.805 257.4C88.525 257.4 89.1517 257.493 89.685 257.68C90.2183 257.853 90.6583 258.073 91.005 258.34C91.365 258.607 91.6383 258.88 91.825 259.16C92.0117 259.427 92.1117 259.66 92.125 259.86C92.1383 260.007 92.0983 260.127 92.005 260.22C91.9117 260.3 91.805 260.34 91.685 260.34H90.205C90.1383 260.34 90.0783 260.327 90.025 260.3C89.9717 260.273 89.9183 260.24 89.865 260.2C89.7183 260.067 89.5583 259.927 89.385 259.78C89.2117 259.633 88.9983 259.507 88.745 259.4C88.505 259.28 88.185 259.22 87.785 259.22C87.2783 259.22 86.8917 259.333 86.625 259.56C86.3583 259.773 86.225 260.047 86.225 260.38C86.225 260.607 86.285 260.807 86.405 260.98C86.5383 261.14 86.7983 261.293 87.185 261.44C87.5717 261.587 88.1583 261.74 88.945 261.9C89.8383 262.06 90.545 262.3 91.065 262.62C91.5983 262.927 91.9717 263.287 92.185 263.7C92.4117 264.1 92.525 264.547 92.525 265.04C92.525 265.64 92.345 266.18 91.985 266.66C91.6383 267.14 91.1183 267.52 90.425 267.8C89.745 268.067 88.8983 268.2 87.885 268.2ZM96.0789 271.8C95.9722 271.8 95.8789 271.76 95.7989 271.68C95.7189 271.6 95.6789 271.507 95.6789 271.4C95.6789 271.347 95.6789 271.293 95.6789 271.24C95.6922 271.2 95.7189 271.147 95.7589 271.08L97.3189 267.38L93.4789 258.32C93.4256 258.187 93.3989 258.093 93.3989 258.04C93.4122 257.92 93.4589 257.82 93.5389 257.74C93.6189 257.647 93.7189 257.6 93.8389 257.6H95.4589C95.6189 257.6 95.7389 257.64 95.8189 257.72C95.8989 257.8 95.9589 257.887 95.9989 257.98L98.6589 264.52L101.399 257.98C101.439 257.873 101.499 257.787 101.579 257.72C101.659 257.64 101.779 257.6 101.939 257.6H103.539C103.646 257.6 103.739 257.64 103.819 257.72C103.912 257.8 103.959 257.893 103.959 258C103.959 258.08 103.932 258.187 103.879 258.32L98.2189 271.42C98.1656 271.527 98.0989 271.613 98.0189 271.68C97.9389 271.76 97.8189 271.8 97.6589 271.8H96.0789ZM109.311 268.2C108.511 268.2 107.824 268.107 107.251 267.92C106.691 267.733 106.231 267.5 105.871 267.22C105.511 266.94 105.244 266.66 105.071 266.38C104.897 266.1 104.804 265.867 104.791 265.68C104.777 265.533 104.817 265.42 104.911 265.34C105.017 265.247 105.131 265.2 105.251 265.2H106.831C106.884 265.2 106.931 265.207 106.971 265.22C107.011 265.233 107.064 265.273 107.131 265.34C107.304 265.487 107.484 265.64 107.671 265.8C107.871 265.96 108.104 266.1 108.371 266.22C108.637 266.327 108.971 266.38 109.371 266.38C109.891 266.38 110.324 266.28 110.671 266.08C111.031 265.867 111.211 265.567 111.211 265.18C111.211 264.9 111.131 264.673 110.971 264.5C110.824 264.327 110.544 264.173 110.131 264.04C109.717 263.893 109.131 263.74 108.371 263.58C107.624 263.407 107.004 263.187 106.511 262.92C106.017 262.653 105.651 262.32 105.411 261.92C105.171 261.52 105.051 261.053 105.051 260.52C105.051 260 105.204 259.507 105.511 259.04C105.831 258.56 106.297 258.167 106.911 257.86C107.537 257.553 108.311 257.4 109.231 257.4C109.951 257.4 110.577 257.493 111.111 257.68C111.644 257.853 112.084 258.073 112.431 258.34C112.791 258.607 113.064 258.88 113.251 259.16C113.437 259.427 113.537 259.66 113.551 259.86C113.564 260.007 113.524 260.127 113.431 260.22C113.337 260.3 113.231 260.34 113.111 260.34H111.631C111.564 260.34 111.504 260.327 111.451 260.3C111.397 260.273 111.344 260.24 111.291 260.2C111.144 260.067 110.984 259.927 110.811 259.78C110.637 259.633 110.424 259.507 110.171 259.4C109.931 259.28 109.611 259.22 109.211 259.22C108.704 259.22 108.317 259.333 108.051 259.56C107.784 259.773 107.651 260.047 107.651 260.38C107.651 260.607 107.711 260.807 107.831 260.98C107.964 261.14 108.224 261.293 108.611 261.44C108.997 261.587 109.584 261.74 110.371 261.9C111.264 262.06 111.971 262.3 112.491 262.62C113.024 262.927 113.397 263.287 113.611 263.7C113.837 264.1 113.951 264.547 113.951 265.04C113.951 265.64 113.771 266.18 113.411 266.66C113.064 267.14 112.544 267.52 111.851 267.8C111.171 268.067 110.324 268.2 109.311 268.2ZM120.676 268C119.876 268 119.203 267.86 118.656 267.58C118.11 267.3 117.703 266.887 117.436 266.34C117.17 265.78 117.036 265.087 117.036 264.26V259.72H115.456C115.323 259.72 115.21 259.673 115.116 259.58C115.023 259.487 114.976 259.373 114.976 259.24V258.08C114.976 257.947 115.023 257.833 115.116 257.74C115.21 257.647 115.323 257.6 115.456 257.6H117.036V254.28C117.036 254.147 117.076 254.033 117.156 253.94C117.25 253.847 117.37 253.8 117.516 253.8H119.136C119.27 253.8 119.383 253.847 119.476 253.94C119.57 254.033 119.616 254.147 119.616 254.28V257.6H122.116C122.25 257.6 122.363 257.647 122.456 257.74C122.55 257.833 122.596 257.947 122.596 258.08V259.24C122.596 259.373 122.55 259.487 122.456 259.58C122.363 259.673 122.25 259.72 122.116 259.72H119.616V264.06C119.616 264.607 119.71 265.033 119.896 265.34C120.096 265.647 120.436 265.8 120.916 265.8H122.296C122.43 265.8 122.543 265.847 122.636 265.94C122.73 266.033 122.776 266.147 122.776 266.28V267.52C122.776 267.653 122.73 267.767 122.636 267.86C122.543 267.953 122.43 268 122.296 268H120.676ZM129.03 268.2C127.55 268.2 126.377 267.773 125.51 266.92C124.644 266.067 124.177 264.853 124.11 263.28C124.097 263.147 124.09 262.98 124.09 262.78C124.09 262.567 124.097 262.4 124.11 262.28C124.164 261.28 124.39 260.413 124.79 259.68C125.204 258.947 125.77 258.387 126.49 258C127.21 257.6 128.057 257.4 129.03 257.4C130.11 257.4 131.017 257.627 131.75 258.08C132.484 258.52 133.037 259.14 133.41 259.94C133.784 260.727 133.97 261.64 133.97 262.68V263.1C133.97 263.233 133.924 263.347 133.83 263.44C133.737 263.533 133.617 263.58 133.47 263.58H126.83C126.83 263.58 126.83 263.6 126.83 263.64C126.83 263.68 126.83 263.713 126.83 263.74C126.844 264.207 126.93 264.64 127.09 265.04C127.264 265.427 127.51 265.74 127.83 265.98C128.164 266.22 128.557 266.34 129.01 266.34C129.384 266.34 129.697 266.287 129.95 266.18C130.204 266.06 130.41 265.927 130.57 265.78C130.73 265.633 130.844 265.513 130.91 265.42C131.03 265.26 131.124 265.167 131.19 265.14C131.27 265.1 131.384 265.08 131.53 265.08H133.25C133.384 265.08 133.49 265.12 133.57 265.2C133.664 265.28 133.704 265.38 133.69 265.5C133.677 265.713 133.564 265.973 133.35 266.28C133.15 266.587 132.857 266.887 132.47 267.18C132.084 267.473 131.597 267.72 131.01 267.92C130.437 268.107 129.777 268.2 129.03 268.2ZM126.83 261.9H131.25V261.84C131.25 261.32 131.164 260.867 130.99 260.48C130.817 260.093 130.564 259.787 130.23 259.56C129.897 259.333 129.497 259.22 129.03 259.22C128.564 259.22 128.164 259.333 127.83 259.56C127.497 259.787 127.244 260.093 127.07 260.48C126.91 260.867 126.83 261.32 126.83 261.84V261.9ZM136.573 268C136.44 268 136.327 267.953 136.233 267.86C136.14 267.767 136.093 267.653 136.093 267.52V258.08C136.093 257.947 136.14 257.833 136.233 257.74C136.327 257.647 136.44 257.6 136.573 257.6H138.133C138.267 257.6 138.38 257.647 138.473 257.74C138.567 257.833 138.613 257.947 138.613 258.08V258.76C138.893 258.387 139.267 258.073 139.733 257.82C140.213 257.553 140.78 257.413 141.433 257.4C142.953 257.373 144.013 257.967 144.613 259.18C144.92 258.647 145.36 258.22 145.933 257.9C146.52 257.567 147.167 257.4 147.873 257.4C148.567 257.4 149.193 257.56 149.753 257.88C150.327 258.2 150.773 258.687 151.093 259.34C151.427 259.98 151.593 260.793 151.593 261.78V267.52C151.593 267.653 151.547 267.767 151.453 267.86C151.36 267.953 151.247 268 151.113 268H149.473C149.34 268 149.227 267.953 149.133 267.86C149.04 267.767 148.993 267.653 148.993 267.52V261.94C148.993 261.34 148.907 260.867 148.733 260.52C148.56 260.16 148.327 259.907 148.033 259.76C147.74 259.613 147.413 259.54 147.053 259.54C146.76 259.54 146.467 259.613 146.173 259.76C145.88 259.907 145.64 260.16 145.453 260.52C145.267 260.867 145.173 261.34 145.173 261.94V267.52C145.173 267.653 145.127 267.767 145.033 267.86C144.94 267.953 144.827 268 144.693 268H143.053C142.907 268 142.787 267.953 142.693 267.86C142.613 267.767 142.573 267.653 142.573 267.52V261.94C142.573 261.34 142.48 260.867 142.293 260.52C142.107 260.16 141.867 259.907 141.573 259.76C141.28 259.613 140.967 259.54 140.633 259.54C140.327 259.54 140.027 259.62 139.733 259.78C139.44 259.927 139.2 260.173 139.013 260.52C138.827 260.867 138.733 261.34 138.733 261.94V267.52C138.733 267.653 138.687 267.767 138.593 267.86C138.5 267.953 138.387 268 138.253 268H136.573ZM162.931 268C162.784 268 162.664 267.953 162.571 267.86C162.491 267.767 162.451 267.653 162.451 267.52V257.16L159.411 259.5C159.291 259.58 159.171 259.613 159.051 259.6C158.931 259.573 158.824 259.5 158.731 259.38L157.891 258.3C157.811 258.18 157.777 258.053 157.791 257.92C157.817 257.787 157.891 257.68 158.011 257.6L162.491 254.14C162.571 254.073 162.651 254.033 162.731 254.02C162.811 254.007 162.897 254 162.991 254H164.751C164.884 254 164.997 254.047 165.091 254.14C165.184 254.233 165.231 254.347 165.231 254.48V267.52C165.231 267.653 165.184 267.767 165.091 267.86C164.997 267.953 164.884 268 164.751 268H162.931ZM173.208 268.2C172.262 268.2 171.455 268.06 170.788 267.78C170.122 267.5 169.575 267.113 169.148 266.62C168.722 266.127 168.402 265.56 168.188 264.92C167.975 264.267 167.848 263.573 167.808 262.84C167.795 262.48 167.782 262.087 167.768 261.66C167.768 261.22 167.768 260.78 167.768 260.34C167.782 259.9 167.795 259.493 167.808 259.12C167.835 258.387 167.962 257.7 168.188 257.06C168.415 256.407 168.742 255.84 169.168 255.36C169.608 254.88 170.162 254.5 170.828 254.22C171.495 253.94 172.288 253.8 173.208 253.8C174.142 253.8 174.942 253.94 175.608 254.22C176.275 254.5 176.822 254.88 177.248 255.36C177.688 255.84 178.015 256.407 178.228 257.06C178.455 257.7 178.582 258.387 178.608 259.12C178.635 259.493 178.648 259.9 178.648 260.34C178.648 260.78 178.648 261.22 178.648 261.66C178.648 262.087 178.635 262.48 178.608 262.84C178.582 263.573 178.462 264.267 178.248 264.92C178.035 265.56 177.715 266.127 177.288 266.62C176.862 267.113 176.308 267.5 175.628 267.78C174.962 268.06 174.155 268.2 173.208 268.2ZM173.208 265.9C174.075 265.9 174.708 265.62 175.108 265.06C175.522 264.487 175.735 263.713 175.748 262.74C175.775 262.353 175.788 261.967 175.788 261.58C175.788 261.18 175.788 260.78 175.788 260.38C175.788 259.98 175.775 259.6 175.748 259.24C175.735 258.293 175.522 257.533 175.108 256.96C174.708 256.373 174.075 256.08 173.208 256.08C172.355 256.08 171.722 256.373 171.308 256.96C170.908 257.533 170.695 258.293 170.668 259.24C170.668 259.6 170.662 259.98 170.648 260.38C170.648 260.78 170.648 261.18 170.648 261.58C170.662 261.967 170.668 262.353 170.668 262.74C170.695 263.713 170.915 264.487 171.328 265.06C171.742 265.62 172.368 265.9 173.208 265.9ZM181.993 268C181.713 268 181.573 267.867 181.573 267.6C181.573 267.52 181.6 267.447 181.653 267.38L191.513 254.38C191.606 254.26 191.7 254.167 191.793 254.1C191.886 254.033 192.02 254 192.193 254H193.253C193.533 254 193.673 254.133 193.673 254.4C193.673 254.48 193.646 254.553 193.593 254.62L183.733 267.62C183.64 267.74 183.546 267.833 183.453 267.9C183.373 267.967 183.24 268 183.053 268H181.993ZM191.613 268.12C190.72 268.12 190.013 267.873 189.493 267.38C188.973 266.887 188.686 266.24 188.633 265.44C188.62 265.093 188.613 264.793 188.613 264.54C188.613 264.287 188.62 263.973 188.633 263.6C188.686 262.8 188.96 262.153 189.453 261.66C189.96 261.167 190.68 260.92 191.613 260.92C192.56 260.92 193.28 261.167 193.773 261.66C194.28 262.153 194.553 262.8 194.593 263.6C194.62 263.973 194.633 264.287 194.633 264.54C194.633 264.793 194.62 265.093 194.593 265.44C194.553 266.24 194.266 266.887 193.733 267.38C193.213 267.873 192.506 268.12 191.613 268.12ZM191.613 266.56C191.906 266.56 192.133 266.5 192.293 266.38C192.466 266.26 192.593 266.107 192.673 265.92C192.753 265.733 192.793 265.547 192.793 265.36C192.82 265.027 192.833 264.747 192.833 264.52C192.833 264.28 192.82 264.007 192.793 263.7C192.78 263.393 192.686 263.113 192.513 262.86C192.34 262.593 192.04 262.46 191.613 262.46C191.2 262.46 190.906 262.593 190.733 262.86C190.56 263.113 190.46 263.393 190.433 263.7C190.42 264.007 190.413 264.28 190.413 264.52C190.413 264.747 190.42 265.027 190.433 265.36C190.46 265.547 190.506 265.733 190.573 265.92C190.653 266.107 190.773 266.26 190.933 266.38C191.106 266.5 191.333 266.56 191.613 266.56ZM183.633 261.04C182.74 261.04 182.033 260.807 181.513 260.34C180.993 259.873 180.706 259.24 180.653 258.44C180.64 258.093 180.633 257.793 180.633 257.54C180.633 257.273 180.64 256.953 180.653 256.58C180.706 255.78 180.98 255.133 181.473 254.64C181.98 254.147 182.7 253.9 183.633 253.9C184.58 253.9 185.3 254.147 185.793 254.64C186.3 255.133 186.573 255.78 186.613 256.58C186.64 256.953 186.653 257.273 186.653 257.54C186.653 257.793 186.64 258.093 186.613 258.44C186.573 259.24 186.286 259.873 185.753 260.34C185.233 260.807 184.526 261.04 183.633 261.04ZM183.633 259.56C183.926 259.56 184.153 259.5 184.313 259.38C184.486 259.26 184.613 259.107 184.693 258.92C184.773 258.733 184.813 258.54 184.813 258.34C184.84 258.007 184.853 257.727 184.853 257.5C184.853 257.26 184.84 256.987 184.813 256.68C184.8 256.373 184.706 256.093 184.533 255.84C184.36 255.587 184.06 255.46 183.633 255.46C183.22 255.46 182.926 255.587 182.753 255.84C182.58 256.093 182.486 256.373 182.473 256.68C182.46 256.987 182.453 257.26 182.453 257.5C182.453 257.727 182.46 258.007 182.473 258.34C182.486 258.54 182.526 258.733 182.593 258.92C182.673 259.107 182.793 259.26 182.953 259.38C183.126 259.5 183.353 259.56 183.633 259.56Z" fill="#DB3E0D"/>
<path d="M205.587 268C205.44 268 205.32 267.953 205.227 267.86C205.147 267.767 205.107 267.653 205.107 267.52V257.16L202.067 259.5C201.947 259.58 201.827 259.613 201.707 259.6C201.587 259.573 201.48 259.5 201.387 259.38L200.547 258.3C200.467 258.18 200.434 258.053 200.447 257.92C200.474 257.787 200.547 257.68 200.667 257.6L205.147 254.14C205.227 254.073 205.307 254.033 205.387 254.02C205.467 254.007 205.554 254 205.647 254H207.407C207.54 254 207.654 254.047 207.747 254.14C207.84 254.233 207.887 254.347 207.887 254.48V267.52C207.887 267.653 207.84 267.767 207.747 267.86C207.654 267.953 207.54 268 207.407 268H205.587ZM215.865 268.2C214.918 268.2 214.111 268.06 213.445 267.78C212.778 267.5 212.231 267.113 211.805 266.62C211.378 266.127 211.058 265.56 210.845 264.92C210.631 264.267 210.505 263.573 210.465 262.84C210.451 262.48 210.438 262.087 210.425 261.66C210.425 261.22 210.425 260.78 210.425 260.34C210.438 259.9 210.451 259.493 210.465 259.12C210.491 258.387 210.618 257.7 210.845 257.06C211.071 256.407 211.398 255.84 211.825 255.36C212.265 254.88 212.818 254.5 213.485 254.22C214.151 253.94 214.945 253.8 215.865 253.8C216.798 253.8 217.598 253.94 218.265 254.22C218.931 254.5 219.478 254.88 219.905 255.36C220.345 255.84 220.671 256.407 220.885 257.06C221.111 257.7 221.238 258.387 221.265 259.12C221.291 259.493 221.305 259.9 221.305 260.34C221.305 260.78 221.305 261.22 221.305 261.66C221.305 262.087 221.291 262.48 221.265 262.84C221.238 263.573 221.118 264.267 220.905 264.92C220.691 265.56 220.371 266.127 219.945 266.62C219.518 267.113 218.965 267.5 218.285 267.78C217.618 268.06 216.811 268.2 215.865 268.2ZM215.865 265.9C216.731 265.9 217.365 265.62 217.765 265.06C218.178 264.487 218.391 263.713 218.405 262.74C218.431 262.353 218.445 261.967 218.445 261.58C218.445 261.18 218.445 260.78 218.445 260.38C218.445 259.98 218.431 259.6 218.405 259.24C218.391 258.293 218.178 257.533 217.765 256.96C217.365 256.373 216.731 256.08 215.865 256.08C215.011 256.08 214.378 256.373 213.965 256.96C213.565 257.533 213.351 258.293 213.325 259.24C213.325 259.6 213.318 259.98 213.305 260.38C213.305 260.78 213.305 261.18 213.305 261.58C213.318 261.967 213.325 262.353 213.325 262.74C213.351 263.713 213.571 264.487 213.985 265.06C214.398 265.62 215.025 265.9 215.865 265.9ZM229.009 268.2C228.063 268.2 227.256 268.06 226.589 267.78C225.923 267.5 225.376 267.113 224.949 266.62C224.523 266.127 224.203 265.56 223.989 264.92C223.776 264.267 223.649 263.573 223.609 262.84C223.596 262.48 223.583 262.087 223.569 261.66C223.569 261.22 223.569 260.78 223.569 260.34C223.583 259.9 223.596 259.493 223.609 259.12C223.636 258.387 223.763 257.7 223.989 257.06C224.216 256.407 224.543 255.84 224.969 255.36C225.409 254.88 225.963 254.5 226.629 254.22C227.296 253.94 228.089 253.8 229.009 253.8C229.943 253.8 230.743 253.94 231.409 254.22C232.076 254.5 232.623 254.88 233.049 255.36C233.489 255.84 233.816 256.407 234.029 257.06C234.256 257.7 234.383 258.387 234.409 259.12C234.436 259.493 234.449 259.9 234.449 260.34C234.449 260.78 234.449 261.22 234.449 261.66C234.449 262.087 234.436 262.48 234.409 262.84C234.383 263.573 234.263 264.267 234.049 264.92C233.836 265.56 233.516 266.127 233.089 266.62C232.663 267.113 232.109 267.5 231.429 267.78C230.763 268.06 229.956 268.2 229.009 268.2ZM229.009 265.9C229.876 265.9 230.509 265.62 230.909 265.06C231.323 264.487 231.536 263.713 231.549 262.74C231.576 262.353 231.589 261.967 231.589 261.58C231.589 261.18 231.589 260.78 231.589 260.38C231.589 259.98 231.576 259.6 231.549 259.24C231.536 258.293 231.323 257.533 230.909 256.96C230.509 256.373 229.876 256.08 229.009 256.08C228.156 256.08 227.523 256.373 227.109 256.96C226.709 257.533 226.496 258.293 226.469 259.24C226.469 259.6 226.463 259.98 226.449 260.38C226.449 260.78 226.449 261.18 226.449 261.58C226.463 261.967 226.469 262.353 226.469 262.74C226.496 263.713 226.716 264.487 227.129 265.06C227.543 265.62 228.169 265.9 229.009 265.9ZM236.579 269.5C236.459 269.5 236.366 269.46 236.299 269.38C236.232 269.3 236.206 269.2 236.219 269.08L236.759 265.68C236.786 265.507 236.846 265.36 236.939 265.24C237.046 265.107 237.199 265.04 237.399 265.04H239.239C239.346 265.04 239.432 265.08 239.499 265.16C239.566 265.227 239.599 265.313 239.599 265.42C239.599 265.513 239.579 265.6 239.539 265.68L238.259 269C238.206 269.133 238.126 269.247 238.019 269.34C237.926 269.447 237.786 269.5 237.599 269.5H236.579ZM246.998 268.2C246.051 268.2 245.244 268.06 244.578 267.78C243.911 267.5 243.364 267.113 242.938 266.62C242.511 266.127 242.191 265.56 241.978 264.92C241.764 264.267 241.638 263.573 241.598 262.84C241.584 262.48 241.571 262.087 241.558 261.66C241.558 261.22 241.558 260.78 241.558 260.34C241.571 259.9 241.584 259.493 241.598 259.12C241.624 258.387 241.751 257.7 241.978 257.06C242.204 256.407 242.531 255.84 242.958 255.36C243.398 254.88 243.951 254.5 244.618 254.22C245.284 253.94 246.078 253.8 246.998 253.8C247.931 253.8 248.731 253.94 249.398 254.22C250.064 254.5 250.611 254.88 251.038 255.36C251.478 255.84 251.804 256.407 252.018 257.06C252.244 257.7 252.371 258.387 252.398 259.12C252.424 259.493 252.438 259.9 252.438 260.34C252.438 260.78 252.438 261.22 252.438 261.66C252.438 262.087 252.424 262.48 252.398 262.84C252.371 263.573 252.251 264.267 252.038 264.92C251.824 265.56 251.504 266.127 251.078 266.62C250.651 267.113 250.098 267.5 249.418 267.78C248.751 268.06 247.944 268.2 246.998 268.2ZM246.998 265.9C247.864 265.9 248.498 265.62 248.898 265.06C249.311 264.487 249.524 263.713 249.538 262.74C249.564 262.353 249.578 261.967 249.578 261.58C249.578 261.18 249.578 260.78 249.578 260.38C249.578 259.98 249.564 259.6 249.538 259.24C249.524 258.293 249.311 257.533 248.898 256.96C248.498 256.373 247.864 256.08 246.998 256.08C246.144 256.08 245.511 256.373 245.098 256.96C244.698 257.533 244.484 258.293 244.458 259.24C244.458 259.6 244.451 259.98 244.438 260.38C244.438 260.78 244.438 261.18 244.438 261.58C244.451 261.967 244.458 262.353 244.458 262.74C244.484 263.713 244.704 264.487 245.118 265.06C245.531 265.62 246.158 265.9 246.998 265.9ZM260.142 268.2C259.195 268.2 258.389 268.06 257.722 267.78C257.055 267.5 256.509 267.113 256.082 266.62C255.655 266.127 255.335 265.56 255.122 264.92C254.909 264.267 254.782 263.573 254.742 262.84C254.729 262.48 254.715 262.087 254.702 261.66C254.702 261.22 254.702 260.78 254.702 260.34C254.715 259.9 254.729 259.493 254.742 259.12C254.769 258.387 254.895 257.7 255.122 257.06C255.349 256.407 255.675 255.84 256.102 255.36C256.542 254.88 257.095 254.5 257.762 254.22C258.429 253.94 259.222 253.8 260.142 253.8C261.075 253.8 261.875 253.94 262.542 254.22C263.209 254.5 263.755 254.88 264.182 255.36C264.622 255.84 264.949 256.407 265.162 257.06C265.389 257.7 265.515 258.387 265.542 259.12C265.569 259.493 265.582 259.9 265.582 260.34C265.582 260.78 265.582 261.22 265.582 261.66C265.582 262.087 265.569 262.48 265.542 262.84C265.515 263.573 265.395 264.267 265.182 264.92C264.969 265.56 264.649 266.127 264.222 266.62C263.795 267.113 263.242 267.5 262.562 267.78C261.895 268.06 261.089 268.2 260.142 268.2ZM260.142 265.9C261.009 265.9 261.642 265.62 262.042 265.06C262.455 264.487 262.669 263.713 262.682 262.74C262.709 262.353 262.722 261.967 262.722 261.58C262.722 261.18 262.722 260.78 262.722 260.38C262.722 259.98 262.709 259.6 262.682 259.24C262.669 258.293 262.455 257.533 262.042 256.96C261.642 256.373 261.009 256.08 260.142 256.08C259.289 256.08 258.655 256.373 258.242 256.96C257.842 257.533 257.629 258.293 257.602 259.24C257.602 259.6 257.595 259.98 257.582 260.38C257.582 260.78 257.582 261.18 257.582 261.58C257.595 261.967 257.602 262.353 257.602 262.74C257.629 263.713 257.849 264.487 258.262 265.06C258.675 265.62 259.302 265.9 260.142 265.9ZM273.287 268.2C272.34 268.2 271.533 268.06 270.867 267.78C270.2 267.5 269.653 267.113 269.227 266.62C268.8 266.127 268.48 265.56 268.267 264.92C268.053 264.267 267.927 263.573 267.887 262.84C267.873 262.48 267.86 262.087 267.847 261.66C267.847 261.22 267.847 260.78 267.847 260.34C267.86 259.9 267.873 259.493 267.887 259.12C267.913 258.387 268.04 257.7 268.267 257.06C268.493 256.407 268.82 255.84 269.247 255.36C269.687 254.88 270.24 254.5 270.907 254.22C271.573 253.94 272.367 253.8 273.287 253.8C274.22 253.8 275.02 253.94 275.687 254.22C276.353 254.5 276.9 254.88 277.327 255.36C277.767 255.84 278.093 256.407 278.307 257.06C278.533 257.7 278.66 258.387 278.687 259.12C278.713 259.493 278.727 259.9 278.727 260.34C278.727 260.78 278.727 261.22 278.727 261.66C278.727 262.087 278.713 262.48 278.687 262.84C278.66 263.573 278.54 264.267 278.327 264.92C278.113 265.56 277.793 266.127 277.367 266.62C276.94 267.113 276.387 267.5 275.707 267.78C275.04 268.06 274.233 268.2 273.287 268.2ZM273.287 265.9C274.153 265.9 274.787 265.62 275.187 265.06C275.6 264.487 275.813 263.713 275.827 262.74C275.853 262.353 275.867 261.967 275.867 261.58C275.867 261.18 275.867 260.78 275.867 260.38C275.867 259.98 275.853 259.6 275.827 259.24C275.813 258.293 275.6 257.533 275.187 256.96C274.787 256.373 274.153 256.08 273.287 256.08C272.433 256.08 271.8 256.373 271.387 256.96C270.987 257.533 270.773 258.293 270.747 259.24C270.747 259.6 270.74 259.98 270.727 260.38C270.727 260.78 270.727 261.18 270.727 261.58C270.74 261.967 270.747 262.353 270.747 262.74C270.773 263.713 270.993 264.487 271.407 265.06C271.82 265.62 272.447 265.9 273.287 265.9ZM280.856 269.5C280.736 269.5 280.643 269.46 280.576 269.38C280.51 269.3 280.483 269.2 280.496 269.08L281.036 265.68C281.063 265.507 281.123 265.36 281.216 265.24C281.323 265.107 281.476 265.04 281.676 265.04H283.516C283.623 265.04 283.71 265.08 283.776 265.16C283.843 265.227 283.876 265.313 283.876 265.42C283.876 265.513 283.856 265.6 283.816 265.68L282.536 269C282.483 269.133 282.403 269.247 282.296 269.34C282.203 269.447 282.063 269.5 281.876 269.5H280.856ZM291.275 268.2C290.328 268.2 289.522 268.06 288.855 267.78C288.188 267.5 287.642 267.113 287.215 266.62C286.788 266.127 286.468 265.56 286.255 264.92C286.042 264.267 285.915 263.573 285.875 262.84C285.862 262.48 285.848 262.087 285.835 261.66C285.835 261.22 285.835 260.78 285.835 260.34C285.848 259.9 285.862 259.493 285.875 259.12C285.902 258.387 286.028 257.7 286.255 257.06C286.482 256.407 286.808 255.84 287.235 255.36C287.675 254.88 288.228 254.5 288.895 254.22C289.562 253.94 290.355 253.8 291.275 253.8C292.208 253.8 293.008 253.94 293.675 254.22C294.342 254.5 294.888 254.88 295.315 255.36C295.755 255.84 296.082 256.407 296.295 257.06C296.522 257.7 296.648 258.387 296.675 259.12C296.702 259.493 296.715 259.9 296.715 260.34C296.715 260.78 296.715 261.22 296.715 261.66C296.715 262.087 296.702 262.48 296.675 262.84C296.648 263.573 296.528 264.267 296.315 264.92C296.102 265.56 295.782 266.127 295.355 266.62C294.928 267.113 294.375 267.5 293.695 267.78C293.028 268.06 292.222 268.2 291.275 268.2ZM291.275 265.9C292.142 265.9 292.775 265.62 293.175 265.06C293.588 264.487 293.802 263.713 293.815 262.74C293.842 262.353 293.855 261.967 293.855 261.58C293.855 261.18 293.855 260.78 293.855 260.38C293.855 259.98 293.842 259.6 293.815 259.24C293.802 258.293 293.588 257.533 293.175 256.96C292.775 256.373 292.142 256.08 291.275 256.08C290.422 256.08 289.788 256.373 289.375 256.96C288.975 257.533 288.762 258.293 288.735 259.24C288.735 259.6 288.728 259.98 288.715 260.38C288.715 260.78 288.715 261.18 288.715 261.58C288.728 261.967 288.735 262.353 288.735 262.74C288.762 263.713 288.982 264.487 289.395 265.06C289.808 265.62 290.435 265.9 291.275 265.9ZM304.419 268.2C303.473 268.2 302.666 268.06 301.999 267.78C301.333 267.5 300.786 267.113 300.359 266.62C299.933 266.127 299.613 265.56 299.399 264.92C299.186 264.267 299.059 263.573 299.019 262.84C299.006 262.48 298.993 262.087 298.979 261.66C298.979 261.22 298.979 260.78 298.979 260.34C298.993 259.9 299.006 259.493 299.019 259.12C299.046 258.387 299.173 257.7 299.399 257.06C299.626 256.407 299.953 255.84 300.379 255.36C300.819 254.88 301.373 254.5 302.039 254.22C302.706 253.94 303.499 253.8 304.419 253.8C305.353 253.8 306.153 253.94 306.819 254.22C307.486 254.5 308.033 254.88 308.459 255.36C308.899 255.84 309.226 256.407 309.439 257.06C309.666 257.7 309.793 258.387 309.819 259.12C309.846 259.493 309.859 259.9 309.859 260.34C309.859 260.78 309.859 261.22 309.859 261.66C309.859 262.087 309.846 262.48 309.819 262.84C309.793 263.573 309.673 264.267 309.459 264.92C309.246 265.56 308.926 266.127 308.499 266.62C308.073 267.113 307.519 267.5 306.839 267.78C306.173 268.06 305.366 268.2 304.419 268.2ZM304.419 265.9C305.286 265.9 305.919 265.62 306.319 265.06C306.733 264.487 306.946 263.713 306.959 262.74C306.986 262.353 306.999 261.967 306.999 261.58C306.999 261.18 306.999 260.78 306.999 260.38C306.999 259.98 306.986 259.6 306.959 259.24C306.946 258.293 306.733 257.533 306.319 256.96C305.919 256.373 305.286 256.08 304.419 256.08C303.566 256.08 302.933 256.373 302.519 256.96C302.119 257.533 301.906 258.293 301.879 259.24C301.879 259.6 301.873 259.98 301.859 260.38C301.859 260.78 301.859 261.18 301.859 261.58C301.873 261.967 301.879 262.353 301.879 262.74C301.906 263.713 302.126 264.487 302.539 265.06C302.953 265.62 303.579 265.9 304.419 265.9ZM317.564 268.2C316.617 268.2 315.811 268.06 315.144 267.78C314.477 267.5 313.931 267.113 313.504 266.62C313.077 266.127 312.757 265.56 312.544 264.92C312.331 264.267 312.204 263.573 312.164 262.84C312.151 262.48 312.137 262.087 312.124 261.66C312.124 261.22 312.124 260.78 312.124 260.34C312.137 259.9 312.151 259.493 312.164 259.12C312.191 258.387 312.317 257.7 312.544 257.06C312.771 256.407 313.097 255.84 313.524 255.36C313.964 254.88 314.517 254.5 315.184 254.22C315.851 253.94 316.644 253.8 317.564 253.8C318.497 253.8 319.297 253.94 319.964 254.22C320.631 254.5 321.177 254.88 321.604 255.36C322.044 255.84 322.371 256.407 322.584 257.06C322.811 257.7 322.937 258.387 322.964 259.12C322.991 259.493 323.004 259.9 323.004 260.34C323.004 260.78 323.004 261.22 323.004 261.66C323.004 262.087 322.991 262.48 322.964 262.84C322.937 263.573 322.817 264.267 322.604 264.92C322.391 265.56 322.071 266.127 321.644 266.62C321.217 267.113 320.664 267.5 319.984 267.78C319.317 268.06 318.511 268.2 317.564 268.2ZM317.564 265.9C318.431 265.9 319.064 265.62 319.464 265.06C319.877 264.487 320.091 263.713 320.104 262.74C320.131 262.353 320.144 261.967 320.144 261.58C320.144 261.18 320.144 260.78 320.144 260.38C320.144 259.98 320.131 259.6 320.104 259.24C320.091 258.293 319.877 257.533 319.464 256.96C319.064 256.373 318.431 256.08 317.564 256.08C316.711 256.08 316.077 256.373 315.664 256.96C315.264 257.533 315.051 258.293 315.024 259.24C315.024 259.6 315.017 259.98 315.004 260.38C315.004 260.78 315.004 261.18 315.004 261.58C315.017 261.967 315.024 262.353 315.024 262.74C315.051 263.713 315.271 264.487 315.684 265.06C316.097 265.62 316.724 265.9 317.564 265.9ZM330.759 268C330.625 268 330.512 267.953 330.419 267.86C330.325 267.767 330.279 267.653 330.279 267.52V254.5C330.279 254.353 330.325 254.233 330.419 254.14C330.512 254.047 330.625 254 330.759 254H339.439C339.585 254 339.705 254.047 339.799 254.14C339.892 254.233 339.939 254.353 339.939 254.5V255.9C339.939 256.047 339.892 256.167 339.799 256.26C339.705 256.34 339.585 256.38 339.439 256.38H333.019V260.18H339.039C339.185 260.18 339.305 260.227 339.399 260.32C339.492 260.413 339.539 260.533 339.539 260.68V262.08C339.539 262.213 339.492 262.327 339.399 262.42C339.305 262.513 339.185 262.56 339.039 262.56H333.019V267.52C333.019 267.653 332.972 267.767 332.879 267.86C332.785 267.953 332.665 268 332.519 268H330.759ZM340.61 268C340.503 268 340.403 267.96 340.31 267.88C340.23 267.8 340.19 267.7 340.19 267.58C340.19 267.527 340.203 267.467 340.23 267.4L345.05 254.5C345.09 254.367 345.163 254.253 345.27 254.16C345.39 254.053 345.55 254 345.75 254H347.93C348.13 254 348.283 254.053 348.39 254.16C348.497 254.253 348.577 254.367 348.63 254.5L353.45 267.4C353.463 267.467 353.47 267.527 353.47 267.58C353.47 267.7 353.43 267.8 353.35 267.88C353.27 267.96 353.177 268 353.07 268H351.33C351.143 268 351.003 267.96 350.91 267.88C350.83 267.787 350.777 267.7 350.75 267.62L349.81 265.18H343.87L342.93 267.62C342.903 267.7 342.843 267.787 342.75 267.88C342.67 267.96 342.537 268 342.35 268H340.61ZM344.57 262.88H349.11L346.83 256.7L344.57 262.88ZM355.817 268C355.684 268 355.571 267.953 355.477 267.86C355.384 267.767 355.337 267.653 355.337 267.52V254.48C355.337 254.347 355.384 254.233 355.477 254.14C355.571 254.047 355.684 254 355.817 254H357.697C357.844 254 357.957 254.047 358.037 254.14C358.131 254.233 358.177 254.347 358.177 254.48V267.52C358.177 267.653 358.131 267.767 358.037 267.86C357.957 267.953 357.844 268 357.697 268H355.817Z" fill="white"/>
<rect x="15.168" y="29" width="21.4497" height="21.4497" transform="rotate(45 15.168 29)" fill="#9D5B3E"/>
<rect x="15.168" y="138" width="21.4497" height="21.4497" transform="rotate(45 15.168 138)" fill="#DEA617"/>
<rect x="15.168" y="247" width="21.4497" height="21.4497" transform="rotate(45 15.168 247)" fill="#DB3E0D"/>
<defs>
<linearGradient id="paint0_linear_233_20" x1="537.5" y1="43.9999" x2="14" y2="43.9999" gradientUnits="userSpaceOnUse">
<stop stop-color="white"/>
<stop offset="1" stop-color="white" stop-opacity="0"/>
</linearGradient>
<linearGradient id="paint1_linear_233_20" x1="537.5" y1="262" x2="14" y2="262" gradientUnits="userSpaceOnUse">
<stop stop-color="white"/>
<stop offset="1" stop-color="white" stop-opacity="0"/>
</linearGradient>
<linearGradient id="paint2_linear_233_20" x1="537.5" y1="153" x2="14" y2="153" gradientUnits="userSpaceOnUse">
<stop stop-color="white"/>
<stop offset="1" stop-color="white" stop-opacity="0"/>
</linearGradient>
</defs>
</svg>
