<svg width="533" height="305" viewBox="0 0 533 305" fill="none" xmlns="http://www.w3.org/2000/svg">
<rect x="14" width="519" height="87" rx="15" fill="url(#paint0_linear_233_20)" fill-opacity="0.06"/>
<rect x="14.5" y="0.5" width="518" height="86" rx="14.5" stroke="white" stroke-opacity="0.09"/>
<rect x="14" y="218" width="519" height="87" rx="15" fill="url(#paint1_linear_233_20)" fill-opacity="0.06"/>
<rect x="14.5" y="218.5" width="518" height="86" rx="14.5" stroke="white" stroke-opacity="0.09"/>
<rect x="14" y="109" width="519" height="87" rx="15" fill="url(#paint2_linear_233_20)" fill-opacity="0.06"/>
<rect x="14.5" y="109.5" width="518" height="86" rx="14.5" stroke="white" stroke-opacity="0.09"/>
<path d="M49.04 50C48.9067 50 48.7933 49.9533 48.7 49.86C48.6067 49.7667 48.56 49.6533 48.56 49.52V36.48C48.56 36.3467 48.6067 36.2333 48.7 36.14C48.7933 36.0467 48.9067 36 49.04 36H50.9C51.0333 36 51.1467 36.0467 51.24 36.14C51.3333 36.2333 51.38 36.3467 51.38 36.48V47.62H57.72C57.8667 47.62 57.9867 47.6667 58.08 47.76C58.1733 47.8533 58.22 47.9733 58.22 48.12V49.52C58.22 49.6533 58.1733 49.7667 58.08 49.86C57.9867 49.9533 57.8667 50 57.72 50H49.04ZM60.6416 50C60.5082 50 60.3949 49.9533 60.3016 49.86C60.2082 49.7667 60.1616 49.6533 60.1616 49.52V36.5C60.1616 36.3533 60.2082 36.2333 60.3016 36.14C60.3949 36.0467 60.5082 36 60.6416 36H66.0016C67.0416 36 67.9482 36.1667 68.7216 36.5C69.4949 36.82 70.0949 37.3133 70.5216 37.98C70.9482 38.6333 71.1616 39.4533 71.1616 40.44C71.1616 41.44 70.9482 42.2667 70.5216 42.92C70.0949 43.56 69.4949 44.04 68.7216 44.36C67.9482 44.68 67.0416 44.84 66.0016 44.84H63.0216V49.52C63.0216 49.6533 62.9749 49.7667 62.8816 49.86C62.8016 49.9533 62.6882 50 62.5416 50H60.6416ZM62.9816 42.62H65.9016C66.6749 42.62 67.2682 42.44 67.6816 42.08C68.0949 41.7067 68.3016 41.16 68.3016 40.44C68.3016 39.7733 68.1082 39.24 67.7216 38.84C67.3349 38.4267 66.7282 38.22 65.9016 38.22H62.9816V42.62ZM78.8063 50C78.6863 50 78.5863 49.96 78.5063 49.88C78.4263 49.7867 78.3863 49.68 78.3863 49.56C78.3863 49.5067 78.3996 49.4467 78.4263 49.38L83.2463 38.38H76.9663C76.8196 38.38 76.6996 38.3333 76.6063 38.24C76.5263 38.1467 76.4863 38.0333 76.4863 37.9V36.5C76.4863 36.3533 76.5263 36.2333 76.6063 36.14C76.6996 36.0467 76.8196 36 76.9663 36H85.7463C85.8929 36 86.0063 36.0467 86.0863 36.14C86.1796 36.2333 86.2263 36.3533 86.2263 36.5V37.74C86.2263 37.9267 86.2063 38.0867 86.1663 38.22C86.1396 38.34 86.0996 38.4667 86.0463 38.6L81.2663 49.52C81.2263 49.6133 81.1529 49.72 81.0462 49.84C80.9529 49.9467 80.8129 50 80.6263 50H78.8063ZM93.3256 50.2C92.379 50.2 91.5723 50.06 90.9056 49.78C90.239 49.5 89.6923 49.1133 89.2656 48.62C88.839 48.1267 88.519 47.56 88.3056 46.92C88.0923 46.2667 87.9656 45.5733 87.9256 44.84C87.9123 44.48 87.899 44.0867 87.8856 43.66C87.8856 43.22 87.8856 42.78 87.8856 42.34C87.899 41.9 87.9123 41.4933 87.9256 41.12C87.9523 40.3867 88.079 39.7 88.3056 39.06C88.5323 38.4067 88.859 37.84 89.2856 37.36C89.7256 36.88 90.279 36.5 90.9456 36.22C91.6123 35.94 92.4056 35.8 93.3256 35.8C94.259 35.8 95.059 35.94 95.7256 36.22C96.3923 36.5 96.939 36.88 97.3656 37.36C97.8056 37.84 98.1323 38.4067 98.3456 39.06C98.5723 39.7 98.699 40.3867 98.7256 41.12C98.7523 41.4933 98.7656 41.9 98.7656 42.34C98.7656 42.78 98.7656 43.22 98.7656 43.66C98.7656 44.0867 98.7523 44.48 98.7256 44.84C98.699 45.5733 98.579 46.2667 98.3656 46.92C98.1523 47.56 97.8323 48.1267 97.4056 48.62C96.979 49.1133 96.4256 49.5 95.7456 49.78C95.079 50.06 94.2723 50.2 93.3256 50.2ZM93.3256 47.9C94.1923 47.9 94.8256 47.62 95.2256 47.06C95.639 46.4867 95.8523 45.7133 95.8656 44.74C95.8923 44.3533 95.9056 43.9667 95.9056 43.58C95.9056 43.18 95.9056 42.78 95.9056 42.38C95.9056 41.98 95.8923 41.6 95.8656 41.24C95.8523 40.2933 95.639 39.5333 95.2256 38.96C94.8256 38.3733 94.1923 38.08 93.3256 38.08C92.4723 38.08 91.839 38.3733 91.4256 38.96C91.0256 39.5333 90.8123 40.2933 90.7856 41.24C90.7856 41.6 90.779 41.98 90.7656 42.38C90.7656 42.78 90.7656 43.18 90.7656 43.58C90.779 43.9667 90.7856 44.3533 90.7856 44.74C90.8123 45.7133 91.0323 46.4867 91.4456 47.06C91.859 47.62 92.4856 47.9 93.3256 47.9ZM102.11 50C101.83 50 101.69 49.8667 101.69 49.6C101.69 49.52 101.717 49.4467 101.77 49.38L111.63 36.38C111.723 36.26 111.817 36.1667 111.91 36.1C112.003 36.0333 112.137 36 112.31 36H113.37C113.65 36 113.79 36.1333 113.79 36.4C113.79 36.48 113.763 36.5533 113.71 36.62L103.85 49.62C103.757 49.74 103.663 49.8333 103.57 49.9C103.49 49.9667 103.357 50 103.17 50H102.11ZM111.73 50.12C110.837 50.12 110.13 49.8733 109.61 49.38C109.09 48.8867 108.803 48.24 108.75 47.44C108.737 47.0933 108.73 46.7933 108.73 46.54C108.73 46.2867 108.737 45.9733 108.75 45.6C108.803 44.8 109.077 44.1533 109.57 43.66C110.077 43.1667 110.797 42.92 111.73 42.92C112.677 42.92 113.397 43.1667 113.89 43.66C114.397 44.1533 114.67 44.8 114.71 45.6C114.737 45.9733 114.75 46.2867 114.75 46.54C114.75 46.7933 114.737 47.0933 114.71 47.44C114.67 48.24 114.383 48.8867 113.85 49.38C113.33 49.8733 112.623 50.12 111.73 50.12ZM111.73 48.56C112.023 48.56 112.25 48.5 112.41 48.38C112.583 48.26 112.71 48.1067 112.79 47.92C112.87 47.7333 112.91 47.5467 112.91 47.36C112.937 47.0267 112.95 46.7467 112.95 46.52C112.95 46.28 112.937 46.0067 112.91 45.7C112.897 45.3933 112.803 45.1133 112.63 44.86C112.457 44.5933 112.157 44.46 111.73 44.46C111.317 44.46 111.023 44.5933 110.85 44.86C110.677 45.1133 110.577 45.3933 110.55 45.7C110.537 46.0067 110.53 46.28 110.53 46.52C110.53 46.7467 110.537 47.0267 110.55 47.36C110.577 47.5467 110.623 47.7333 110.69 47.92C110.77 48.1067 110.89 48.26 111.05 48.38C111.223 48.5 111.45 48.56 111.73 48.56ZM103.75 43.04C102.857 43.04 102.15 42.8067 101.63 42.34C101.11 41.8733 100.823 41.24 100.77 40.44C100.757 40.0933 100.75 39.7933 100.75 39.54C100.75 39.2733 100.757 38.9533 100.77 38.58C100.823 37.78 101.097 37.1333 101.59 36.64C102.097 36.1467 102.817 35.9 103.75 35.9C104.697 35.9 105.417 36.1467 105.91 36.64C106.417 37.1333 106.69 37.78 106.73 38.58C106.757 38.9533 106.77 39.2733 106.77 39.54C106.77 39.7933 106.757 40.0933 106.73 40.44C106.69 41.24 106.403 41.8733 105.87 42.34C105.35 42.8067 104.643 43.04 103.75 43.04ZM103.75 41.56C104.043 41.56 104.27 41.5 104.43 41.38C104.603 41.26 104.73 41.1067 104.81 40.92C104.89 40.7333 104.93 40.54 104.93 40.34C104.957 40.0067 104.97 39.7267 104.97 39.5C104.97 39.26 104.957 38.9867 104.93 38.68C104.917 38.3733 104.823 38.0933 104.65 37.84C104.477 37.5867 104.177 37.46 103.75 37.46C103.337 37.46 103.043 37.5867 102.87 37.84C102.697 38.0933 102.603 38.3733 102.59 38.68C102.577 38.9867 102.57 39.26 102.57 39.5C102.57 39.7267 102.577 40.0067 102.59 40.34C102.603 40.54 102.643 40.7333 102.71 40.92C102.79 41.1067 102.91 41.26 103.07 41.38C103.243 41.5 103.47 41.56 103.75 41.56ZM117.334 43C117.2 43 117.087 42.9533 116.994 42.86C116.9 42.7667 116.854 42.6533 116.854 42.52V40.62C116.854 40.4733 116.9 40.3533 116.994 40.26C117.087 40.1667 117.2 40.12 117.334 40.12H119.314C119.46 40.12 119.58 40.1667 119.674 40.26C119.767 40.3533 119.814 40.4733 119.814 40.62V42.52C119.814 42.6533 119.767 42.7667 119.674 42.86C119.58 42.9533 119.46 43 119.314 43H117.334ZM117.334 50C117.2 50 117.087 49.9533 116.994 49.86C116.9 49.7667 116.854 49.6533 116.854 49.52V47.62C116.854 47.4733 116.9 47.3533 116.994 47.26C117.087 47.1667 117.2 47.12 117.334 47.12H119.314C119.46 47.12 119.58 47.1667 119.674 47.26C119.767 47.3533 119.814 47.4733 119.814 47.62V49.52C119.814 49.6533 119.767 49.7667 119.674 49.86C119.58 49.9533 119.46 50 119.314 50H117.334Z" fill="#9D5B3E"/>
<path d="M128.552 50C128.432 50 128.332 49.96 128.252 49.88C128.172 49.7867 128.132 49.68 128.132 49.56C128.132 49.5067 128.146 49.4467 128.172 49.38L132.992 38.38H126.712C126.566 38.38 126.446 38.3333 126.352 38.24C126.272 38.1467 126.232 38.0333 126.232 37.9V36.5C126.232 36.3533 126.272 36.2333 126.352 36.14C126.446 36.0467 126.566 36 126.712 36H135.492C135.639 36 135.752 36.0467 135.832 36.14C135.926 36.2333 135.972 36.3533 135.972 36.5V37.74C135.972 37.9267 135.952 38.0867 135.912 38.22C135.886 38.34 135.846 38.4667 135.792 38.6L131.012 49.52C130.972 49.6133 130.899 49.72 130.792 49.84C130.699 49.9467 130.559 50 130.372 50H128.552ZM143.072 50.2C142.125 50.2 141.318 50.06 140.652 49.78C139.985 49.5 139.438 49.1133 139.012 48.62C138.585 48.1267 138.265 47.56 138.052 46.92C137.838 46.2667 137.712 45.5733 137.672 44.84C137.658 44.48 137.645 44.0867 137.632 43.66C137.632 43.22 137.632 42.78 137.632 42.34C137.645 41.9 137.658 41.4933 137.672 41.12C137.698 40.3867 137.825 39.7 138.052 39.06C138.278 38.4067 138.605 37.84 139.032 37.36C139.472 36.88 140.025 36.5 140.692 36.22C141.358 35.94 142.152 35.8 143.072 35.8C144.005 35.8 144.805 35.94 145.472 36.22C146.138 36.5 146.685 36.88 147.112 37.36C147.552 37.84 147.878 38.4067 148.092 39.06C148.318 39.7 148.445 40.3867 148.472 41.12C148.498 41.4933 148.512 41.9 148.512 42.34C148.512 42.78 148.512 43.22 148.512 43.66C148.512 44.0867 148.498 44.48 148.472 44.84C148.445 45.5733 148.325 46.2667 148.112 46.92C147.898 47.56 147.578 48.1267 147.152 48.62C146.725 49.1133 146.172 49.5 145.492 49.78C144.825 50.06 144.018 50.2 143.072 50.2ZM143.072 47.9C143.938 47.9 144.572 47.62 144.972 47.06C145.385 46.4867 145.598 45.7133 145.612 44.74C145.638 44.3533 145.652 43.9667 145.652 43.58C145.652 43.18 145.652 42.78 145.652 42.38C145.652 41.98 145.638 41.6 145.612 41.24C145.598 40.2933 145.385 39.5333 144.972 38.96C144.572 38.3733 143.938 38.08 143.072 38.08C142.218 38.08 141.585 38.3733 141.172 38.96C140.772 39.5333 140.558 40.2933 140.532 41.24C140.532 41.6 140.525 41.98 140.512 42.38C140.512 42.78 140.512 43.18 140.512 43.58C140.525 43.9667 140.532 44.3533 140.532 44.74C140.558 45.7133 140.778 46.4867 141.192 47.06C141.605 47.62 142.232 47.9 143.072 47.9ZM156.216 50.2C155.27 50.2 154.463 50.06 153.796 49.78C153.13 49.5 152.583 49.1133 152.156 48.62C151.73 48.1267 151.41 47.56 151.196 46.92C150.983 46.2667 150.856 45.5733 150.816 44.84C150.803 44.48 150.79 44.0867 150.776 43.66C150.776 43.22 150.776 42.78 150.776 42.34C150.79 41.9 150.803 41.4933 150.816 41.12C150.843 40.3867 150.97 39.7 151.196 39.06C151.423 38.4067 151.75 37.84 152.176 37.36C152.616 36.88 153.17 36.5 153.836 36.22C154.503 35.94 155.296 35.8 156.216 35.8C157.15 35.8 157.95 35.94 158.616 36.22C159.283 36.5 159.83 36.88 160.256 37.36C160.696 37.84 161.023 38.4067 161.236 39.06C161.463 39.7 161.59 40.3867 161.616 41.12C161.643 41.4933 161.656 41.9 161.656 42.34C161.656 42.78 161.656 43.22 161.656 43.66C161.656 44.0867 161.643 44.48 161.616 44.84C161.59 45.5733 161.47 46.2667 161.256 46.92C161.043 47.56 160.723 48.1267 160.296 48.62C159.87 49.1133 159.316 49.5 158.636 49.78C157.97 50.06 157.163 50.2 156.216 50.2ZM156.216 47.9C157.083 47.9 157.716 47.62 158.116 47.06C158.53 46.4867 158.743 45.7133 158.756 44.74C158.783 44.3533 158.796 43.9667 158.796 43.58C158.796 43.18 158.796 42.78 158.796 42.38C158.796 41.98 158.783 41.6 158.756 41.24C158.743 40.2933 158.53 39.5333 158.116 38.96C157.716 38.3733 157.083 38.08 156.216 38.08C155.363 38.08 154.73 38.3733 154.316 38.96C153.916 39.5333 153.703 40.2933 153.676 41.24C153.676 41.6 153.67 41.98 153.656 42.38C153.656 42.78 153.656 43.18 153.656 43.58C153.67 43.9667 153.676 44.3533 153.676 44.74C153.703 45.7133 153.923 46.4867 154.336 47.06C154.75 47.62 155.376 47.9 156.216 47.9ZM163.786 51.5C163.666 51.5 163.573 51.46 163.506 51.38C163.439 51.3 163.413 51.2 163.426 51.08L163.966 47.68C163.993 47.5067 164.053 47.36 164.146 47.24C164.253 47.1067 164.406 47.04 164.606 47.04H166.446C166.553 47.04 166.639 47.08 166.706 47.16C166.773 47.2267 166.806 47.3133 166.806 47.42C166.806 47.5133 166.786 47.6 166.746 47.68L165.466 51C165.413 51.1333 165.333 51.2467 165.226 51.34C165.133 51.4467 164.993 51.5 164.806 51.5H163.786ZM174.205 50.2C173.258 50.2 172.451 50.06 171.785 49.78C171.118 49.5 170.571 49.1133 170.145 48.62C169.718 48.1267 169.398 47.56 169.185 46.92C168.971 46.2667 168.845 45.5733 168.805 44.84C168.791 44.48 168.778 44.0867 168.765 43.66C168.765 43.22 168.765 42.78 168.765 42.34C168.778 41.9 168.791 41.4933 168.805 41.12C168.831 40.3867 168.958 39.7 169.185 39.06C169.411 38.4067 169.738 37.84 170.165 37.36C170.605 36.88 171.158 36.5 171.825 36.22C172.491 35.94 173.285 35.8 174.205 35.8C175.138 35.8 175.938 35.94 176.605 36.22C177.271 36.5 177.818 36.88 178.245 37.36C178.685 37.84 179.011 38.4067 179.225 39.06C179.451 39.7 179.578 40.3867 179.605 41.12C179.631 41.4933 179.645 41.9 179.645 42.34C179.645 42.78 179.645 43.22 179.645 43.66C179.645 44.0867 179.631 44.48 179.605 44.84C179.578 45.5733 179.458 46.2667 179.245 46.92C179.031 47.56 178.711 48.1267 178.285 48.62C177.858 49.1133 177.305 49.5 176.625 49.78C175.958 50.06 175.151 50.2 174.205 50.2ZM174.205 47.9C175.071 47.9 175.705 47.62 176.105 47.06C176.518 46.4867 176.731 45.7133 176.745 44.74C176.771 44.3533 176.785 43.9667 176.785 43.58C176.785 43.18 176.785 42.78 176.785 42.38C176.785 41.98 176.771 41.6 176.745 41.24C176.731 40.2933 176.518 39.5333 176.105 38.96C175.705 38.3733 175.071 38.08 174.205 38.08C173.351 38.08 172.718 38.3733 172.305 38.96C171.905 39.5333 171.691 40.2933 171.665 41.24C171.665 41.6 171.658 41.98 171.645 42.38C171.645 42.78 171.645 43.18 171.645 43.58C171.658 43.9667 171.665 44.3533 171.665 44.74C171.691 45.7133 171.911 46.4867 172.325 47.06C172.738 47.62 173.365 47.9 174.205 47.9ZM187.349 50.2C186.402 50.2 185.596 50.06 184.929 49.78C184.262 49.5 183.716 49.1133 183.289 48.62C182.862 48.1267 182.542 47.56 182.329 46.92C182.116 46.2667 181.989 45.5733 181.949 44.84C181.936 44.48 181.922 44.0867 181.909 43.66C181.909 43.22 181.909 42.78 181.909 42.34C181.922 41.9 181.936 41.4933 181.949 41.12C181.976 40.3867 182.102 39.7 182.329 39.06C182.556 38.4067 182.882 37.84 183.309 37.36C183.749 36.88 184.302 36.5 184.969 36.22C185.636 35.94 186.429 35.8 187.349 35.8C188.282 35.8 189.082 35.94 189.749 36.22C190.416 36.5 190.962 36.88 191.389 37.36C191.829 37.84 192.156 38.4067 192.369 39.06C192.596 39.7 192.722 40.3867 192.749 41.12C192.776 41.4933 192.789 41.9 192.789 42.34C192.789 42.78 192.789 43.22 192.789 43.66C192.789 44.0867 192.776 44.48 192.749 44.84C192.722 45.5733 192.602 46.2667 192.389 46.92C192.176 47.56 191.856 48.1267 191.429 48.62C191.002 49.1133 190.449 49.5 189.769 49.78C189.102 50.06 188.296 50.2 187.349 50.2ZM187.349 47.9C188.216 47.9 188.849 47.62 189.249 47.06C189.662 46.4867 189.876 45.7133 189.889 44.74C189.916 44.3533 189.929 43.9667 189.929 43.58C189.929 43.18 189.929 42.78 189.929 42.38C189.929 41.98 189.916 41.6 189.889 41.24C189.876 40.2933 189.662 39.5333 189.249 38.96C188.849 38.3733 188.216 38.08 187.349 38.08C186.496 38.08 185.862 38.3733 185.449 38.96C185.049 39.5333 184.836 40.2933 184.809 41.24C184.809 41.6 184.802 41.98 184.789 42.38C184.789 42.78 184.789 43.18 184.789 43.58C184.802 43.9667 184.809 44.3533 184.809 44.74C184.836 45.7133 185.056 46.4867 185.469 47.06C185.882 47.62 186.509 47.9 187.349 47.9ZM200.494 50.2C199.547 50.2 198.74 50.06 198.074 49.78C197.407 49.5 196.86 49.1133 196.434 48.62C196.007 48.1267 195.687 47.56 195.474 46.92C195.26 46.2667 195.134 45.5733 195.094 44.84C195.08 44.48 195.067 44.0867 195.054 43.66C195.054 43.22 195.054 42.78 195.054 42.34C195.067 41.9 195.08 41.4933 195.094 41.12C195.12 40.3867 195.247 39.7 195.474 39.06C195.7 38.4067 196.027 37.84 196.454 37.36C196.894 36.88 197.447 36.5 198.114 36.22C198.78 35.94 199.574 35.8 200.494 35.8C201.427 35.8 202.227 35.94 202.894 36.22C203.56 36.5 204.107 36.88 204.534 37.36C204.974 37.84 205.3 38.4067 205.514 39.06C205.74 39.7 205.867 40.3867 205.894 41.12C205.92 41.4933 205.934 41.9 205.934 42.34C205.934 42.78 205.934 43.22 205.934 43.66C205.934 44.0867 205.92 44.48 205.894 44.84C205.867 45.5733 205.747 46.2667 205.534 46.92C205.32 47.56 205 48.1267 204.574 48.62C204.147 49.1133 203.594 49.5 202.914 49.78C202.247 50.06 201.44 50.2 200.494 50.2ZM200.494 47.9C201.36 47.9 201.994 47.62 202.394 47.06C202.807 46.4867 203.02 45.7133 203.034 44.74C203.06 44.3533 203.074 43.9667 203.074 43.58C203.074 43.18 203.074 42.78 203.074 42.38C203.074 41.98 203.06 41.6 203.034 41.24C203.02 40.2933 202.807 39.5333 202.394 38.96C201.994 38.3733 201.36 38.08 200.494 38.08C199.64 38.08 199.007 38.3733 198.594 38.96C198.194 39.5333 197.98 40.2933 197.954 41.24C197.954 41.6 197.947 41.98 197.934 42.38C197.934 42.78 197.934 43.18 197.934 43.58C197.947 43.9667 197.954 44.3533 197.954 44.74C197.98 45.7133 198.2 46.4867 198.614 47.06C199.027 47.62 199.654 47.9 200.494 47.9ZM208.063 51.5C207.943 51.5 207.85 51.46 207.783 51.38C207.717 51.3 207.69 51.2 207.703 51.08L208.243 47.68C208.27 47.5067 208.33 47.36 208.423 47.24C208.53 47.1067 208.683 47.04 208.883 47.04H210.723C210.83 47.04 210.917 47.08 210.983 47.16C211.05 47.2267 211.083 47.3133 211.083 47.42C211.083 47.5133 211.063 47.6 211.023 47.68L209.743 51C209.69 51.1333 209.61 51.2467 209.503 51.34C209.41 51.4467 209.27 51.5 209.083 51.5H208.063ZM218.482 50.2C217.535 50.2 216.729 50.06 216.062 49.78C215.395 49.5 214.849 49.1133 214.422 48.62C213.995 48.1267 213.675 47.56 213.462 46.92C213.249 46.2667 213.122 45.5733 213.082 44.84C213.069 44.48 213.055 44.0867 213.042 43.66C213.042 43.22 213.042 42.78 213.042 42.34C213.055 41.9 213.069 41.4933 213.082 41.12C213.109 40.3867 213.235 39.7 213.462 39.06C213.689 38.4067 214.015 37.84 214.442 37.36C214.882 36.88 215.435 36.5 216.102 36.22C216.769 35.94 217.562 35.8 218.482 35.8C219.415 35.8 220.215 35.94 220.882 36.22C221.549 36.5 222.095 36.88 222.522 37.36C222.962 37.84 223.289 38.4067 223.502 39.06C223.729 39.7 223.855 40.3867 223.882 41.12C223.909 41.4933 223.922 41.9 223.922 42.34C223.922 42.78 223.922 43.22 223.922 43.66C223.922 44.0867 223.909 44.48 223.882 44.84C223.855 45.5733 223.735 46.2667 223.522 46.92C223.309 47.56 222.989 48.1267 222.562 48.62C222.135 49.1133 221.582 49.5 220.902 49.78C220.235 50.06 219.429 50.2 218.482 50.2ZM218.482 47.9C219.349 47.9 219.982 47.62 220.382 47.06C220.795 46.4867 221.009 45.7133 221.022 44.74C221.049 44.3533 221.062 43.9667 221.062 43.58C221.062 43.18 221.062 42.78 221.062 42.38C221.062 41.98 221.049 41.6 221.022 41.24C221.009 40.2933 220.795 39.5333 220.382 38.96C219.982 38.3733 219.349 38.08 218.482 38.08C217.629 38.08 216.995 38.3733 216.582 38.96C216.182 39.5333 215.969 40.2933 215.942 41.24C215.942 41.6 215.935 41.98 215.922 42.38C215.922 42.78 215.922 43.18 215.922 43.58C215.935 43.9667 215.942 44.3533 215.942 44.74C215.969 45.7133 216.189 46.4867 216.602 47.06C217.015 47.62 217.642 47.9 218.482 47.9ZM231.626 50.2C230.68 50.2 229.873 50.06 229.206 49.78C228.54 49.5 227.993 49.1133 227.566 48.62C227.14 48.1267 226.82 47.56 226.606 46.92C226.393 46.2667 226.266 45.5733 226.226 44.84C226.213 44.48 226.2 44.0867 226.186 43.66C226.186 43.22 226.186 42.78 226.186 42.34C226.2 41.9 226.213 41.4933 226.226 41.12C226.253 40.3867 226.38 39.7 226.606 39.06C226.833 38.4067 227.16 37.84 227.586 37.36C228.026 36.88 228.58 36.5 229.246 36.22C229.913 35.94 230.706 35.8 231.626 35.8C232.56 35.8 233.36 35.94 234.026 36.22C234.693 36.5 235.24 36.88 235.666 37.36C236.106 37.84 236.433 38.4067 236.646 39.06C236.873 39.7 237 40.3867 237.026 41.12C237.053 41.4933 237.066 41.9 237.066 42.34C237.066 42.78 237.066 43.22 237.066 43.66C237.066 44.0867 237.053 44.48 237.026 44.84C237 45.5733 236.88 46.2667 236.666 46.92C236.453 47.56 236.133 48.1267 235.706 48.62C235.28 49.1133 234.726 49.5 234.046 49.78C233.38 50.06 232.573 50.2 231.626 50.2ZM231.626 47.9C232.493 47.9 233.126 47.62 233.526 47.06C233.94 46.4867 234.153 45.7133 234.166 44.74C234.193 44.3533 234.206 43.9667 234.206 43.58C234.206 43.18 234.206 42.78 234.206 42.38C234.206 41.98 234.193 41.6 234.166 41.24C234.153 40.2933 233.94 39.5333 233.526 38.96C233.126 38.3733 232.493 38.08 231.626 38.08C230.773 38.08 230.14 38.3733 229.726 38.96C229.326 39.5333 229.113 40.2933 229.086 41.24C229.086 41.6 229.08 41.98 229.066 42.38C229.066 42.78 229.066 43.18 229.066 43.58C229.08 43.9667 229.086 44.3533 229.086 44.74C229.113 45.7133 229.333 46.4867 229.746 47.06C230.16 47.62 230.786 47.9 231.626 47.9ZM244.771 50.2C243.824 50.2 243.018 50.06 242.351 49.78C241.684 49.5 241.138 49.1133 240.711 48.62C240.284 48.1267 239.964 47.56 239.751 46.92C239.538 46.2667 239.411 45.5733 239.371 44.84C239.358 44.48 239.344 44.0867 239.331 43.66C239.331 43.22 239.331 42.78 239.331 42.34C239.344 41.9 239.358 41.4933 239.371 41.12C239.398 40.3867 239.524 39.7 239.751 39.06C239.978 38.4067 240.304 37.84 240.731 37.36C241.171 36.88 241.724 36.5 242.391 36.22C243.058 35.94 243.851 35.8 244.771 35.8C245.704 35.8 246.504 35.94 247.171 36.22C247.838 36.5 248.384 36.88 248.811 37.36C249.251 37.84 249.578 38.4067 249.791 39.06C250.018 39.7 250.144 40.3867 250.171 41.12C250.198 41.4933 250.211 41.9 250.211 42.34C250.211 42.78 250.211 43.22 250.211 43.66C250.211 44.0867 250.198 44.48 250.171 44.84C250.144 45.5733 250.024 46.2667 249.811 46.92C249.598 47.56 249.278 48.1267 248.851 48.62C248.424 49.1133 247.871 49.5 247.191 49.78C246.524 50.06 245.718 50.2 244.771 50.2ZM244.771 47.9C245.638 47.9 246.271 47.62 246.671 47.06C247.084 46.4867 247.298 45.7133 247.311 44.74C247.338 44.3533 247.351 43.9667 247.351 43.58C247.351 43.18 247.351 42.78 247.351 42.38C247.351 41.98 247.338 41.6 247.311 41.24C247.298 40.2933 247.084 39.5333 246.671 38.96C246.271 38.3733 245.638 38.08 244.771 38.08C243.918 38.08 243.284 38.3733 242.871 38.96C242.471 39.5333 242.258 40.2933 242.231 41.24C242.231 41.6 242.224 41.98 242.211 42.38C242.211 42.78 242.211 43.18 242.211 43.58C242.224 43.9667 242.231 44.3533 242.231 44.74C242.258 45.7133 242.478 46.4867 242.891 47.06C243.304 47.62 243.931 47.9 244.771 47.9ZM257.966 50C257.832 50 257.719 49.9533 257.626 49.86C257.532 49.7667 257.486 49.6533 257.486 49.52V36.5C257.486 36.3533 257.532 36.2333 257.626 36.14C257.719 36.0467 257.832 36 257.966 36H266.646C266.792 36 266.912 36.0467 267.006 36.14C267.099 36.2333 267.146 36.3533 267.146 36.5V37.9C267.146 38.0467 267.099 38.1667 267.006 38.26C266.912 38.34 266.792 38.38 266.646 38.38H260.226V42.18H266.246C266.392 42.18 266.512 42.2267 266.606 42.32C266.699 42.4133 266.746 42.5333 266.746 42.68V44.08C266.746 44.2133 266.699 44.3267 266.606 44.42C266.512 44.5133 266.392 44.56 266.246 44.56H260.226V49.52C260.226 49.6533 260.179 49.7667 260.086 49.86C259.992 49.9533 259.872 50 259.726 50H257.966ZM267.817 50C267.711 50 267.611 49.96 267.517 49.88C267.437 49.8 267.397 49.7 267.397 49.58C267.397 49.5267 267.411 49.4667 267.437 49.4L272.257 36.5C272.297 36.3667 272.371 36.2533 272.477 36.16C272.597 36.0533 272.757 36 272.957 36H275.137C275.337 36 275.491 36.0533 275.597 36.16C275.704 36.2533 275.784 36.3667 275.837 36.5L280.657 49.4C280.671 49.4667 280.677 49.5267 280.677 49.58C280.677 49.7 280.637 49.8 280.557 49.88C280.477 49.96 280.384 50 280.277 50H278.537C278.351 50 278.211 49.96 278.117 49.88C278.037 49.7867 277.984 49.7 277.957 49.62L277.017 47.18H271.077L270.137 49.62C270.111 49.7 270.051 49.7867 269.957 49.88C269.877 49.96 269.744 50 269.557 50H267.817ZM271.777 44.88H276.317L274.037 38.7L271.777 44.88ZM283.024 50C282.891 50 282.778 49.9533 282.684 49.86C282.591 49.7667 282.544 49.6533 282.544 49.52V36.48C282.544 36.3467 282.591 36.2333 282.684 36.14C282.778 36.0467 282.891 36 283.024 36H284.904C285.051 36 285.164 36.0467 285.244 36.14C285.338 36.2333 285.384 36.3467 285.384 36.48V49.52C285.384 49.6533 285.338 49.7667 285.244 49.86C285.164 49.9533 285.051 50 284.904 50H283.024Z" fill="white"/>
<path d="M49.04 159C48.9067 159 48.7933 158.953 48.7 158.86C48.6067 158.767 48.56 158.653 48.56 158.52V145.5C48.56 145.353 48.6067 145.233 48.7 145.14C48.7933 145.047 48.9067 145 49.04 145H57.84C57.9867 145 58.1067 145.047 58.2 145.14C58.2933 145.233 58.34 145.353 58.34 145.5V146.82C58.34 146.953 58.2933 147.067 58.2 147.16C58.1067 147.253 57.9867 147.3 57.84 147.3H51.26V150.84H57.4C57.5467 150.84 57.6667 150.887 57.76 150.98C57.8533 151.06 57.9 151.173 57.9 151.32V152.56C57.9 152.707 57.8533 152.827 57.76 152.92C57.6667 153 57.5467 153.04 57.4 153.04H51.26V156.7H58C58.1467 156.7 58.2667 156.747 58.36 156.84C58.4533 156.933 58.5 157.053 58.5 157.2V158.52C58.5 158.653 58.4533 158.767 58.36 158.86C58.2667 158.953 58.1467 159 58 159H49.04ZM65.1833 159.2C64.2233 159.2 63.3766 159.02 62.6433 158.66C61.9233 158.3 61.3566 157.78 60.9433 157.1C60.5433 156.407 60.3233 155.573 60.2833 154.6C60.2699 154.4 60.2633 154.14 60.2633 153.82C60.2633 153.487 60.2699 153.213 60.2833 153C60.3233 152.027 60.5433 151.2 60.9433 150.52C61.3566 149.827 61.9233 149.3 62.6433 148.94C63.3766 148.58 64.2233 148.4 65.1833 148.4C66.0366 148.4 66.7633 148.52 67.3633 148.76C67.9633 149 68.4566 149.3 68.8433 149.66C69.2299 150.02 69.5166 150.4 69.7033 150.8C69.9033 151.187 70.0099 151.54 70.0233 151.86C70.0366 152.007 69.9899 152.127 69.8833 152.22C69.7899 152.3 69.6766 152.34 69.5433 152.34H67.7833C67.6499 152.34 67.5433 152.307 67.4633 152.24C67.3966 152.173 67.3299 152.073 67.2633 151.94C67.0633 151.407 66.7966 151.033 66.4633 150.82C66.1433 150.593 65.7299 150.48 65.2233 150.48C64.5566 150.48 64.0233 150.693 63.6233 151.12C63.2366 151.533 63.0299 152.193 63.0033 153.1C62.9766 153.607 62.9766 154.073 63.0033 154.5C63.0299 155.42 63.2366 156.087 63.6233 156.5C64.0233 156.913 64.5566 157.12 65.2233 157.12C65.7433 157.12 66.1633 157.013 66.4833 156.8C66.8033 156.573 67.0633 156.193 67.2633 155.66C67.3299 155.527 67.3966 155.427 67.4633 155.36C67.5433 155.293 67.6499 155.26 67.7833 155.26H69.5433C69.6766 155.26 69.7899 155.307 69.8833 155.4C69.9899 155.48 70.0366 155.593 70.0233 155.74C70.0099 155.98 69.9433 156.253 69.8233 156.56C69.7166 156.853 69.5366 157.16 69.2833 157.48C69.0433 157.787 68.7366 158.073 68.3633 158.34C67.9899 158.593 67.5366 158.8 67.0033 158.96C66.4833 159.12 65.8766 159.2 65.1833 159.2ZM76.7091 159.2C75.6424 159.2 74.7424 159.013 74.0091 158.64C73.2891 158.267 72.7357 157.74 72.3491 157.06C71.9757 156.38 71.7624 155.587 71.7091 154.68C71.6957 154.44 71.6891 154.147 71.6891 153.8C71.6891 153.453 71.6957 153.16 71.7091 152.92C71.7624 152 71.9824 151.207 72.3691 150.54C72.7691 149.86 73.3291 149.333 74.0491 148.96C74.7824 148.587 75.6691 148.4 76.7091 148.4C77.7491 148.4 78.6291 148.587 79.3491 148.96C80.0824 149.333 80.6424 149.86 81.0291 150.54C81.4291 151.207 81.6557 152 81.7091 152.92C81.7224 153.16 81.7291 153.453 81.7291 153.8C81.7291 154.147 81.7224 154.44 81.7091 154.68C81.6557 155.587 81.4357 156.38 81.0491 157.06C80.6757 157.74 80.1224 158.267 79.3891 158.64C78.6691 159.013 77.7757 159.2 76.7091 159.2ZM76.7091 157.22C77.4157 157.22 77.9624 157 78.3491 156.56C78.7357 156.107 78.9491 155.447 78.9891 154.58C79.0024 154.38 79.0091 154.12 79.0091 153.8C79.0091 153.48 79.0024 153.22 78.9891 153.02C78.9491 152.167 78.7357 151.513 78.3491 151.06C77.9624 150.607 77.4157 150.38 76.7091 150.38C76.0024 150.38 75.4557 150.607 75.0691 151.06C74.6824 151.513 74.4691 152.167 74.4291 153.02C74.4157 153.22 74.4091 153.48 74.4091 153.8C74.4091 154.12 74.4157 154.38 74.4291 154.58C74.4691 155.447 74.6824 156.107 75.0691 156.56C75.4557 157 76.0024 157.22 76.7091 157.22ZM87.885 159.2C87.085 159.2 86.3983 159.107 85.825 158.92C85.265 158.733 84.805 158.5 84.445 158.22C84.085 157.94 83.8183 157.66 83.645 157.38C83.4717 157.1 83.3783 156.867 83.365 156.68C83.3517 156.533 83.3917 156.42 83.485 156.34C83.5917 156.247 83.705 156.2 83.825 156.2H85.405C85.4583 156.2 85.505 156.207 85.545 156.22C85.585 156.233 85.6383 156.273 85.705 156.34C85.8783 156.487 86.0583 156.64 86.245 156.8C86.445 156.96 86.6783 157.1 86.945 157.22C87.2117 157.327 87.545 157.38 87.945 157.38C88.465 157.38 88.8983 157.28 89.245 157.08C89.605 156.867 89.785 156.567 89.785 156.18C89.785 155.9 89.705 155.673 89.545 155.5C89.3983 155.327 89.1183 155.173 88.705 155.04C88.2917 154.893 87.705 154.74 86.945 154.58C86.1983 154.407 85.5783 154.187 85.085 153.92C84.5917 153.653 84.225 153.32 83.985 152.92C83.745 152.52 83.625 152.053 83.625 151.52C83.625 151 83.7783 150.507 84.085 150.04C84.405 149.56 84.8717 149.167 85.485 148.86C86.1117 148.553 86.885 148.4 87.805 148.4C88.525 148.4 89.1517 148.493 89.685 148.68C90.2183 148.853 90.6583 149.073 91.005 149.34C91.365 149.607 91.6383 149.88 91.825 150.16C92.0117 150.427 92.1117 150.66 92.125 150.86C92.1383 151.007 92.0983 151.127 92.005 151.22C91.9117 151.3 91.805 151.34 91.685 151.34H90.205C90.1383 151.34 90.0783 151.327 90.025 151.3C89.9717 151.273 89.9183 151.24 89.865 151.2C89.7183 151.067 89.5583 150.927 89.385 150.78C89.2117 150.633 88.9983 150.507 88.745 150.4C88.505 150.28 88.185 150.22 87.785 150.22C87.2783 150.22 86.8917 150.333 86.625 150.56C86.3583 150.773 86.225 151.047 86.225 151.38C86.225 151.607 86.285 151.807 86.405 151.98C86.5383 152.14 86.7983 152.293 87.185 152.44C87.5717 152.587 88.1583 152.74 88.945 152.9C89.8383 153.06 90.545 153.3 91.065 153.62C91.5983 153.927 91.9717 154.287 92.185 154.7C92.4117 155.1 92.525 155.547 92.525 156.04C92.525 156.64 92.345 157.18 91.985 157.66C91.6383 158.14 91.1183 158.52 90.425 158.8C89.745 159.067 88.8983 159.2 87.885 159.2ZM96.0789 162.8C95.9722 162.8 95.8789 162.76 95.7989 162.68C95.7189 162.6 95.6789 162.507 95.6789 162.4C95.6789 162.347 95.6789 162.293 95.6789 162.24C95.6922 162.2 95.7189 162.147 95.7589 162.08L97.3189 158.38L93.4789 149.32C93.4256 149.187 93.3989 149.093 93.3989 149.04C93.4122 148.92 93.4589 148.82 93.5389 148.74C93.6189 148.647 93.7189 148.6 93.8389 148.6H95.4589C95.6189 148.6 95.7389 148.64 95.8189 148.72C95.8989 148.8 95.9589 148.887 95.9989 148.98L98.6589 155.52L101.399 148.98C101.439 148.873 101.499 148.787 101.579 148.72C101.659 148.64 101.779 148.6 101.939 148.6H103.539C103.646 148.6 103.739 148.64 103.819 148.72C103.912 148.8 103.959 148.893 103.959 149C103.959 149.08 103.932 149.187 103.879 149.32L98.2189 162.42C98.1656 162.527 98.0989 162.613 98.0189 162.68C97.9389 162.76 97.8189 162.8 97.6589 162.8H96.0789ZM109.311 159.2C108.511 159.2 107.824 159.107 107.251 158.92C106.691 158.733 106.231 158.5 105.871 158.22C105.511 157.94 105.244 157.66 105.071 157.38C104.897 157.1 104.804 156.867 104.791 156.68C104.777 156.533 104.817 156.42 104.911 156.34C105.017 156.247 105.131 156.2 105.251 156.2H106.831C106.884 156.2 106.931 156.207 106.971 156.22C107.011 156.233 107.064 156.273 107.131 156.34C107.304 156.487 107.484 156.64 107.671 156.8C107.871 156.96 108.104 157.1 108.371 157.22C108.637 157.327 108.971 157.38 109.371 157.38C109.891 157.38 110.324 157.28 110.671 157.08C111.031 156.867 111.211 156.567 111.211 156.18C111.211 155.9 111.131 155.673 110.971 155.5C110.824 155.327 110.544 155.173 110.131 155.04C109.717 154.893 109.131 154.74 108.371 154.58C107.624 154.407 107.004 154.187 106.511 153.92C106.017 153.653 105.651 153.32 105.411 152.92C105.171 152.52 105.051 152.053 105.051 151.52C105.051 151 105.204 150.507 105.511 150.04C105.831 149.56 106.297 149.167 106.911 148.86C107.537 148.553 108.311 148.4 109.231 148.4C109.951 148.4 110.577 148.493 111.111 148.68C111.644 148.853 112.084 149.073 112.431 149.34C112.791 149.607 113.064 149.88 113.251 150.16C113.437 150.427 113.537 150.66 113.551 150.86C113.564 151.007 113.524 151.127 113.431 151.22C113.337 151.3 113.231 151.34 113.111 151.34H111.631C111.564 151.34 111.504 151.327 111.451 151.3C111.397 151.273 111.344 151.24 111.291 151.2C111.144 151.067 110.984 150.927 110.811 150.78C110.637 150.633 110.424 150.507 110.171 150.4C109.931 150.28 109.611 150.22 109.211 150.22C108.704 150.22 108.317 150.333 108.051 150.56C107.784 150.773 107.651 151.047 107.651 151.38C107.651 151.607 107.711 151.807 107.831 151.98C107.964 152.14 108.224 152.293 108.611 152.44C108.997 152.587 109.584 152.74 110.371 152.9C111.264 153.06 111.971 153.3 112.491 153.62C113.024 153.927 113.397 154.287 113.611 154.7C113.837 155.1 113.951 155.547 113.951 156.04C113.951 156.64 113.771 157.18 113.411 157.66C113.064 158.14 112.544 158.52 111.851 158.8C111.171 159.067 110.324 159.2 109.311 159.2ZM120.676 159C119.876 159 119.203 158.86 118.656 158.58C118.11 158.3 117.703 157.887 117.436 157.34C117.17 156.78 117.036 156.087 117.036 155.26V150.72H115.456C115.323 150.72 115.21 150.673 115.116 150.58C115.023 150.487 114.976 150.373 114.976 150.24V149.08C114.976 148.947 115.023 148.833 115.116 148.74C115.21 148.647 115.323 148.6 115.456 148.6H117.036V145.28C117.036 145.147 117.076 145.033 117.156 144.94C117.25 144.847 117.37 144.8 117.516 144.8H119.136C119.27 144.8 119.383 144.847 119.476 144.94C119.57 145.033 119.616 145.147 119.616 145.28V148.6H122.116C122.25 148.6 122.363 148.647 122.456 148.74C122.55 148.833 122.596 148.947 122.596 149.08V150.24C122.596 150.373 122.55 150.487 122.456 150.58C122.363 150.673 122.25 150.72 122.116 150.72H119.616V155.06C119.616 155.607 119.71 156.033 119.896 156.34C120.096 156.647 120.436 156.8 120.916 156.8H122.296C122.43 156.8 122.543 156.847 122.636 156.94C122.73 157.033 122.776 157.147 122.776 157.28V158.52C122.776 158.653 122.73 158.767 122.636 158.86C122.543 158.953 122.43 159 122.296 159H120.676ZM129.03 159.2C127.55 159.2 126.377 158.773 125.51 157.92C124.644 157.067 124.177 155.853 124.11 154.28C124.097 154.147 124.09 153.98 124.09 153.78C124.09 153.567 124.097 153.4 124.11 153.28C124.164 152.28 124.39 151.413 124.79 150.68C125.204 149.947 125.77 149.387 126.49 149C127.21 148.6 128.057 148.4 129.03 148.4C130.11 148.4 131.017 148.627 131.75 149.08C132.484 149.52 133.037 150.14 133.41 150.94C133.784 151.727 133.97 152.64 133.97 153.68V154.1C133.97 154.233 133.924 154.347 133.83 154.44C133.737 154.533 133.617 154.58 133.47 154.58H126.83C126.83 154.58 126.83 154.6 126.83 154.64C126.83 154.68 126.83 154.713 126.83 154.74C126.844 155.207 126.93 155.64 127.09 156.04C127.264 156.427 127.51 156.74 127.83 156.98C128.164 157.22 128.557 157.34 129.01 157.34C129.384 157.34 129.697 157.287 129.95 157.18C130.204 157.06 130.41 156.927 130.57 156.78C130.73 156.633 130.844 156.513 130.91 156.42C131.03 156.26 131.124 156.167 131.19 156.14C131.27 156.1 131.384 156.08 131.53 156.08H133.25C133.384 156.08 133.49 156.12 133.57 156.2C133.664 156.28 133.704 156.38 133.69 156.5C133.677 156.713 133.564 156.973 133.35 157.28C133.15 157.587 132.857 157.887 132.47 158.18C132.084 158.473 131.597 158.72 131.01 158.92C130.437 159.107 129.777 159.2 129.03 159.2ZM126.83 152.9H131.25V152.84C131.25 152.32 131.164 151.867 130.99 151.48C130.817 151.093 130.564 150.787 130.23 150.56C129.897 150.333 129.497 150.22 129.03 150.22C128.564 150.22 128.164 150.333 127.83 150.56C127.497 150.787 127.244 151.093 127.07 151.48C126.91 151.867 126.83 152.32 126.83 152.84V152.9ZM136.573 159C136.44 159 136.327 158.953 136.233 158.86C136.14 158.767 136.093 158.653 136.093 158.52V149.08C136.093 148.947 136.14 148.833 136.233 148.74C136.327 148.647 136.44 148.6 136.573 148.6H138.133C138.267 148.6 138.38 148.647 138.473 148.74C138.567 148.833 138.613 148.947 138.613 149.08V149.76C138.893 149.387 139.267 149.073 139.733 148.82C140.213 148.553 140.78 148.413 141.433 148.4C142.953 148.373 144.013 148.967 144.613 150.18C144.92 149.647 145.36 149.22 145.933 148.9C146.52 148.567 147.167 148.4 147.873 148.4C148.567 148.4 149.193 148.56 149.753 148.88C150.327 149.2 150.773 149.687 151.093 150.34C151.427 150.98 151.593 151.793 151.593 152.78V158.52C151.593 158.653 151.547 158.767 151.453 158.86C151.36 158.953 151.247 159 151.113 159H149.473C149.34 159 149.227 158.953 149.133 158.86C149.04 158.767 148.993 158.653 148.993 158.52V152.94C148.993 152.34 148.907 151.867 148.733 151.52C148.56 151.16 148.327 150.907 148.033 150.76C147.74 150.613 147.413 150.54 147.053 150.54C146.76 150.54 146.467 150.613 146.173 150.76C145.88 150.907 145.64 151.16 145.453 151.52C145.267 151.867 145.173 152.34 145.173 152.94V158.52C145.173 158.653 145.127 158.767 145.033 158.86C144.94 158.953 144.827 159 144.693 159H143.053C142.907 159 142.787 158.953 142.693 158.86C142.613 158.767 142.573 158.653 142.573 158.52V152.94C142.573 152.34 142.48 151.867 142.293 151.52C142.107 151.16 141.867 150.907 141.573 150.76C141.28 150.613 140.967 150.54 140.633 150.54C140.327 150.54 140.027 150.62 139.733 150.78C139.44 150.927 139.2 151.173 139.013 151.52C138.827 151.867 138.733 152.34 138.733 152.94V158.52C138.733 158.653 138.687 158.767 138.593 158.86C138.5 158.953 138.387 159 138.253 159H136.573ZM158.771 159C158.637 159 158.524 158.953 158.431 158.86C158.337 158.767 158.291 158.653 158.291 158.52V157.5C158.291 157.38 158.317 157.24 158.371 157.08C158.437 156.907 158.577 156.733 158.791 156.56L161.951 153.42C162.831 152.727 163.537 152.14 164.071 151.66C164.617 151.167 165.011 150.72 165.251 150.32C165.504 149.907 165.631 149.5 165.631 149.1C165.631 148.5 165.464 148.013 165.131 147.64C164.811 147.267 164.297 147.08 163.591 147.08C163.124 147.08 162.731 147.18 162.411 147.38C162.091 147.567 161.837 147.82 161.651 148.14C161.477 148.46 161.357 148.813 161.291 149.2C161.264 149.373 161.191 149.493 161.071 149.56C160.951 149.627 160.831 149.66 160.711 149.66H158.931C158.811 149.66 158.711 149.62 158.631 149.54C158.551 149.46 158.511 149.367 158.511 149.26C158.524 148.687 158.644 148.133 158.871 147.6C159.097 147.053 159.424 146.573 159.851 146.16C160.291 145.733 160.824 145.393 161.451 145.14C162.077 144.887 162.784 144.76 163.571 144.76C164.677 144.76 165.591 144.947 166.311 145.32C167.044 145.693 167.591 146.2 167.951 146.84C168.324 147.48 168.511 148.2 168.511 149C168.511 149.627 168.391 150.207 168.151 150.74C167.911 151.26 167.564 151.767 167.111 152.26C166.657 152.74 166.111 153.233 165.471 153.74L162.631 156.62H168.331C168.477 156.62 168.591 156.667 168.671 156.76C168.764 156.84 168.811 156.953 168.811 157.1V158.52C168.811 158.653 168.764 158.767 168.671 158.86C168.591 158.953 168.477 159 168.331 159H158.771ZM176.333 159.2C175.387 159.2 174.58 159.06 173.913 158.78C173.247 158.5 172.7 158.113 172.273 157.62C171.847 157.127 171.527 156.56 171.313 155.92C171.1 155.267 170.973 154.573 170.933 153.84C170.92 153.48 170.907 153.087 170.893 152.66C170.893 152.22 170.893 151.78 170.893 151.34C170.907 150.9 170.92 150.493 170.933 150.12C170.96 149.387 171.087 148.7 171.313 148.06C171.54 147.407 171.867 146.84 172.293 146.36C172.733 145.88 173.287 145.5 173.953 145.22C174.62 144.94 175.413 144.8 176.333 144.8C177.267 144.8 178.067 144.94 178.733 145.22C179.4 145.5 179.947 145.88 180.373 146.36C180.813 146.84 181.14 147.407 181.353 148.06C181.58 148.7 181.707 149.387 181.733 150.12C181.76 150.493 181.773 150.9 181.773 151.34C181.773 151.78 181.773 152.22 181.773 152.66C181.773 153.087 181.76 153.48 181.733 153.84C181.707 154.573 181.587 155.267 181.373 155.92C181.16 156.56 180.84 157.127 180.413 157.62C179.987 158.113 179.433 158.5 178.753 158.78C178.087 159.06 177.28 159.2 176.333 159.2ZM176.333 156.9C177.2 156.9 177.833 156.62 178.233 156.06C178.647 155.487 178.86 154.713 178.873 153.74C178.9 153.353 178.913 152.967 178.913 152.58C178.913 152.18 178.913 151.78 178.913 151.38C178.913 150.98 178.9 150.6 178.873 150.24C178.86 149.293 178.647 148.533 178.233 147.96C177.833 147.373 177.2 147.08 176.333 147.08C175.48 147.08 174.847 147.373 174.433 147.96C174.033 148.533 173.82 149.293 173.793 150.24C173.793 150.6 173.787 150.98 173.773 151.38C173.773 151.78 173.773 152.18 173.773 152.58C173.787 152.967 173.793 153.353 173.793 153.74C173.82 154.713 174.04 155.487 174.453 156.06C174.867 156.62 175.493 156.9 176.333 156.9ZM185.118 159C184.838 159 184.698 158.867 184.698 158.6C184.698 158.52 184.725 158.447 184.778 158.38L194.638 145.38C194.731 145.26 194.825 145.167 194.918 145.1C195.011 145.033 195.145 145 195.318 145H196.378C196.658 145 196.798 145.133 196.798 145.4C196.798 145.48 196.771 145.553 196.718 145.62L186.858 158.62C186.765 158.74 186.671 158.833 186.578 158.9C186.498 158.967 186.365 159 186.178 159H185.118ZM194.738 159.12C193.845 159.12 193.138 158.873 192.618 158.38C192.098 157.887 191.811 157.24 191.758 156.44C191.745 156.093 191.738 155.793 191.738 155.54C191.738 155.287 191.745 154.973 191.758 154.6C191.811 153.8 192.085 153.153 192.578 152.66C193.085 152.167 193.805 151.92 194.738 151.92C195.685 151.92 196.405 152.167 196.898 152.66C197.405 153.153 197.678 153.8 197.718 154.6C197.745 154.973 197.758 155.287 197.758 155.54C197.758 155.793 197.745 156.093 197.718 156.44C197.678 157.24 197.391 157.887 196.858 158.38C196.338 158.873 195.631 159.12 194.738 159.12ZM194.738 157.56C195.031 157.56 195.258 157.5 195.418 157.38C195.591 157.26 195.718 157.107 195.798 156.92C195.878 156.733 195.918 156.547 195.918 156.36C195.945 156.027 195.958 155.747 195.958 155.52C195.958 155.28 195.945 155.007 195.918 154.7C195.905 154.393 195.811 154.113 195.638 153.86C195.465 153.593 195.165 153.46 194.738 153.46C194.325 153.46 194.031 153.593 193.858 153.86C193.685 154.113 193.585 154.393 193.558 154.7C193.545 155.007 193.538 155.28 193.538 155.52C193.538 155.747 193.545 156.027 193.558 156.36C193.585 156.547 193.631 156.733 193.698 156.92C193.778 157.107 193.898 157.26 194.058 157.38C194.231 157.5 194.458 157.56 194.738 157.56ZM186.758 152.04C185.865 152.04 185.158 151.807 184.638 151.34C184.118 150.873 183.831 150.24 183.778 149.44C183.765 149.093 183.758 148.793 183.758 148.54C183.758 148.273 183.765 147.953 183.778 147.58C183.831 146.78 184.105 146.133 184.598 145.64C185.105 145.147 185.825 144.9 186.758 144.9C187.705 144.9 188.425 145.147 188.918 145.64C189.425 146.133 189.698 146.78 189.738 147.58C189.765 147.953 189.778 148.273 189.778 148.54C189.778 148.793 189.765 149.093 189.738 149.44C189.698 150.24 189.411 150.873 188.878 151.34C188.358 151.807 187.651 152.04 186.758 152.04ZM186.758 150.56C187.051 150.56 187.278 150.5 187.438 150.38C187.611 150.26 187.738 150.107 187.818 149.92C187.898 149.733 187.938 149.54 187.938 149.34C187.965 149.007 187.978 148.727 187.978 148.5C187.978 148.26 187.965 147.987 187.938 147.68C187.925 147.373 187.831 147.093 187.658 146.84C187.485 146.587 187.185 146.46 186.758 146.46C186.345 146.46 186.051 146.587 185.878 146.84C185.705 147.093 185.611 147.373 185.598 147.68C185.585 147.987 185.578 148.26 185.578 148.5C185.578 148.727 185.585 149.007 185.598 149.34C185.611 149.54 185.651 149.733 185.718 149.92C185.798 150.107 185.918 150.26 186.078 150.38C186.251 150.5 186.478 150.56 186.758 150.56ZM200.342 152C200.208 152 200.095 151.953 200.002 151.86C199.908 151.767 199.862 151.653 199.862 151.52V149.62C199.862 149.473 199.908 149.353 200.002 149.26C200.095 149.167 200.208 149.12 200.342 149.12H202.322C202.468 149.12 202.588 149.167 202.682 149.26C202.775 149.353 202.822 149.473 202.822 149.62V151.52C202.822 151.653 202.775 151.767 202.682 151.86C202.588 151.953 202.468 152 202.322 152H200.342ZM200.342 159C200.208 159 200.095 158.953 200.002 158.86C199.908 158.767 199.862 158.653 199.862 158.52V156.62C199.862 156.473 199.908 156.353 200.002 156.26C200.095 156.167 200.208 156.12 200.342 156.12H202.322C202.468 156.12 202.588 156.167 202.682 156.26C202.775 156.353 202.822 156.473 202.822 156.62V158.52C202.822 158.653 202.775 158.767 202.682 158.86C202.588 158.953 202.468 159 202.322 159H200.342Z" fill="#DEA617"/>
<path d="M210.04 159C209.907 159 209.793 158.953 209.7 158.86C209.607 158.767 209.56 158.653 209.56 158.52V157.5C209.56 157.38 209.587 157.24 209.64 157.08C209.707 156.907 209.847 156.733 210.06 156.56L213.22 153.42C214.1 152.727 214.807 152.14 215.34 151.66C215.887 151.167 216.28 150.72 216.52 150.32C216.773 149.907 216.9 149.5 216.9 149.1C216.9 148.5 216.733 148.013 216.4 147.64C216.08 147.267 215.567 147.08 214.86 147.08C214.393 147.08 214 147.18 213.68 147.38C213.36 147.567 213.107 147.82 212.92 148.14C212.747 148.46 212.627 148.813 212.56 149.2C212.533 149.373 212.46 149.493 212.34 149.56C212.22 149.627 212.1 149.66 211.98 149.66H210.2C210.08 149.66 209.98 149.62 209.9 149.54C209.82 149.46 209.78 149.367 209.78 149.26C209.793 148.687 209.913 148.133 210.14 147.6C210.367 147.053 210.693 146.573 211.12 146.16C211.56 145.733 212.093 145.393 212.72 145.14C213.347 144.887 214.053 144.76 214.84 144.76C215.947 144.76 216.86 144.947 217.58 145.32C218.313 145.693 218.86 146.2 219.22 146.84C219.593 147.48 219.78 148.2 219.78 149C219.78 149.627 219.66 150.207 219.42 150.74C219.18 151.26 218.833 151.767 218.38 152.26C217.927 152.74 217.38 153.233 216.74 153.74L213.9 156.62H219.6C219.747 156.62 219.86 156.667 219.94 156.76C220.033 156.84 220.08 156.953 220.08 157.1V158.52C220.08 158.653 220.033 158.767 219.94 158.86C219.86 158.953 219.747 159 219.6 159H210.04ZM227.603 159.2C226.656 159.2 225.85 159.06 225.183 158.78C224.516 158.5 223.97 158.113 223.543 157.62C223.116 157.127 222.796 156.56 222.583 155.92C222.37 155.267 222.243 154.573 222.203 153.84C222.19 153.48 222.176 153.087 222.163 152.66C222.163 152.22 222.163 151.78 222.163 151.34C222.176 150.9 222.19 150.493 222.203 150.12C222.23 149.387 222.356 148.7 222.583 148.06C222.81 147.407 223.136 146.84 223.563 146.36C224.003 145.88 224.556 145.5 225.223 145.22C225.89 144.94 226.683 144.8 227.603 144.8C228.536 144.8 229.336 144.94 230.003 145.22C230.67 145.5 231.216 145.88 231.643 146.36C232.083 146.84 232.41 147.407 232.623 148.06C232.85 148.7 232.976 149.387 233.003 150.12C233.03 150.493 233.043 150.9 233.043 151.34C233.043 151.78 233.043 152.22 233.043 152.66C233.043 153.087 233.03 153.48 233.003 153.84C232.976 154.573 232.856 155.267 232.643 155.92C232.43 156.56 232.11 157.127 231.683 157.62C231.256 158.113 230.703 158.5 230.023 158.78C229.356 159.06 228.55 159.2 227.603 159.2ZM227.603 156.9C228.47 156.9 229.103 156.62 229.503 156.06C229.916 155.487 230.13 154.713 230.143 153.74C230.17 153.353 230.183 152.967 230.183 152.58C230.183 152.18 230.183 151.78 230.183 151.38C230.183 150.98 230.17 150.6 230.143 150.24C230.13 149.293 229.916 148.533 229.503 147.96C229.103 147.373 228.47 147.08 227.603 147.08C226.75 147.08 226.116 147.373 225.703 147.96C225.303 148.533 225.09 149.293 225.063 150.24C225.063 150.6 225.056 150.98 225.043 151.38C225.043 151.78 225.043 152.18 225.043 152.58C225.056 152.967 225.063 153.353 225.063 153.74C225.09 154.713 225.31 155.487 225.723 156.06C226.136 156.62 226.763 156.9 227.603 156.9ZM240.748 159.2C239.801 159.2 238.994 159.06 238.328 158.78C237.661 158.5 237.114 158.113 236.688 157.62C236.261 157.127 235.941 156.56 235.728 155.92C235.514 155.267 235.388 154.573 235.348 153.84C235.334 153.48 235.321 153.087 235.308 152.66C235.308 152.22 235.308 151.78 235.308 151.34C235.321 150.9 235.334 150.493 235.348 150.12C235.374 149.387 235.501 148.7 235.728 148.06C235.954 147.407 236.281 146.84 236.708 146.36C237.148 145.88 237.701 145.5 238.368 145.22C239.034 144.94 239.828 144.8 240.748 144.8C241.681 144.8 242.481 144.94 243.148 145.22C243.814 145.5 244.361 145.88 244.788 146.36C245.228 146.84 245.554 147.407 245.768 148.06C245.994 148.7 246.121 149.387 246.148 150.12C246.174 150.493 246.188 150.9 246.188 151.34C246.188 151.78 246.188 152.22 246.188 152.66C246.188 153.087 246.174 153.48 246.148 153.84C246.121 154.573 246.001 155.267 245.788 155.92C245.574 156.56 245.254 157.127 244.828 157.62C244.401 158.113 243.848 158.5 243.168 158.78C242.501 159.06 241.694 159.2 240.748 159.2ZM240.748 156.9C241.614 156.9 242.248 156.62 242.648 156.06C243.061 155.487 243.274 154.713 243.288 153.74C243.314 153.353 243.328 152.967 243.328 152.58C243.328 152.18 243.328 151.78 243.328 151.38C243.328 150.98 243.314 150.6 243.288 150.24C243.274 149.293 243.061 148.533 242.648 147.96C242.248 147.373 241.614 147.08 240.748 147.08C239.894 147.08 239.261 147.373 238.848 147.96C238.448 148.533 238.234 149.293 238.208 150.24C238.208 150.6 238.201 150.98 238.188 151.38C238.188 151.78 238.188 152.18 238.188 152.58C238.201 152.967 238.208 153.353 238.208 153.74C238.234 154.713 238.454 155.487 238.868 156.06C239.281 156.62 239.908 156.9 240.748 156.9ZM248.317 160.5C248.197 160.5 248.104 160.46 248.037 160.38C247.971 160.3 247.944 160.2 247.957 160.08L248.497 156.68C248.524 156.507 248.584 156.36 248.677 156.24C248.784 156.107 248.937 156.04 249.137 156.04H250.977C251.084 156.04 251.171 156.08 251.237 156.16C251.304 156.227 251.337 156.313 251.337 156.42C251.337 156.513 251.317 156.6 251.277 156.68L249.997 160C249.944 160.133 249.864 160.247 249.757 160.34C249.664 160.447 249.524 160.5 249.337 160.5H248.317ZM258.736 159.2C257.789 159.2 256.982 159.06 256.316 158.78C255.649 158.5 255.102 158.113 254.676 157.62C254.249 157.127 253.929 156.56 253.716 155.92C253.502 155.267 253.376 154.573 253.336 153.84C253.322 153.48 253.309 153.087 253.296 152.66C253.296 152.22 253.296 151.78 253.296 151.34C253.309 150.9 253.322 150.493 253.336 150.12C253.362 149.387 253.489 148.7 253.716 148.06C253.942 147.407 254.269 146.84 254.696 146.36C255.136 145.88 255.689 145.5 256.356 145.22C257.022 144.94 257.816 144.8 258.736 144.8C259.669 144.8 260.469 144.94 261.136 145.22C261.802 145.5 262.349 145.88 262.776 146.36C263.216 146.84 263.542 147.407 263.756 148.06C263.982 148.7 264.109 149.387 264.136 150.12C264.162 150.493 264.176 150.9 264.176 151.34C264.176 151.78 264.176 152.22 264.176 152.66C264.176 153.087 264.162 153.48 264.136 153.84C264.109 154.573 263.989 155.267 263.776 155.92C263.562 156.56 263.242 157.127 262.816 157.62C262.389 158.113 261.836 158.5 261.156 158.78C260.489 159.06 259.682 159.2 258.736 159.2ZM258.736 156.9C259.602 156.9 260.236 156.62 260.636 156.06C261.049 155.487 261.262 154.713 261.276 153.74C261.302 153.353 261.316 152.967 261.316 152.58C261.316 152.18 261.316 151.78 261.316 151.38C261.316 150.98 261.302 150.6 261.276 150.24C261.262 149.293 261.049 148.533 260.636 147.96C260.236 147.373 259.602 147.08 258.736 147.08C257.882 147.08 257.249 147.373 256.836 147.96C256.436 148.533 256.222 149.293 256.196 150.24C256.196 150.6 256.189 150.98 256.176 151.38C256.176 151.78 256.176 152.18 256.176 152.58C256.189 152.967 256.196 153.353 256.196 153.74C256.222 154.713 256.442 155.487 256.856 156.06C257.269 156.62 257.896 156.9 258.736 156.9ZM271.88 159.2C270.934 159.2 270.127 159.06 269.46 158.78C268.794 158.5 268.247 158.113 267.82 157.62C267.394 157.127 267.074 156.56 266.86 155.92C266.647 155.267 266.52 154.573 266.48 153.84C266.467 153.48 266.454 153.087 266.44 152.66C266.44 152.22 266.44 151.78 266.44 151.34C266.454 150.9 266.467 150.493 266.48 150.12C266.507 149.387 266.634 148.7 266.86 148.06C267.087 147.407 267.414 146.84 267.84 146.36C268.28 145.88 268.834 145.5 269.5 145.22C270.167 144.94 270.96 144.8 271.88 144.8C272.814 144.8 273.614 144.94 274.28 145.22C274.947 145.5 275.494 145.88 275.92 146.36C276.36 146.84 276.687 147.407 276.9 148.06C277.127 148.7 277.254 149.387 277.28 150.12C277.307 150.493 277.32 150.9 277.32 151.34C277.32 151.78 277.32 152.22 277.32 152.66C277.32 153.087 277.307 153.48 277.28 153.84C277.254 154.573 277.134 155.267 276.92 155.92C276.707 156.56 276.387 157.127 275.96 157.62C275.534 158.113 274.98 158.5 274.3 158.78C273.634 159.06 272.827 159.2 271.88 159.2ZM271.88 156.9C272.747 156.9 273.38 156.62 273.78 156.06C274.194 155.487 274.407 154.713 274.42 153.74C274.447 153.353 274.46 152.967 274.46 152.58C274.46 152.18 274.46 151.78 274.46 151.38C274.46 150.98 274.447 150.6 274.42 150.24C274.407 149.293 274.194 148.533 273.78 147.96C273.38 147.373 272.747 147.08 271.88 147.08C271.027 147.08 270.394 147.373 269.98 147.96C269.58 148.533 269.367 149.293 269.34 150.24C269.34 150.6 269.334 150.98 269.32 151.38C269.32 151.78 269.32 152.18 269.32 152.58C269.334 152.967 269.34 153.353 269.34 153.74C269.367 154.713 269.587 155.487 270 156.06C270.414 156.62 271.04 156.9 271.88 156.9ZM285.025 159.2C284.078 159.2 283.272 159.06 282.605 158.78C281.938 158.5 281.392 158.113 280.965 157.62C280.538 157.127 280.218 156.56 280.005 155.92C279.792 155.267 279.665 154.573 279.625 153.84C279.612 153.48 279.598 153.087 279.585 152.66C279.585 152.22 279.585 151.78 279.585 151.34C279.598 150.9 279.612 150.493 279.625 150.12C279.652 149.387 279.778 148.7 280.005 148.06C280.232 147.407 280.558 146.84 280.985 146.36C281.425 145.88 281.978 145.5 282.645 145.22C283.312 144.94 284.105 144.8 285.025 144.8C285.958 144.8 286.758 144.94 287.425 145.22C288.092 145.5 288.638 145.88 289.065 146.36C289.505 146.84 289.832 147.407 290.045 148.06C290.272 148.7 290.398 149.387 290.425 150.12C290.452 150.493 290.465 150.9 290.465 151.34C290.465 151.78 290.465 152.22 290.465 152.66C290.465 153.087 290.452 153.48 290.425 153.84C290.398 154.573 290.278 155.267 290.065 155.92C289.852 156.56 289.532 157.127 289.105 157.62C288.678 158.113 288.125 158.5 287.445 158.78C286.778 159.06 285.972 159.2 285.025 159.2ZM285.025 156.9C285.892 156.9 286.525 156.62 286.925 156.06C287.338 155.487 287.552 154.713 287.565 153.74C287.592 153.353 287.605 152.967 287.605 152.58C287.605 152.18 287.605 151.78 287.605 151.38C287.605 150.98 287.592 150.6 287.565 150.24C287.552 149.293 287.338 148.533 286.925 147.96C286.525 147.373 285.892 147.08 285.025 147.08C284.172 147.08 283.538 147.373 283.125 147.96C282.725 148.533 282.512 149.293 282.485 150.24C282.485 150.6 282.478 150.98 282.465 151.38C282.465 151.78 282.465 152.18 282.465 152.58C282.478 152.967 282.485 153.353 282.485 153.74C282.512 154.713 282.732 155.487 283.145 156.06C283.558 156.62 284.185 156.9 285.025 156.9ZM292.595 160.5C292.475 160.5 292.381 160.46 292.315 160.38C292.248 160.3 292.221 160.2 292.235 160.08L292.775 156.68C292.801 156.507 292.861 156.36 292.955 156.24C293.061 156.107 293.215 156.04 293.415 156.04H295.255C295.361 156.04 295.448 156.08 295.515 156.16C295.581 156.227 295.615 156.313 295.615 156.42C295.615 156.513 295.595 156.6 295.555 156.68L294.275 160C294.221 160.133 294.141 160.247 294.035 160.34C293.941 160.447 293.801 160.5 293.615 160.5H292.595ZM303.013 159.2C302.066 159.2 301.26 159.06 300.593 158.78C299.926 158.5 299.38 158.113 298.953 157.62C298.526 157.127 298.206 156.56 297.993 155.92C297.78 155.267 297.653 154.573 297.613 153.84C297.6 153.48 297.586 153.087 297.573 152.66C297.573 152.22 297.573 151.78 297.573 151.34C297.586 150.9 297.6 150.493 297.613 150.12C297.64 149.387 297.766 148.7 297.993 148.06C298.22 147.407 298.546 146.84 298.973 146.36C299.413 145.88 299.966 145.5 300.633 145.22C301.3 144.94 302.093 144.8 303.013 144.8C303.946 144.8 304.746 144.94 305.413 145.22C306.08 145.5 306.626 145.88 307.053 146.36C307.493 146.84 307.82 147.407 308.033 148.06C308.26 148.7 308.386 149.387 308.413 150.12C308.44 150.493 308.453 150.9 308.453 151.34C308.453 151.78 308.453 152.22 308.453 152.66C308.453 153.087 308.44 153.48 308.413 153.84C308.386 154.573 308.266 155.267 308.053 155.92C307.84 156.56 307.52 157.127 307.093 157.62C306.666 158.113 306.113 158.5 305.433 158.78C304.766 159.06 303.96 159.2 303.013 159.2ZM303.013 156.9C303.88 156.9 304.513 156.62 304.913 156.06C305.326 155.487 305.54 154.713 305.553 153.74C305.58 153.353 305.593 152.967 305.593 152.58C305.593 152.18 305.593 151.78 305.593 151.38C305.593 150.98 305.58 150.6 305.553 150.24C305.54 149.293 305.326 148.533 304.913 147.96C304.513 147.373 303.88 147.08 303.013 147.08C302.16 147.08 301.526 147.373 301.113 147.96C300.713 148.533 300.5 149.293 300.473 150.24C300.473 150.6 300.466 150.98 300.453 151.38C300.453 151.78 300.453 152.18 300.453 152.58C300.466 152.967 300.473 153.353 300.473 153.74C300.5 154.713 300.72 155.487 301.133 156.06C301.546 156.62 302.173 156.9 303.013 156.9ZM316.158 159.2C315.211 159.2 314.404 159.06 313.738 158.78C313.071 158.5 312.524 158.113 312.098 157.62C311.671 157.127 311.351 156.56 311.138 155.92C310.924 155.267 310.798 154.573 310.758 153.84C310.744 153.48 310.731 153.087 310.718 152.66C310.718 152.22 310.718 151.78 310.718 151.34C310.731 150.9 310.744 150.493 310.758 150.12C310.784 149.387 310.911 148.7 311.138 148.06C311.364 147.407 311.691 146.84 312.118 146.36C312.558 145.88 313.111 145.5 313.778 145.22C314.444 144.94 315.238 144.8 316.158 144.8C317.091 144.8 317.891 144.94 318.558 145.22C319.224 145.5 319.771 145.88 320.198 146.36C320.638 146.84 320.964 147.407 321.178 148.06C321.404 148.7 321.531 149.387 321.558 150.12C321.584 150.493 321.598 150.9 321.598 151.34C321.598 151.78 321.598 152.22 321.598 152.66C321.598 153.087 321.584 153.48 321.558 153.84C321.531 154.573 321.411 155.267 321.198 155.92C320.984 156.56 320.664 157.127 320.238 157.62C319.811 158.113 319.258 158.5 318.578 158.78C317.911 159.06 317.104 159.2 316.158 159.2ZM316.158 156.9C317.024 156.9 317.658 156.62 318.058 156.06C318.471 155.487 318.684 154.713 318.698 153.74C318.724 153.353 318.738 152.967 318.738 152.58C318.738 152.18 318.738 151.78 318.738 151.38C318.738 150.98 318.724 150.6 318.698 150.24C318.684 149.293 318.471 148.533 318.058 147.96C317.658 147.373 317.024 147.08 316.158 147.08C315.304 147.08 314.671 147.373 314.258 147.96C313.858 148.533 313.644 149.293 313.618 150.24C313.618 150.6 313.611 150.98 313.598 151.38C313.598 151.78 313.598 152.18 313.598 152.58C313.611 152.967 313.618 153.353 313.618 153.74C313.644 154.713 313.864 155.487 314.278 156.06C314.691 156.62 315.318 156.9 316.158 156.9ZM329.302 159.2C328.356 159.2 327.549 159.06 326.882 158.78C326.216 158.5 325.669 158.113 325.242 157.62C324.816 157.127 324.496 156.56 324.282 155.92C324.069 155.267 323.942 154.573 323.902 153.84C323.889 153.48 323.876 153.087 323.862 152.66C323.862 152.22 323.862 151.78 323.862 151.34C323.876 150.9 323.889 150.493 323.902 150.12C323.929 149.387 324.056 148.7 324.282 148.06C324.509 147.407 324.836 146.84 325.262 146.36C325.702 145.88 326.256 145.5 326.922 145.22C327.589 144.94 328.382 144.8 329.302 144.8C330.236 144.8 331.036 144.94 331.702 145.22C332.369 145.5 332.916 145.88 333.342 146.36C333.782 146.84 334.109 147.407 334.322 148.06C334.549 148.7 334.676 149.387 334.702 150.12C334.729 150.493 334.742 150.9 334.742 151.34C334.742 151.78 334.742 152.22 334.742 152.66C334.742 153.087 334.729 153.48 334.702 153.84C334.676 154.573 334.556 155.267 334.342 155.92C334.129 156.56 333.809 157.127 333.382 157.62C332.956 158.113 332.402 158.5 331.722 158.78C331.056 159.06 330.249 159.2 329.302 159.2ZM329.302 156.9C330.169 156.9 330.802 156.62 331.202 156.06C331.616 155.487 331.829 154.713 331.842 153.74C331.869 153.353 331.882 152.967 331.882 152.58C331.882 152.18 331.882 151.78 331.882 151.38C331.882 150.98 331.869 150.6 331.842 150.24C331.829 149.293 331.616 148.533 331.202 147.96C330.802 147.373 330.169 147.08 329.302 147.08C328.449 147.08 327.816 147.373 327.402 147.96C327.002 148.533 326.789 149.293 326.762 150.24C326.762 150.6 326.756 150.98 326.742 151.38C326.742 151.78 326.742 152.18 326.742 152.58C326.756 152.967 326.762 153.353 326.762 153.74C326.789 154.713 327.009 155.487 327.422 156.06C327.836 156.62 328.462 156.9 329.302 156.9ZM342.497 159C342.364 159 342.25 158.953 342.157 158.86C342.064 158.767 342.017 158.653 342.017 158.52V145.5C342.017 145.353 342.064 145.233 342.157 145.14C342.25 145.047 342.364 145 342.497 145H351.177C351.324 145 351.444 145.047 351.537 145.14C351.63 145.233 351.677 145.353 351.677 145.5V146.9C351.677 147.047 351.63 147.167 351.537 147.26C351.444 147.34 351.324 147.38 351.177 147.38H344.757V151.18H350.777C350.924 151.18 351.044 151.227 351.137 151.32C351.23 151.413 351.277 151.533 351.277 151.68V153.08C351.277 153.213 351.23 153.327 351.137 153.42C351.044 153.513 350.924 153.56 350.777 153.56H344.757V158.52C344.757 158.653 344.71 158.767 344.617 158.86C344.524 158.953 344.404 159 344.257 159H342.497ZM352.348 159C352.242 159 352.142 158.96 352.048 158.88C351.968 158.8 351.928 158.7 351.928 158.58C351.928 158.527 351.942 158.467 351.968 158.4L356.788 145.5C356.828 145.367 356.902 145.253 357.008 145.16C357.128 145.053 357.288 145 357.488 145H359.668C359.868 145 360.022 145.053 360.128 145.16C360.235 145.253 360.315 145.367 360.368 145.5L365.188 158.4C365.202 158.467 365.208 158.527 365.208 158.58C365.208 158.7 365.168 158.8 365.088 158.88C365.008 158.96 364.915 159 364.808 159H363.068C362.882 159 362.742 158.96 362.648 158.88C362.568 158.787 362.515 158.7 362.488 158.62L361.548 156.18H355.608L354.668 158.62C354.642 158.7 354.582 158.787 354.488 158.88C354.408 158.96 354.275 159 354.088 159H352.348ZM356.308 153.88H360.848L358.568 147.7L356.308 153.88ZM367.556 159C367.422 159 367.309 158.953 367.216 158.86C367.122 158.767 367.076 158.653 367.076 158.52V145.48C367.076 145.347 367.122 145.233 367.216 145.14C367.309 145.047 367.422 145 367.556 145H369.436C369.582 145 369.696 145.047 369.776 145.14C369.869 145.233 369.916 145.347 369.916 145.48V158.52C369.916 158.653 369.869 158.767 369.776 158.86C369.696 158.953 369.582 159 369.436 159H367.556Z" fill="white"/>
<path d="M52.12 268C51.9867 268 51.8733 267.953 51.78 267.86C51.6867 267.767 51.64 267.653 51.64 267.52V256.46H47.94C47.8067 256.46 47.6933 256.413 47.6 256.32C47.5067 256.227 47.46 256.113 47.46 255.98V254.5C47.46 254.353 47.5067 254.233 47.6 254.14C47.6933 254.047 47.8067 254 47.94 254H58.14C58.2867 254 58.4067 254.047 58.5 254.14C58.5933 254.233 58.64 254.353 58.64 254.5V255.98C58.64 256.113 58.5933 256.227 58.5 256.32C58.4067 256.413 58.2867 256.46 58.14 256.46H54.46V267.52C54.46 267.653 54.4133 267.767 54.32 267.86C54.2267 267.953 54.1067 268 53.96 268H52.12ZM63.0734 268.2C61.5934 268.2 60.4201 267.773 59.5534 266.92C58.6868 266.067 58.2201 264.853 58.1534 263.28C58.1401 263.147 58.1334 262.98 58.1334 262.78C58.1334 262.567 58.1401 262.4 58.1534 262.28C58.2068 261.28 58.4334 260.413 58.8334 259.68C59.2468 258.947 59.8134 258.387 60.5334 258C61.2534 257.6 62.1001 257.4 63.0734 257.4C64.1534 257.4 65.0601 257.627 65.7934 258.08C66.5268 258.52 67.0801 259.14 67.4534 259.94C67.8268 260.727 68.0134 261.64 68.0134 262.68V263.1C68.0134 263.233 67.9668 263.347 67.8734 263.44C67.7801 263.533 67.6601 263.58 67.5134 263.58H60.8734C60.8734 263.58 60.8734 263.6 60.8734 263.64C60.8734 263.68 60.8734 263.713 60.8734 263.74C60.8868 264.207 60.9734 264.64 61.1334 265.04C61.3068 265.427 61.5534 265.74 61.8734 265.98C62.2068 266.22 62.6001 266.34 63.0534 266.34C63.4268 266.34 63.7401 266.287 63.9934 266.18C64.2468 266.06 64.4534 265.927 64.6134 265.78C64.7734 265.633 64.8868 265.513 64.9534 265.42C65.0734 265.26 65.1668 265.167 65.2334 265.14C65.3134 265.1 65.4268 265.08 65.5734 265.08H67.2934C67.4268 265.08 67.5334 265.12 67.6134 265.2C67.7068 265.28 67.7468 265.38 67.7334 265.5C67.7201 265.713 67.6068 265.973 67.3934 266.28C67.1934 266.587 66.9001 266.887 66.5134 267.18C66.1268 267.473 65.6401 267.72 65.0534 267.92C64.4801 268.107 63.8201 268.2 63.0734 268.2ZM60.8734 261.9H65.2934V261.84C65.2934 261.32 65.2068 260.867 65.0334 260.48C64.8601 260.093 64.6068 259.787 64.2734 259.56C63.9401 259.333 63.5401 259.22 63.0734 259.22C62.6068 259.22 62.2068 259.333 61.8734 259.56C61.5401 259.787 61.2868 260.093 61.1134 260.48C60.9534 260.867 60.8734 261.32 60.8734 261.84V261.9ZM73.1564 268.2C72.4631 268.2 71.8364 268.067 71.2764 267.8C70.7164 267.52 70.2697 267.153 69.9364 266.7C69.6164 266.233 69.4564 265.713 69.4564 265.14C69.4564 264.207 69.8297 263.467 70.5764 262.92C71.3364 262.36 72.3364 261.987 73.5764 261.8L76.3164 261.4V260.98C76.3164 260.42 76.1764 259.987 75.8964 259.68C75.6164 259.373 75.1364 259.22 74.4564 259.22C73.9764 259.22 73.5831 259.32 73.2764 259.52C72.9831 259.707 72.7631 259.96 72.6164 260.28C72.5097 260.453 72.3564 260.54 72.1564 260.54H70.5764C70.4297 260.54 70.3164 260.5 70.2364 260.42C70.1697 260.34 70.1364 260.233 70.1364 260.1C70.1497 259.887 70.2364 259.627 70.3964 259.32C70.5564 259.013 70.8097 258.72 71.1564 258.44C71.5031 258.147 71.9497 257.9 72.4964 257.7C73.0431 257.5 73.7031 257.4 74.4764 257.4C75.3164 257.4 76.0231 257.507 76.5964 257.72C77.1831 257.92 77.6497 258.193 77.9964 258.54C78.3431 258.887 78.5964 259.293 78.7564 259.76C78.9164 260.227 78.9964 260.72 78.9964 261.24V267.52C78.9964 267.653 78.9497 267.767 78.8564 267.86C78.7631 267.953 78.6497 268 78.5164 268H76.8964C76.7497 268 76.6297 267.953 76.5364 267.86C76.4564 267.767 76.4164 267.653 76.4164 267.52V266.74C76.2431 266.993 76.0097 267.233 75.7164 267.46C75.4231 267.673 75.0631 267.853 74.6364 268C74.2231 268.133 73.7297 268.2 73.1564 268.2ZM73.8364 266.3C74.3031 266.3 74.7231 266.2 75.0964 266C75.4831 265.8 75.7831 265.493 75.9964 265.08C76.2231 264.653 76.3364 264.12 76.3364 263.48V263.06L74.3364 263.38C73.5497 263.5 72.9631 263.693 72.5764 263.96C72.1897 264.227 71.9964 264.553 71.9964 264.94C71.9964 265.233 72.0831 265.487 72.2564 265.7C72.4431 265.9 72.6764 266.053 72.9564 266.16C73.2364 266.253 73.5297 266.3 73.8364 266.3ZM82.0422 268C81.9089 268 81.7955 267.953 81.7022 267.86C81.6089 267.767 81.5622 267.653 81.5622 267.52V258.08C81.5622 257.947 81.6089 257.833 81.7022 257.74C81.7955 257.647 81.9089 257.6 82.0422 257.6H83.6022C83.7355 257.6 83.8489 257.647 83.9422 257.74C84.0355 257.833 84.0822 257.947 84.0822 258.08V258.76C84.3622 258.387 84.7355 258.073 85.2022 257.82C85.6822 257.553 86.2489 257.413 86.9022 257.4C88.4222 257.373 89.4822 257.967 90.0822 259.18C90.3889 258.647 90.8289 258.22 91.4022 257.9C91.9889 257.567 92.6355 257.4 93.3422 257.4C94.0355 257.4 94.6622 257.56 95.2222 257.88C95.7955 258.2 96.2422 258.687 96.5622 259.34C96.8955 259.98 97.0622 260.793 97.0622 261.78V267.52C97.0622 267.653 97.0155 267.767 96.9222 267.86C96.8289 267.953 96.7155 268 96.5822 268H94.9422C94.8089 268 94.6955 267.953 94.6022 267.86C94.5089 267.767 94.4622 267.653 94.4622 267.52V261.94C94.4622 261.34 94.3755 260.867 94.2022 260.52C94.0289 260.16 93.7955 259.907 93.5022 259.76C93.2089 259.613 92.8822 259.54 92.5222 259.54C92.2289 259.54 91.9355 259.613 91.6422 259.76C91.3489 259.907 91.1089 260.16 90.9222 260.52C90.7355 260.867 90.6422 261.34 90.6422 261.94V267.52C90.6422 267.653 90.5955 267.767 90.5022 267.86C90.4089 267.953 90.2955 268 90.1622 268H88.5222C88.3755 268 88.2555 267.953 88.1622 267.86C88.0822 267.767 88.0422 267.653 88.0422 267.52V261.94C88.0422 261.34 87.9489 260.867 87.7622 260.52C87.5755 260.16 87.3355 259.907 87.0422 259.76C86.7489 259.613 86.4355 259.54 86.1022 259.54C85.7955 259.54 85.4955 259.62 85.2022 259.78C84.9089 259.927 84.6689 260.173 84.4822 260.52C84.2955 260.867 84.2022 261.34 84.2022 261.94V267.52C84.2022 267.653 84.1555 267.767 84.0622 267.86C83.9689 267.953 83.8555 268 83.7222 268H82.0422ZM108.399 268C108.253 268 108.133 267.953 108.039 267.86C107.959 267.767 107.919 267.653 107.919 267.52V257.16L104.879 259.5C104.759 259.58 104.639 259.613 104.519 259.6C104.399 259.573 104.293 259.5 104.199 259.38L103.359 258.3C103.279 258.18 103.246 258.053 103.259 257.92C103.286 257.787 103.359 257.68 103.479 257.6L107.959 254.14C108.039 254.073 108.119 254.033 108.199 254.02C108.279 254.007 108.366 254 108.459 254H110.219C110.353 254 110.466 254.047 110.559 254.14C110.653 254.233 110.699 254.347 110.699 254.48V267.52C110.699 267.653 110.653 267.767 110.559 267.86C110.466 267.953 110.353 268 110.219 268H108.399ZM118.677 268.2C117.731 268.2 116.924 268.06 116.257 267.78C115.591 267.5 115.044 267.113 114.617 266.62C114.191 266.127 113.871 265.56 113.657 264.92C113.444 264.267 113.317 263.573 113.277 262.84C113.264 262.48 113.251 262.087 113.237 261.66C113.237 261.22 113.237 260.78 113.237 260.34C113.251 259.9 113.264 259.493 113.277 259.12C113.304 258.387 113.431 257.7 113.657 257.06C113.884 256.407 114.211 255.84 114.637 255.36C115.077 254.88 115.631 254.5 116.297 254.22C116.964 253.94 117.757 253.8 118.677 253.8C119.611 253.8 120.411 253.94 121.077 254.22C121.744 254.5 122.291 254.88 122.717 255.36C123.157 255.84 123.484 256.407 123.697 257.06C123.924 257.7 124.051 258.387 124.077 259.12C124.104 259.493 124.117 259.9 124.117 260.34C124.117 260.78 124.117 261.22 124.117 261.66C124.117 262.087 124.104 262.48 124.077 262.84C124.051 263.573 123.931 264.267 123.717 264.92C123.504 265.56 123.184 266.127 122.757 266.62C122.331 267.113 121.777 267.5 121.097 267.78C120.431 268.06 119.624 268.2 118.677 268.2ZM118.677 265.9C119.544 265.9 120.177 265.62 120.577 265.06C120.991 264.487 121.204 263.713 121.217 262.74C121.244 262.353 121.257 261.967 121.257 261.58C121.257 261.18 121.257 260.78 121.257 260.38C121.257 259.98 121.244 259.6 121.217 259.24C121.204 258.293 120.991 257.533 120.577 256.96C120.177 256.373 119.544 256.08 118.677 256.08C117.824 256.08 117.191 256.373 116.777 256.96C116.377 257.533 116.164 258.293 116.137 259.24C116.137 259.6 116.131 259.98 116.117 260.38C116.117 260.78 116.117 261.18 116.117 261.58C116.131 261.967 116.137 262.353 116.137 262.74C116.164 263.713 116.384 264.487 116.797 265.06C117.211 265.62 117.837 265.9 118.677 265.9ZM127.462 268C127.182 268 127.042 267.867 127.042 267.6C127.042 267.52 127.068 267.447 127.122 267.38L136.982 254.38C137.075 254.26 137.168 254.167 137.262 254.1C137.355 254.033 137.488 254 137.662 254H138.722C139.002 254 139.142 254.133 139.142 254.4C139.142 254.48 139.115 254.553 139.062 254.62L129.202 267.62C129.108 267.74 129.015 267.833 128.922 267.9C128.842 267.967 128.708 268 128.522 268H127.462ZM137.082 268.12C136.188 268.12 135.482 267.873 134.962 267.38C134.442 266.887 134.155 266.24 134.102 265.44C134.088 265.093 134.082 264.793 134.082 264.54C134.082 264.287 134.088 263.973 134.102 263.6C134.155 262.8 134.428 262.153 134.922 261.66C135.428 261.167 136.148 260.92 137.082 260.92C138.028 260.92 138.748 261.167 139.242 261.66C139.748 262.153 140.022 262.8 140.062 263.6C140.088 263.973 140.102 264.287 140.102 264.54C140.102 264.793 140.088 265.093 140.062 265.44C140.022 266.24 139.735 266.887 139.202 267.38C138.682 267.873 137.975 268.12 137.082 268.12ZM137.082 266.56C137.375 266.56 137.602 266.5 137.762 266.38C137.935 266.26 138.062 266.107 138.142 265.92C138.222 265.733 138.262 265.547 138.262 265.36C138.288 265.027 138.302 264.747 138.302 264.52C138.302 264.28 138.288 264.007 138.262 263.7C138.248 263.393 138.155 263.113 137.982 262.86C137.808 262.593 137.508 262.46 137.082 262.46C136.668 262.46 136.375 262.593 136.202 262.86C136.028 263.113 135.928 263.393 135.902 263.7C135.888 264.007 135.882 264.28 135.882 264.52C135.882 264.747 135.888 265.027 135.902 265.36C135.928 265.547 135.975 265.733 136.042 265.92C136.122 266.107 136.242 266.26 136.402 266.38C136.575 266.5 136.802 266.56 137.082 266.56ZM129.102 261.04C128.208 261.04 127.502 260.807 126.982 260.34C126.462 259.873 126.175 259.24 126.122 258.44C126.108 258.093 126.102 257.793 126.102 257.54C126.102 257.273 126.108 256.953 126.122 256.58C126.175 255.78 126.448 255.133 126.942 254.64C127.448 254.147 128.168 253.9 129.102 253.9C130.048 253.9 130.768 254.147 131.262 254.64C131.768 255.133 132.042 255.78 132.082 256.58C132.108 256.953 132.122 257.273 132.122 257.54C132.122 257.793 132.108 258.093 132.082 258.44C132.042 259.24 131.755 259.873 131.222 260.34C130.702 260.807 129.995 261.04 129.102 261.04ZM129.102 259.56C129.395 259.56 129.622 259.5 129.782 259.38C129.955 259.26 130.082 259.107 130.162 258.92C130.242 258.733 130.282 258.54 130.282 258.34C130.308 258.007 130.322 257.727 130.322 257.5C130.322 257.26 130.308 256.987 130.282 256.68C130.268 256.373 130.175 256.093 130.002 255.84C129.828 255.587 129.528 255.46 129.102 255.46C128.688 255.46 128.395 255.587 128.222 255.84C128.048 256.093 127.955 256.373 127.942 256.68C127.928 256.987 127.922 257.26 127.922 257.5C127.922 257.727 127.928 258.007 127.942 258.34C127.955 258.54 127.995 258.733 128.062 258.92C128.142 259.107 128.262 259.26 128.422 259.38C128.595 259.5 128.822 259.56 129.102 259.56ZM142.685 261C142.552 261 142.439 260.953 142.345 260.86C142.252 260.767 142.205 260.653 142.205 260.52V258.62C142.205 258.473 142.252 258.353 142.345 258.26C142.439 258.167 142.552 258.12 142.685 258.12H144.665C144.812 258.12 144.932 258.167 145.025 258.26C145.119 258.353 145.165 258.473 145.165 258.62V260.52C145.165 260.653 145.119 260.767 145.025 260.86C144.932 260.953 144.812 261 144.665 261H142.685ZM142.685 268C142.552 268 142.439 267.953 142.345 267.86C142.252 267.767 142.205 267.653 142.205 267.52V265.62C142.205 265.473 142.252 265.353 142.345 265.26C142.439 265.167 142.552 265.12 142.685 265.12H144.665C144.812 265.12 144.932 265.167 145.025 265.26C145.119 265.353 145.165 265.473 145.165 265.62V267.52C145.165 267.653 145.119 267.767 145.025 267.86C144.932 267.953 144.812 268 144.665 268H142.685Z" fill="#DB3E0D"/>
<path d="M156.544 268C156.397 268 156.277 267.953 156.184 267.86C156.104 267.767 156.064 267.653 156.064 267.52V257.16L153.024 259.5C152.904 259.58 152.784 259.613 152.664 259.6C152.544 259.573 152.437 259.5 152.344 259.38L151.504 258.3C151.424 258.18 151.391 258.053 151.404 257.92C151.431 257.787 151.504 257.68 151.624 257.6L156.104 254.14C156.184 254.073 156.264 254.033 156.344 254.02C156.424 254.007 156.511 254 156.604 254H158.364C158.497 254 158.611 254.047 158.704 254.14C158.797 254.233 158.844 254.347 158.844 254.48V267.52C158.844 267.653 158.797 267.767 158.704 267.86C158.611 267.953 158.497 268 158.364 268H156.544ZM166.822 268.2C165.875 268.2 165.068 268.06 164.402 267.78C163.735 267.5 163.188 267.113 162.762 266.62C162.335 266.127 162.015 265.56 161.802 264.92C161.588 264.267 161.462 263.573 161.422 262.84C161.408 262.48 161.395 262.087 161.382 261.66C161.382 261.22 161.382 260.78 161.382 260.34C161.395 259.9 161.408 259.493 161.422 259.12C161.448 258.387 161.575 257.7 161.802 257.06C162.028 256.407 162.355 255.84 162.782 255.36C163.222 254.88 163.775 254.5 164.442 254.22C165.108 253.94 165.902 253.8 166.822 253.8C167.755 253.8 168.555 253.94 169.222 254.22C169.888 254.5 170.435 254.88 170.862 255.36C171.302 255.84 171.628 256.407 171.842 257.06C172.068 257.7 172.195 258.387 172.222 259.12C172.248 259.493 172.262 259.9 172.262 260.34C172.262 260.78 172.262 261.22 172.262 261.66C172.262 262.087 172.248 262.48 172.222 262.84C172.195 263.573 172.075 264.267 171.862 264.92C171.648 265.56 171.328 266.127 170.902 266.62C170.475 267.113 169.922 267.5 169.242 267.78C168.575 268.06 167.768 268.2 166.822 268.2ZM166.822 265.9C167.688 265.9 168.322 265.62 168.722 265.06C169.135 264.487 169.348 263.713 169.362 262.74C169.388 262.353 169.402 261.967 169.402 261.58C169.402 261.18 169.402 260.78 169.402 260.38C169.402 259.98 169.388 259.6 169.362 259.24C169.348 258.293 169.135 257.533 168.722 256.96C168.322 256.373 167.688 256.08 166.822 256.08C165.968 256.08 165.335 256.373 164.922 256.96C164.522 257.533 164.308 258.293 164.282 259.24C164.282 259.6 164.275 259.98 164.262 260.38C164.262 260.78 164.262 261.18 164.262 261.58C164.275 261.967 164.282 262.353 164.282 262.74C164.308 263.713 164.528 264.487 164.942 265.06C165.355 265.62 165.982 265.9 166.822 265.9ZM179.966 268.2C179.02 268.2 178.213 268.06 177.546 267.78C176.88 267.5 176.333 267.113 175.906 266.62C175.48 266.127 175.16 265.56 174.946 264.92C174.733 264.267 174.606 263.573 174.566 262.84C174.553 262.48 174.54 262.087 174.526 261.66C174.526 261.22 174.526 260.78 174.526 260.34C174.54 259.9 174.553 259.493 174.566 259.12C174.593 258.387 174.72 257.7 174.946 257.06C175.173 256.407 175.5 255.84 175.926 255.36C176.366 254.88 176.92 254.5 177.586 254.22C178.253 253.94 179.046 253.8 179.966 253.8C180.9 253.8 181.7 253.94 182.366 254.22C183.033 254.5 183.58 254.88 184.006 255.36C184.446 255.84 184.773 256.407 184.986 257.06C185.213 257.7 185.34 258.387 185.366 259.12C185.393 259.493 185.406 259.9 185.406 260.34C185.406 260.78 185.406 261.22 185.406 261.66C185.406 262.087 185.393 262.48 185.366 262.84C185.34 263.573 185.22 264.267 185.006 264.92C184.793 265.56 184.473 266.127 184.046 266.62C183.62 267.113 183.066 267.5 182.386 267.78C181.72 268.06 180.913 268.2 179.966 268.2ZM179.966 265.9C180.833 265.9 181.466 265.62 181.866 265.06C182.28 264.487 182.493 263.713 182.506 262.74C182.533 262.353 182.546 261.967 182.546 261.58C182.546 261.18 182.546 260.78 182.546 260.38C182.546 259.98 182.533 259.6 182.506 259.24C182.493 258.293 182.28 257.533 181.866 256.96C181.466 256.373 180.833 256.08 179.966 256.08C179.113 256.08 178.48 256.373 178.066 256.96C177.666 257.533 177.453 258.293 177.426 259.24C177.426 259.6 177.42 259.98 177.406 260.38C177.406 260.78 177.406 261.18 177.406 261.58C177.42 261.967 177.426 262.353 177.426 262.74C177.453 263.713 177.673 264.487 178.086 265.06C178.5 265.62 179.126 265.9 179.966 265.9ZM187.536 269.5C187.416 269.5 187.323 269.46 187.256 269.38C187.189 269.3 187.163 269.2 187.176 269.08L187.716 265.68C187.743 265.507 187.803 265.36 187.896 265.24C188.003 265.107 188.156 265.04 188.356 265.04H190.196C190.303 265.04 190.389 265.08 190.456 265.16C190.523 265.227 190.556 265.313 190.556 265.42C190.556 265.513 190.536 265.6 190.496 265.68L189.216 269C189.163 269.133 189.083 269.247 188.976 269.34C188.883 269.447 188.743 269.5 188.556 269.5H187.536ZM197.955 268.2C197.008 268.2 196.201 268.06 195.535 267.78C194.868 267.5 194.321 267.113 193.895 266.62C193.468 266.127 193.148 265.56 192.935 264.92C192.721 264.267 192.595 263.573 192.555 262.84C192.541 262.48 192.528 262.087 192.515 261.66C192.515 261.22 192.515 260.78 192.515 260.34C192.528 259.9 192.541 259.493 192.555 259.12C192.581 258.387 192.708 257.7 192.935 257.06C193.161 256.407 193.488 255.84 193.915 255.36C194.355 254.88 194.908 254.5 195.575 254.22C196.241 253.94 197.035 253.8 197.955 253.8C198.888 253.8 199.688 253.94 200.355 254.22C201.021 254.5 201.568 254.88 201.995 255.36C202.435 255.84 202.761 256.407 202.975 257.06C203.201 257.7 203.328 258.387 203.355 259.12C203.381 259.493 203.395 259.9 203.395 260.34C203.395 260.78 203.395 261.22 203.395 261.66C203.395 262.087 203.381 262.48 203.355 262.84C203.328 263.573 203.208 264.267 202.995 264.92C202.781 265.56 202.461 266.127 202.035 266.62C201.608 267.113 201.055 267.5 200.375 267.78C199.708 268.06 198.901 268.2 197.955 268.2ZM197.955 265.9C198.821 265.9 199.455 265.62 199.855 265.06C200.268 264.487 200.481 263.713 200.495 262.74C200.521 262.353 200.535 261.967 200.535 261.58C200.535 261.18 200.535 260.78 200.535 260.38C200.535 259.98 200.521 259.6 200.495 259.24C200.481 258.293 200.268 257.533 199.855 256.96C199.455 256.373 198.821 256.08 197.955 256.08C197.101 256.08 196.468 256.373 196.055 256.96C195.655 257.533 195.441 258.293 195.415 259.24C195.415 259.6 195.408 259.98 195.395 260.38C195.395 260.78 195.395 261.18 195.395 261.58C195.408 261.967 195.415 262.353 195.415 262.74C195.441 263.713 195.661 264.487 196.075 265.06C196.488 265.62 197.115 265.9 197.955 265.9ZM211.099 268.2C210.152 268.2 209.346 268.06 208.679 267.78C208.012 267.5 207.466 267.113 207.039 266.62C206.612 266.127 206.292 265.56 206.079 264.92C205.866 264.267 205.739 263.573 205.699 262.84C205.686 262.48 205.672 262.087 205.659 261.66C205.659 261.22 205.659 260.78 205.659 260.34C205.672 259.9 205.686 259.493 205.699 259.12C205.726 258.387 205.852 257.7 206.079 257.06C206.306 256.407 206.632 255.84 207.059 255.36C207.499 254.88 208.052 254.5 208.719 254.22C209.386 253.94 210.179 253.8 211.099 253.8C212.032 253.8 212.832 253.94 213.499 254.22C214.166 254.5 214.712 254.88 215.139 255.36C215.579 255.84 215.906 256.407 216.119 257.06C216.346 257.7 216.472 258.387 216.499 259.12C216.526 259.493 216.539 259.9 216.539 260.34C216.539 260.78 216.539 261.22 216.539 261.66C216.539 262.087 216.526 262.48 216.499 262.84C216.472 263.573 216.352 264.267 216.139 264.92C215.926 265.56 215.606 266.127 215.179 266.62C214.752 267.113 214.199 267.5 213.519 267.78C212.852 268.06 212.046 268.2 211.099 268.2ZM211.099 265.9C211.966 265.9 212.599 265.62 212.999 265.06C213.412 264.487 213.626 263.713 213.639 262.74C213.666 262.353 213.679 261.967 213.679 261.58C213.679 261.18 213.679 260.78 213.679 260.38C213.679 259.98 213.666 259.6 213.639 259.24C213.626 258.293 213.412 257.533 212.999 256.96C212.599 256.373 211.966 256.08 211.099 256.08C210.246 256.08 209.612 256.373 209.199 256.96C208.799 257.533 208.586 258.293 208.559 259.24C208.559 259.6 208.552 259.98 208.539 260.38C208.539 260.78 208.539 261.18 208.539 261.58C208.552 261.967 208.559 262.353 208.559 262.74C208.586 263.713 208.806 264.487 209.219 265.06C209.632 265.62 210.259 265.9 211.099 265.9ZM224.244 268.2C223.297 268.2 222.49 268.06 221.824 267.78C221.157 267.5 220.61 267.113 220.184 266.62C219.757 266.127 219.437 265.56 219.224 264.92C219.01 264.267 218.884 263.573 218.844 262.84C218.83 262.48 218.817 262.087 218.804 261.66C218.804 261.22 218.804 260.78 218.804 260.34C218.817 259.9 218.83 259.493 218.844 259.12C218.87 258.387 218.997 257.7 219.224 257.06C219.45 256.407 219.777 255.84 220.204 255.36C220.644 254.88 221.197 254.5 221.864 254.22C222.53 253.94 223.324 253.8 224.244 253.8C225.177 253.8 225.977 253.94 226.644 254.22C227.31 254.5 227.857 254.88 228.284 255.36C228.724 255.84 229.05 256.407 229.264 257.06C229.49 257.7 229.617 258.387 229.644 259.12C229.67 259.493 229.684 259.9 229.684 260.34C229.684 260.78 229.684 261.22 229.684 261.66C229.684 262.087 229.67 262.48 229.644 262.84C229.617 263.573 229.497 264.267 229.284 264.92C229.07 265.56 228.75 266.127 228.324 266.62C227.897 267.113 227.344 267.5 226.664 267.78C225.997 268.06 225.19 268.2 224.244 268.2ZM224.244 265.9C225.11 265.9 225.744 265.62 226.144 265.06C226.557 264.487 226.77 263.713 226.784 262.74C226.81 262.353 226.824 261.967 226.824 261.58C226.824 261.18 226.824 260.78 226.824 260.38C226.824 259.98 226.81 259.6 226.784 259.24C226.77 258.293 226.557 257.533 226.144 256.96C225.744 256.373 225.11 256.08 224.244 256.08C223.39 256.08 222.757 256.373 222.344 256.96C221.944 257.533 221.73 258.293 221.704 259.24C221.704 259.6 221.697 259.98 221.684 260.38C221.684 260.78 221.684 261.18 221.684 261.58C221.697 261.967 221.704 262.353 221.704 262.74C221.73 263.713 221.95 264.487 222.364 265.06C222.777 265.62 223.404 265.9 224.244 265.9ZM231.813 269.5C231.693 269.5 231.6 269.46 231.533 269.38C231.467 269.3 231.44 269.2 231.453 269.08L231.993 265.68C232.02 265.507 232.08 265.36 232.173 265.24C232.28 265.107 232.433 265.04 232.633 265.04H234.473C234.58 265.04 234.667 265.08 234.733 265.16C234.8 265.227 234.833 265.313 234.833 265.42C234.833 265.513 234.813 265.6 234.773 265.68L233.493 269C233.44 269.133 233.36 269.247 233.253 269.34C233.16 269.447 233.02 269.5 232.833 269.5H231.813ZM242.232 268.2C241.285 268.2 240.479 268.06 239.812 267.78C239.145 267.5 238.599 267.113 238.172 266.62C237.745 266.127 237.425 265.56 237.212 264.92C236.999 264.267 236.872 263.573 236.832 262.84C236.819 262.48 236.805 262.087 236.792 261.66C236.792 261.22 236.792 260.78 236.792 260.34C236.805 259.9 236.819 259.493 236.832 259.12C236.859 258.387 236.985 257.7 237.212 257.06C237.439 256.407 237.765 255.84 238.192 255.36C238.632 254.88 239.185 254.5 239.852 254.22C240.519 253.94 241.312 253.8 242.232 253.8C243.165 253.8 243.965 253.94 244.632 254.22C245.299 254.5 245.845 254.88 246.272 255.36C246.712 255.84 247.039 256.407 247.252 257.06C247.479 257.7 247.605 258.387 247.632 259.12C247.659 259.493 247.672 259.9 247.672 260.34C247.672 260.78 247.672 261.22 247.672 261.66C247.672 262.087 247.659 262.48 247.632 262.84C247.605 263.573 247.485 264.267 247.272 264.92C247.059 265.56 246.739 266.127 246.312 266.62C245.885 267.113 245.332 267.5 244.652 267.78C243.985 268.06 243.179 268.2 242.232 268.2ZM242.232 265.9C243.099 265.9 243.732 265.62 244.132 265.06C244.545 264.487 244.759 263.713 244.772 262.74C244.799 262.353 244.812 261.967 244.812 261.58C244.812 261.18 244.812 260.78 244.812 260.38C244.812 259.98 244.799 259.6 244.772 259.24C244.759 258.293 244.545 257.533 244.132 256.96C243.732 256.373 243.099 256.08 242.232 256.08C241.379 256.08 240.745 256.373 240.332 256.96C239.932 257.533 239.719 258.293 239.692 259.24C239.692 259.6 239.685 259.98 239.672 260.38C239.672 260.78 239.672 261.18 239.672 261.58C239.685 261.967 239.692 262.353 239.692 262.74C239.719 263.713 239.939 264.487 240.352 265.06C240.765 265.62 241.392 265.9 242.232 265.9ZM255.376 268.2C254.43 268.2 253.623 268.06 252.956 267.78C252.29 267.5 251.743 267.113 251.316 266.62C250.89 266.127 250.57 265.56 250.356 264.92C250.143 264.267 250.016 263.573 249.976 262.84C249.963 262.48 249.95 262.087 249.936 261.66C249.936 261.22 249.936 260.78 249.936 260.34C249.95 259.9 249.963 259.493 249.976 259.12C250.003 258.387 250.13 257.7 250.356 257.06C250.583 256.407 250.91 255.84 251.336 255.36C251.776 254.88 252.33 254.5 252.996 254.22C253.663 253.94 254.456 253.8 255.376 253.8C256.31 253.8 257.11 253.94 257.776 254.22C258.443 254.5 258.99 254.88 259.416 255.36C259.856 255.84 260.183 256.407 260.396 257.06C260.623 257.7 260.75 258.387 260.776 259.12C260.803 259.493 260.816 259.9 260.816 260.34C260.816 260.78 260.816 261.22 260.816 261.66C260.816 262.087 260.803 262.48 260.776 262.84C260.75 263.573 260.63 264.267 260.416 264.92C260.203 265.56 259.883 266.127 259.456 266.62C259.03 267.113 258.476 267.5 257.796 267.78C257.13 268.06 256.323 268.2 255.376 268.2ZM255.376 265.9C256.243 265.9 256.876 265.62 257.276 265.06C257.69 264.487 257.903 263.713 257.916 262.74C257.943 262.353 257.956 261.967 257.956 261.58C257.956 261.18 257.956 260.78 257.956 260.38C257.956 259.98 257.943 259.6 257.916 259.24C257.903 258.293 257.69 257.533 257.276 256.96C256.876 256.373 256.243 256.08 255.376 256.08C254.523 256.08 253.89 256.373 253.476 256.96C253.076 257.533 252.863 258.293 252.836 259.24C252.836 259.6 252.83 259.98 252.816 260.38C252.816 260.78 252.816 261.18 252.816 261.58C252.83 261.967 252.836 262.353 252.836 262.74C252.863 263.713 253.083 264.487 253.496 265.06C253.91 265.62 254.536 265.9 255.376 265.9ZM268.521 268.2C267.574 268.2 266.768 268.06 266.101 267.78C265.434 267.5 264.888 267.113 264.461 266.62C264.034 266.127 263.714 265.56 263.501 264.92C263.288 264.267 263.161 263.573 263.121 262.84C263.108 262.48 263.094 262.087 263.081 261.66C263.081 261.22 263.081 260.78 263.081 260.34C263.094 259.9 263.108 259.493 263.121 259.12C263.148 258.387 263.274 257.7 263.501 257.06C263.728 256.407 264.054 255.84 264.481 255.36C264.921 254.88 265.474 254.5 266.141 254.22C266.808 253.94 267.601 253.8 268.521 253.8C269.454 253.8 270.254 253.94 270.921 254.22C271.588 254.5 272.134 254.88 272.561 255.36C273.001 255.84 273.328 256.407 273.541 257.06C273.768 257.7 273.894 258.387 273.921 259.12C273.948 259.493 273.961 259.9 273.961 260.34C273.961 260.78 273.961 261.22 273.961 261.66C273.961 262.087 273.948 262.48 273.921 262.84C273.894 263.573 273.774 264.267 273.561 264.92C273.348 265.56 273.028 266.127 272.601 266.62C272.174 267.113 271.621 267.5 270.941 267.78C270.274 268.06 269.468 268.2 268.521 268.2ZM268.521 265.9C269.388 265.9 270.021 265.62 270.421 265.06C270.834 264.487 271.048 263.713 271.061 262.74C271.088 262.353 271.101 261.967 271.101 261.58C271.101 261.18 271.101 260.78 271.101 260.38C271.101 259.98 271.088 259.6 271.061 259.24C271.048 258.293 270.834 257.533 270.421 256.96C270.021 256.373 269.388 256.08 268.521 256.08C267.668 256.08 267.034 256.373 266.621 256.96C266.221 257.533 266.008 258.293 265.981 259.24C265.981 259.6 265.974 259.98 265.961 260.38C265.961 260.78 265.961 261.18 265.961 261.58C265.974 261.967 265.981 262.353 265.981 262.74C266.008 263.713 266.228 264.487 266.641 265.06C267.054 265.62 267.681 265.9 268.521 265.9ZM281.716 268C281.582 268 281.469 267.953 281.376 267.86C281.282 267.767 281.236 267.653 281.236 267.52V254.5C281.236 254.353 281.282 254.233 281.376 254.14C281.469 254.047 281.582 254 281.716 254H290.396C290.542 254 290.662 254.047 290.756 254.14C290.849 254.233 290.896 254.353 290.896 254.5V255.9C290.896 256.047 290.849 256.167 290.756 256.26C290.662 256.34 290.542 256.38 290.396 256.38H283.976V260.18H289.996C290.142 260.18 290.262 260.227 290.356 260.32C290.449 260.413 290.496 260.533 290.496 260.68V262.08C290.496 262.213 290.449 262.327 290.356 262.42C290.262 262.513 290.142 262.56 289.996 262.56H283.976V267.52C283.976 267.653 283.929 267.767 283.836 267.86C283.742 267.953 283.622 268 283.476 268H281.716ZM291.567 268C291.461 268 291.361 267.96 291.267 267.88C291.187 267.8 291.147 267.7 291.147 267.58C291.147 267.527 291.161 267.467 291.187 267.4L296.007 254.5C296.047 254.367 296.121 254.253 296.227 254.16C296.347 254.053 296.507 254 296.707 254H298.887C299.087 254 299.241 254.053 299.347 254.16C299.454 254.253 299.534 254.367 299.587 254.5L304.407 267.4C304.421 267.467 304.427 267.527 304.427 267.58C304.427 267.7 304.387 267.8 304.307 267.88C304.227 267.96 304.134 268 304.027 268H302.287C302.101 268 301.961 267.96 301.867 267.88C301.787 267.787 301.734 267.7 301.707 267.62L300.767 265.18H294.827L293.887 267.62C293.861 267.7 293.801 267.787 293.707 267.88C293.627 267.96 293.494 268 293.307 268H291.567ZM295.527 262.88H300.067L297.787 256.7L295.527 262.88ZM306.774 268C306.641 268 306.528 267.953 306.434 267.86C306.341 267.767 306.294 267.653 306.294 267.52V254.48C306.294 254.347 306.341 254.233 306.434 254.14C306.528 254.047 306.641 254 306.774 254H308.654C308.801 254 308.914 254.047 308.994 254.14C309.088 254.233 309.134 254.347 309.134 254.48V267.52C309.134 267.653 309.088 267.767 308.994 267.86C308.914 267.953 308.801 268 308.654 268H306.774Z" fill="white"/>
<rect x="15.168" y="29" width="21.4497" height="21.4497" transform="rotate(45 15.168 29)" fill="#9D5B3E"/>
<rect x="15.168" y="138" width="21.4497" height="21.4497" transform="rotate(45 15.168 138)" fill="#DEA617"/>
<rect x="15.168" y="247" width="21.4497" height="21.4497" transform="rotate(45 15.168 247)" fill="#DB3E0D"/>
<defs>
<linearGradient id="paint0_linear_233_20" x1="537.5" y1="43.9999" x2="14" y2="43.9999" gradientUnits="userSpaceOnUse">
<stop stop-color="white"/>
<stop offset="1" stop-color="white" stop-opacity="0"/>
</linearGradient>
<linearGradient id="paint1_linear_233_20" x1="537.5" y1="262" x2="14" y2="262" gradientUnits="userSpaceOnUse">
<stop stop-color="white"/>
<stop offset="1" stop-color="white" stop-opacity="0"/>
</linearGradient>
<linearGradient id="paint2_linear_233_20" x1="537.5" y1="153" x2="14" y2="153" gradientUnits="userSpaceOnUse">
<stop stop-color="white"/>
<stop offset="1" stop-color="white" stop-opacity="0"/>
</linearGradient>
</defs>
</svg>
