<svg width="197" height="51" viewBox="0 0 197 51" fill="none" xmlns="http://www.w3.org/2000/svg">
<path d="M58.5 32H62.5V26.5L70.5 26V22.45L62.5 22.95V17.875H71.075V14.375H58.5V32ZM72.0625 25.675C72.0625 30.1 75.2125 32.25 79.1875 32.25C83.1375 32.25 86.2875 30.1 86.2875 25.675C86.2875 21.275 83.1375 19.125 79.1875 19.125C75.2125 19.125 72.0625 21.275 72.0625 25.675ZM76.0625 25.675C76.0625 23.575 77.2875 22.625 79.1875 22.625C81.0625 22.625 82.2875 23.575 82.2875 25.675C82.2875 27.8 81.0625 28.75 79.1875 28.75C77.2875 28.75 76.0625 27.8 76.0625 25.675ZM88.041 32H92.041V22.725L98.466 22.875V19.375L90.191 19.175C88.816 19.15 88.041 19.9 88.041 21.275V32ZM99.4795 25.525C99.4795 29.1 101.704 32.25 106.554 32.25C110.929 32.25 113.004 29.375 113.254 27.55H109.254C109.004 28.5 107.954 29 106.554 29C104.279 29 103.229 27.975 103.229 26.525H112.804V25.275C112.804 21.45 110.054 19.125 106.129 19.125C102.204 19.125 99.4795 21.525 99.4795 25.525ZM103.229 24.275C103.229 23.325 103.904 22.375 106.129 22.375C108.354 22.375 109.054 23.325 109.054 24.275H103.229ZM124.469 19.375L121.594 31H120.594L117.694 19.375H113.744L116.969 32H125.219L128.419 19.375H124.469ZM128.923 25.525C128.923 29.1 131.148 32.25 135.998 32.25C140.373 32.25 142.448 29.375 142.698 27.55H138.698C138.448 28.5 137.398 29 135.998 29C133.723 29 132.673 27.975 132.673 26.525H142.248V25.275C142.248 21.45 139.498 19.125 135.573 19.125C131.648 19.125 128.923 21.525 128.923 25.525ZM132.673 24.275C132.673 23.325 133.348 22.375 135.573 22.375C137.798 22.375 138.498 23.325 138.498 24.275H132.673ZM144.438 32H148.438V22.725L154.863 22.875V19.375L146.588 19.175C145.213 19.15 144.438 19.9 144.438 21.275V32ZM177.002 32H181.052L175.952 14.375H167.702L162.627 32H166.677L168.252 26.35H175.402L177.002 32ZM169.227 22.85L171.327 15.375H172.327L174.427 22.85H169.227ZM194.811 17.875V14.375H182.811V17.875H186.811V28.5H182.811V32H194.811V28.5H190.811V17.875H194.811Z" fill="white"/>
<g clip-path="url(#clip0_160_19)">
<path d="M2.83469e-07 18.5168V32.487C0.000154982 34.5104 0.529995 36.4982 1.53627 38.2505C2.54255 40.0028 3.98982 41.458 5.73263 42.4697L17.7674 49.4548C19.5103 50.4666 21.4874 50.9993 23.5 50.9993C25.5126 50.9993 27.4897 50.4666 29.2326 49.4548L41.2674 42.4697C43.0102 41.458 44.4574 40.0028 45.4637 38.2505C46.47 36.4982 46.9998 34.5104 47 32.487V18.5168C47.0004 16.4927 46.4709 14.5043 45.4646 12.7513C44.4583 10.9983 43.0107 9.54263 41.2674 8.53062L29.2326 1.5455C27.4897 0.533705 25.5126 0.0010376 23.5 0.0010376C21.4874 0.0010376 19.5103 0.533705 17.7674 1.5455L5.73263 8.53062C3.98931 9.54263 2.54172 10.9983 1.53542 12.7513C0.529107 14.5043 -0.000447284 16.4927 2.83469e-07 18.5168Z" fill="white" fill-opacity="0.06"/>
<path d="M0.5 18.5168V18.5166C0.499572 16.5799 1.0063 14.6773 1.96905 13.0002C2.93177 11.3232 4.31648 9.93085 5.98365 8.96304L18.0184 1.97794L18.0184 1.97792C19.6852 1.01033 21.5757 0.501038 23.5 0.501038C25.4243 0.501038 27.3148 1.01033 28.9816 1.97792L28.9816 1.97794L41.0163 8.96304C41.0164 8.96305 41.0164 8.96305 41.0164 8.96306C42.6835 9.93087 44.0682 11.3232 45.031 13.0002C45.9937 14.6773 46.5004 16.5799 46.5 18.5166V18.5168V32.487C46.4999 34.4232 45.9928 36.3251 45.0301 38.0015C44.0674 39.6779 42.6831 41.0697 41.0164 42.0372C41.0164 42.0372 41.0164 42.0373 41.0163 42.0373L28.9816 49.0224L28.9816 49.0224C27.3148 49.99 25.4243 50.4993 23.5 50.4993C21.5757 50.4993 19.6852 49.99 18.0184 49.0224L18.0184 49.0224L5.98365 42.0373C5.98364 42.0373 5.98363 42.0372 5.98362 42.0372C4.31694 41.0697 2.93256 39.6779 1.96987 38.0015C1.00715 36.3251 0.500148 34.4232 0.5 32.487V18.5168Z" stroke="white" stroke-opacity="0.09"/>
<path d="M14.4874 12.5663H11.9281C11.2138 12.5663 10.6348 13.1486 10.6348 13.8668V16.4401C10.6348 17.1583 11.2138 17.7405 11.9281 17.7405H14.4874C15.2017 17.7405 15.7808 17.1583 15.7808 16.4401V13.8668C15.7808 13.1486 15.2017 12.5663 14.4874 12.5663Z" fill="#00B860"/>
<path d="M24.7794 12.5663H22.2201C21.5058 12.5663 20.9268 13.1486 20.9268 13.8668V16.4401C20.9268 17.1583 21.5058 17.7405 22.2201 17.7405H24.7794C25.4937 17.7405 26.0727 17.1583 26.0727 16.4401V13.8668C26.0727 13.1486 25.4937 12.5663 24.7794 12.5663Z" fill="#00B860"/>
<path d="M35.0714 12.5663H32.5121C31.7978 12.5663 31.2188 13.1486 31.2188 13.8668V16.4401C31.2188 17.1583 31.7978 17.7405 32.5121 17.7405H35.0714C35.7857 17.7405 36.3647 17.1583 36.3647 16.4401V13.8668C36.3647 13.1486 35.7857 12.5663 35.0714 12.5663Z" fill="#00B860"/>
<path d="M14.4874 33.263H11.9281C11.2138 33.263 10.6348 33.8452 10.6348 34.5634V37.1367C10.6348 37.8549 11.2138 38.4372 11.9281 38.4372H14.4874C15.2017 38.4372 15.7808 37.8549 15.7808 37.1367V34.5634C15.7808 33.8452 15.2017 33.263 14.4874 33.263Z" fill="#00B860"/>
<path d="M35.0714 22.9147H32.5121C31.7978 22.9147 31.2188 23.4969 31.2188 24.2151V26.7884C31.2188 27.5066 31.7978 28.0888 32.5121 28.0888H35.0714C35.7857 28.0888 36.3647 27.5066 36.3647 26.7884V24.2151C36.3647 23.4969 35.7857 22.9147 35.0714 22.9147Z" fill="#00B860"/>
<path d="M14.4874 22.9147H11.9281C11.2138 22.9147 10.6348 23.4969 10.6348 24.2151V26.7884C10.6348 27.5066 11.2138 28.0888 11.9281 28.0888H14.4874C15.2017 28.0888 15.7808 27.5066 15.7808 26.7884V24.2151C15.7808 23.4969 15.2017 22.9147 14.4874 22.9147Z" fill="#00B860"/>
<path d="M24.7794 22.9147H22.2201C21.5058 22.9147 20.9268 23.4969 20.9268 24.2151V26.7884C20.9268 27.5066 21.5058 28.0888 22.2201 28.0888H24.7794C25.4937 28.0888 26.0727 27.5066 26.0727 26.7884V24.2151C26.0727 23.4969 25.4937 22.9147 24.7794 22.9147Z" fill="#00B860"/>
</g>
<defs>
<clipPath id="clip0_160_19">
<rect width="47" height="51" fill="white"/>
</clipPath>
</defs>
</svg>
