<svg width="47" height="51" viewBox="0 0 47 51" fill="none" xmlns="http://www.w3.org/2000/svg">
<path d="M2.83469e-07 18.5168V32.487C0.000154982 34.5104 0.529995 36.4982 1.53627 38.2505C2.54255 40.0028 3.98982 41.458 5.73263 42.4697L17.7674 49.4548C19.5103 50.4666 21.4874 50.9993 23.5 50.9993C25.5126 50.9993 27.4897 50.4666 29.2326 49.4548L41.2674 42.4697C43.0102 41.458 44.4574 40.0028 45.4637 38.2505C46.47 36.4982 46.9998 34.5104 47 32.487V18.5168C47.0004 16.4927 46.4709 14.5043 45.4646 12.7513C44.4583 10.9983 43.0107 9.54263 41.2674 8.53062L29.2326 1.5455C27.4897 0.533705 25.5126 0.0010376 23.5 0.0010376C21.4874 0.0010376 19.5103 0.533705 17.7674 1.5455L5.73263 8.53062C3.98931 9.54263 2.54172 10.9983 1.53542 12.7513C0.529107 14.5043 -0.000447284 16.4927 2.83469e-07 18.5168Z" fill="white" fill-opacity="0.06"/>
<path d="M0.5 18.5168V18.5166C0.499572 16.5799 1.0063 14.6773 1.96905 13.0002C2.93177 11.3232 4.31648 9.93085 5.98365 8.96304L18.0184 1.97794L18.0184 1.97792C19.6852 1.01033 21.5757 0.501038 23.5 0.501038C25.4243 0.501038 27.3148 1.01033 28.9816 1.97792L28.9816 1.97794L41.0163 8.96304C42.6835 9.93085 44.0682 11.3232 45.031 13.0002C45.9937 14.6773 46.5004 16.5799 46.5 18.5166V18.5168V32.487C46.4999 34.4232 45.9928 36.3251 45.0301 38.0015C44.0674 39.6779 42.683 41.0697 41.0163 42.0373L28.9816 49.0224L28.9816 49.0224C27.3148 49.99 25.4243 50.4993 23.5 50.4993C21.5757 50.4993 19.6852 49.99 18.0184 49.0224L18.0184 49.0224L5.98365 42.0373C5.98364 42.0373 5.98363 42.0373 5.98362 42.0372C4.31694 41.0697 2.93256 39.6779 1.96987 38.0015C1.00715 36.3251 0.500148 34.4232 0.5 32.487V18.5168Z" stroke="white" stroke-opacity="0.09"/>
</svg>
